<?xml version="1.0" encoding="UTF-8"?>
<svg id="Layer_1" xmlns="http://www.w3.org/2000/svg" viewBox="0 0 1394 782">
  <defs>
    <style>
      .cls-1 {
        fill: rgba(177, 197, 55, .7);
      }

      .cls-2 {
        fill: none;
        stroke: #b3bff4;
        stroke-width: 21px;
      }

      .cls-3 {
        fill: rgba(255, 223, 83, .7);
      }

      .cls-4 {
        fill: rgba(255, 223, 83, .6);
      }

      .cls-5 {
        fill: rgba(255, 151, 214, .6);
      }

      .cls-6 {
        fill: rgba(255, 151, 214, .5);
      }

      .cls-7 {
        fill: #ebe8d5;
      }

      .cls-8 {
        fill: #fff;
      }

      .cls-9 {
        fill: rgba(255, 151, 214, .7);
      }

      .cls-10 {
        fill: #ff97d6;
      }

      .cls-11 {
        fill: #ffdf53;
      }

      .cls-12 {
        fill: #4559b2;
      }

      .cls-13 {
        fill: #fbf6eb;
      }

      .cls-14 {
        fill: #3d3b3b;
      }
    </style>
  </defs>
  <rect class="cls-11" x="290.67" y="308.79" width="20.94" height="41.88" rx="9.52" ry="9.52" transform="translate(-117.22 173.57) rotate(-27.13)"/>
  <rect class="cls-1" x="978.97" y="369.62" width="22.79" height="45.59" rx="10.36" ry="10.36" transform="translate(-30.82 89.1) rotate(-5.07)"/>
  <path class="cls-12" d="M203.38,406.48c-14.05-70.63.08-119.31,34.55-181.18,42.98-77.14,68.11-41.86,141.52-84.37,46.97-27.2,71.69-52.58,124.47-60.39,53.96-7.98,83.62,17.15,137.76,23.49,120.05,14.05,197.65-50.03,309.19,0,62.33,27.96,99.48,49.98,141.75,106.88,39.06,52.59,57.17,91.13,64.23,158.17,11.49,109.17-5.77,216.17-98.78,260.26-53.72,25.46-91.57-2.45-150.17,0-140.35,5.85-216.63,63.59-356.59,50.81-85.58-7.82-138.88-7.45-214.84-50.81-80.83-46.13-113.86-126.21-133.1-222.87Z"/>
  <path class="cls-2" d="M1332.27,332.46c-37.87,49.12-89.29,63.68-150.15,51.75-21.08-4.13-38.71-2.4-51.31-19.79-12.4-17.11,4.89-34.55-3.37-54-12.48-29.37-60.54-17.4-65.46-48.93-3.38-21.67,14.56-31.36,19.07-52.83,8.17-38.9-21.67-65.67-4.81-101.67,16.29-34.78,41.17-47.92,77.39-60.69,45.97-16.22,89.85-24.45,124.44,9.9,27.65,27.45,5.28,62.77,24.35,96.75,16.24,28.94,45.94,31.7,57.07,62.97,15.68,44.03,1.31,79.52-27.22,116.54Z"/>
  <path class="cls-2" d="M333.27,453.4c-13.14-42.59-67.99-25.34-98.28-58.04-14.1-15.22-12.61-33.1-30.6-43.45-33.46-19.24-77.76-13.21-91.82,36.61-14.06,49.82-71.04,29.36-72.85,68.33-1.63,34.91,43.5,38.68,52.56,72.43,10.31,38.46-40.19,57.35-15.99,100.69,24.2,43.34,83.73,31.03,115.73,76.03s99,33,124.92,3.34c24.59-28.14,61.45-33.54,64.39-70.79,3.87-49.1-45.02-39.26-53.54-87.77-7.66-43.62,18.55-55.06,5.49-97.38Z"/>
  <path class="cls-13" d="M394.43,298.28c2.35,0,4.31.63,5.88,1.9,1.57,1.21,2.86,2.74,3.89,4.61,1.09,1.81,1.99,3.8,2.71,5.97.72,2.11,1.39,4.1,1.99,5.97.66,1.81,1.33,3.34,1.99,4.61.66,1.21,1.51,1.81,2.53,1.81.78,0,1.54-.6,2.26-1.81.72-1.2,1.48-2.71,2.26-4.52.78-1.87,1.66-3.86,2.62-5.97.96-2.17,2.08-4.16,3.35-5.97,1.33-1.87,2.83-3.4,4.52-4.61,1.75-1.21,3.8-1.81,6.15-1.81s4.19.45,5.7,1.36c1.51.84,2.68,2.08,3.52,3.71.84,1.63,1.42,3.65,1.72,6.06.36,2.35.54,5.03.54,8.05,0,2.05.39,4.49,1.17,7.32.84,2.77,1.75,5.79,2.71,9.04.96,3.25,1.84,6.69,2.62,10.31.84,3.62,1.27,7.26,1.27,10.94,0,4.94-.42,9.07-1.27,12.39-.84,3.31-2.02,5.97-3.53,7.96-1.45,2.05-3.19,3.49-5.24,4.34-1.99.84-4.19,1.27-6.6,1.27s-4.76-.42-6.87-1.27c-2.05-.84-3.83-2.02-5.33-3.52-1.45-1.51-2.59-3.32-3.44-5.42-.78-2.11-1.17-4.46-1.17-7.05,0-3.49.3-6.39.9-8.68.6-2.29,1.27-4.34,1.99-6.15.78-1.87,1.48-3.68,2.08-5.42.6-1.75.9-3.86.9-6.33,0-1.39-.24-2.47-.72-3.26-.42-.78-.99-1.17-1.72-1.17-.66,0-1.24.51-1.72,1.54-.42,1.02-.81,2.32-1.18,3.89-.36,1.51-.72,3.16-1.08,4.97-.36,1.81-.84,3.5-1.45,5.06-.54,1.51-1.27,2.77-2.17,3.8-.84,1.02-1.93,1.54-3.25,1.54s-2.44-.51-3.35-1.54c-.9-1.02-1.69-2.29-2.35-3.8-.66-1.57-1.24-3.26-1.72-5.06-.42-1.81-.84-3.46-1.27-4.97-.36-1.57-.72-2.86-1.08-3.89-.36-1.02-.78-1.54-1.27-1.54-.6,0-1.12.27-1.54.81-.36.54-.66,1.2-.9,1.99-.18.78-.3,1.63-.36,2.53-.06.9-.09,1.69-.09,2.35,0,2.41.42,4.61,1.27,6.6.84,1.93,1.78,3.83,2.8,5.7,1.08,1.87,2.05,3.77,2.89,5.69.84,1.87,1.27,3.98,1.27,6.33s-.3,4.61-.9,6.78c-.6,2.23-1.69,4.16-3.26,5.79-1.51,1.69-3.59,3.04-6.24,4.07-2.65,1.03-6,1.54-10.04,1.54-2.59,0-4.85-.6-6.78-1.81-1.87-1.2-3.4-2.71-4.61-4.52-1.15-1.81-2.02-3.77-2.62-5.88-.54-2.11-.81-4.1-.81-5.97,0-4.4.33-8.62.99-12.66.72-4.1,1.51-8.2,2.35-12.29.84-4.1,1.6-8.29,2.26-12.57.72-4.34,1.09-8.95,1.09-13.83,0-2.17.33-4.16.99-5.97.72-1.87,1.75-3.49,3.07-4.88,1.33-1.39,2.95-2.47,4.88-3.26,1.99-.78,4.25-1.18,6.78-1.18ZM461.28,367.43c0-2.11.48-4.16,1.45-6.15,1.02-2.05,2.23-4.04,3.62-5.97,1.45-1.93,2.95-3.77,4.52-5.51,1.63-1.75,3.01-3.4,4.16-4.97,1.87-2.47,3.25-4.91,4.16-7.32.97-2.47,1.66-4.88,2.08-7.23.42-2.35.66-4.61.72-6.78.12-2.23.24-4.34.36-6.33.12-1.99.33-3.83.63-5.52.36-1.69,1.03-3.19,1.99-4.52,1.08-1.51,2.35-2.77,3.8-3.8,1.51-1.02,3.1-1.87,4.79-2.53,1.75-.66,3.53-1.14,5.33-1.45,1.87-.3,3.71-.45,5.51-.45,2.65,0,5.09.36,7.32,1.09,2.29.72,4.28,2.14,5.97,4.25.84,1.02,1.57,2.47,2.17,4.34.66,1.87,1.3,3.86,1.9,5.97.66,2.11,1.33,4.22,1.99,6.33.72,2.11,1.51,3.92,2.35,5.42,1.27,2.17,2.62,4.13,4.07,5.88,1.45,1.69,2.89,3.35,4.34,4.97,1.45,1.57,2.83,3.16,4.16,4.79,1.39,1.57,2.59,3.29,3.62,5.15,1.02,1.81,1.84,3.83,2.44,6.06.66,2.23.99,4.79.99,7.68,0,2.59-.33,5-.99,7.23-.66,2.23-1.69,4.13-3.07,5.7-1.33,1.57-3.04,2.8-5.15,3.71-2.05.9-4.46,1.36-7.23,1.36-3.49,0-6.42-.66-8.77-1.99-2.35-1.27-4.28-2.86-5.78-4.79-1.51-1.93-2.74-4.01-3.71-6.24-.9-2.23-1.75-4.31-2.53-6.24-.72-1.93-1.48-3.52-2.26-4.79-.72-1.33-1.66-1.99-2.8-1.99-.24,0-.51.03-.81.09-.24.06-.45.18-.63.36-1.63,1.21-2.74,2.8-3.35,4.79-.6,1.99-1.02,4.13-1.26,6.42-.24,2.23-.48,4.49-.72,6.78-.24,2.35-.87,4.43-1.9,6.24-1.02,1.87-2.59,3.38-4.7,4.52-2.11,1.21-5.12,1.81-9.04,1.81-6.21,0-11.06-1.36-14.55-4.07-3.43-2.71-5.15-6.81-5.15-12.29ZM496.89,332.63c0,.9.21,1.69.63,2.35.48.66,1.08,1.21,1.81,1.63.72.36,1.51.66,2.35.9.84.18,1.66.27,2.44.27.72,0,1.51-.09,2.35-.27.9-.18,1.72-.48,2.44-.9.78-.42,1.42-.93,1.9-1.54.48-.6.72-1.36.72-2.26,0-.84-.21-1.72-.63-2.62-.36-.9-.9-1.75-1.63-2.53-.66-.78-1.48-1.42-2.44-1.9-.9-.48-1.87-.72-2.89-.72-1.09,0-2.05.24-2.89.72-.84.48-1.6,1.12-2.26,1.9-.6.72-1.08,1.54-1.45,2.44-.3.84-.45,1.69-.45,2.53ZM553,339.95c0-6.81.75-12.87,2.26-18.17,1.51-5.36,3.65-9.88,6.42-13.56,2.83-3.68,6.27-6.48,10.31-8.41,4.04-1.99,8.56-2.98,13.56-2.98,3.07,0,5.97.33,8.68.99,2.71.6,5.06,1.54,7.05,2.8,1.99,1.21,3.56,2.68,4.7,4.43,1.21,1.75,1.81,3.74,1.81,5.97,0,2.47-1.39,4.46-4.16,5.97-2.71,1.45-6.33,2.17-10.85,2.17-2.65,0-5.21.21-7.68.63-2.41.42-4.55,1.24-6.42,2.44-1.87,1.21-3.38,2.89-4.52,5.06-1.09,2.11-1.63,4.88-1.63,8.32,0,1.45.27,2.83.81,4.16.54,1.26,1.29,2.41,2.26,3.43,1.02.96,2.26,1.75,3.71,2.35,1.51.54,3.16.81,4.97.81,1.57,0,3.13-.21,4.7-.63,1.57-.42,2.98-.96,4.25-1.63,1.27-.66,2.29-1.42,3.07-2.26.78-.84,1.17-1.66,1.17-2.44,0-1.75-1.81-2.62-5.42-2.62-1.02,0-2.11.06-3.25.18-1.09.12-2.14.18-3.16.18-2.23,0-3.86-.39-4.88-1.17-.96-.84-1.45-2.14-1.45-3.89s.42-3.13,1.27-4.16c.9-1.02,2.02-1.78,3.34-2.26,1.33-.48,2.74-.78,4.25-.9,1.51-.12,2.92-.18,4.25-.18,4.58,0,8.56.24,11.93.72,3.44.48,6.3,1.54,8.59,3.16,2.29,1.57,4.01,3.83,5.15,6.78s1.72,6.93,1.72,11.93-.87,9.98-2.62,14.55c-1.75,4.52-4.19,8.5-7.32,11.93-3.13,3.43-6.87,6.15-11.21,8.14-4.28,1.99-9.01,2.98-14.19,2.98s-9.64-1.11-13.56-3.35c-3.92-2.17-7.2-5.24-9.85-9.22-2.65-3.92-4.67-8.62-6.06-14.1-1.33-5.54-1.99-11.6-1.99-18.17ZM644.16,296.29c4.28,0,7.62.93,10.04,2.8,2.41,1.81,3.62,4.34,3.62,7.59,0,1.63-.24,3.47-.72,5.51-.48,2.05-.99,4.25-1.54,6.6-.54,2.29-1.06,4.7-1.54,7.23-.48,2.53-.72,5.12-.72,7.77,0,2.89.48,5.55,1.45,7.95,1.03,2.41,2.14,4.79,3.34,7.14,1.21,2.35,2.29,4.76,3.25,7.23,1.03,2.47,1.57,5.21,1.63,8.23v.45c0,14.16-6.09,21.24-18.26,21.24-5.36,0-9.61-1.36-12.75-4.07-3.07-2.65-4.7-6.36-4.88-11.12v-.72c0-2.65.39-5.06,1.17-7.23.84-2.17,1.72-4.37,2.62-6.6.96-2.29,1.84-4.73,2.62-7.32.84-2.59,1.27-5.64,1.27-9.13,0-3.19-.33-6-.99-8.41-.66-2.47-1.42-4.76-2.26-6.87-.78-2.11-1.54-4.19-2.26-6.24-.66-2.11-.99-4.43-.99-6.96,0-4.82,1.36-8.53,4.07-11.12,2.77-2.65,6.72-3.98,11.84-3.98ZM671.72,312.2c0-1.51.24-3.13.72-4.88.54-1.75,1.36-3.38,2.44-4.88,1.14-1.57,2.59-2.86,4.34-3.89,1.75-1.02,3.83-1.54,6.24-1.54,3.56,0,6.39.9,8.5,2.71,2.17,1.81,3.25,4.46,3.25,7.96,0,1.45-.12,2.8-.36,4.07-.24,1.21-.54,2.35-.9,3.43-.3,1.09-.57,2.11-.81,3.07-.24.9-.36,1.78-.36,2.62,0,.66.12,1.17.36,1.54.3.36.87.54,1.72.54,1.27,0,2.41-.57,3.44-1.72,1.08-1.21,2.14-2.68,3.16-4.43,1.02-1.81,2.11-3.74,3.25-5.79,1.15-2.11,2.44-4.04,3.89-5.79,1.45-1.81,3.07-3.29,4.88-4.43,1.81-1.2,3.92-1.81,6.33-1.81,1.81,0,3.41.36,4.79,1.08,1.39.66,2.56,1.63,3.53,2.89,1.02,1.2,1.78,2.62,2.26,4.25.54,1.63.81,3.38.81,5.24,0,2.59-.69,4.82-2.08,6.69-1.39,1.87-3.13,3.47-5.24,4.79-2.11,1.33-4.4,2.47-6.87,3.43-2.41.9-4.67,1.78-6.78,2.62-2.11.78-3.86,1.57-5.24,2.35-1.39.78-2.08,1.69-2.08,2.71s.75,2.08,2.26,3.16c1.51,1.09,3.38,2.29,5.61,3.62,2.23,1.27,4.64,2.68,7.23,4.25,2.65,1.57,5.09,3.4,7.32,5.51,2.23,2.05,4.1,4.4,5.61,7.05,1.51,2.59,2.26,5.55,2.26,8.86,0,1.69-.33,3.47-.99,5.33-.6,1.87-1.57,3.59-2.89,5.15-1.27,1.57-2.92,2.86-4.97,3.89-1.99,1.03-4.34,1.54-7.05,1.54-1.69,0-3.32-.36-4.88-1.08-1.57-.66-3.01-1.57-4.34-2.71-1.27-1.15-2.35-2.44-3.26-3.89-.9-1.45-1.54-2.95-1.9-4.52-.48-1.99-.75-3.95-.81-5.88v-5.6c.06-1.75.06-3.35,0-4.79,0-1.45-.21-2.62-.63-3.53-.24-.54-.54-1.17-.9-1.9-.3-.78-.69-1.51-1.18-2.17-.42-.72-.99-1.33-1.72-1.81-.66-.54-1.51-.81-2.53-.81-1.27,0-2.14.48-2.62,1.45-.42.96-.63,2.14-.63,3.53,0,1.75.45,3.43,1.36,5.06.9,1.63,1.87,3.29,2.89,4.97,1.09,1.69,2.08,3.46,2.98,5.33.9,1.87,1.36,3.92,1.36,6.15,0,1.93-.42,3.74-1.27,5.42-.84,1.75-2.02,3.28-3.53,4.61-1.51,1.33-3.32,2.35-5.42,3.07-2.05.78-4.34,1.18-6.87,1.18-2.23,0-4.37-.39-6.42-1.18-1.99-.78-3.77-1.87-5.33-3.26-1.51-1.32-2.71-2.92-3.62-4.79-.9-1.81-1.36-3.74-1.36-5.79,0-2.29.45-4.52,1.36-6.69.9-2.23,1.9-4.52,2.98-6.87,1.14-2.35,2.17-4.76,3.07-7.23.9-2.53,1.36-5.21,1.36-8.05,0-2.41-.3-4.64-.9-6.69-.6-2.05-1.26-4.16-1.99-6.33-.66-2.17-1.3-4.55-1.9-7.14-.6-2.65-.9-5.76-.9-9.31ZM764.24,296.47c4.16,0,8.02.15,11.57.45,3.56.3,6.63.87,9.22,1.72,2.65.78,4.73,1.93,6.24,3.43,1.51,1.51,2.26,3.43,2.26,5.79s-.42,4.04-1.27,5.42c-.78,1.33-1.87,2.38-3.25,3.16-1.33.78-2.86,1.36-4.61,1.72-1.69.36-3.44.69-5.24.99-1.75.3-3.46.63-5.15.99-1.69.36-3.16.93-4.43,1.72-.54.3-1.09.75-1.63,1.36-.54.54-.81,1.14-.81,1.81s.18,1.21.54,1.63c.42.36.9.66,1.45.9.54.18,1.11.3,1.72.36.66.06,1.24.09,1.72.09,1.57,0,3.26-.06,5.06-.18,1.81-.12,3.46.21,4.97.99.9.48,1.87,1.17,2.89,2.08,1.09.9,1.63,1.96,1.63,3.16,0,1.27-.48,2.26-1.45,2.98-.9.72-2.08,1.32-3.53,1.81-1.39.42-2.89.81-4.52,1.18-1.63.3-3.16.66-4.61,1.08-1.39.36-2.56.84-3.53,1.45-.9.6-1.36,1.45-1.36,2.53,0,1.87.66,3.19,1.99,3.98,1.33.72,2.77,1.08,4.34,1.08,1.45,0,2.86-.12,4.25-.36,1.45-.24,2.86-.48,4.25-.72,1.39-.3,2.77-.54,4.16-.72,1.45-.24,2.89-.36,4.34-.36,2.35,0,4.25.39,5.7,1.18,1.51.72,2.68,1.75,3.53,3.07.84,1.33,1.42,2.89,1.72,4.7.3,1.75.45,3.68.45,5.79,0,5-1.14,8.98-3.43,11.93-2.23,2.95-5.12,5.21-8.68,6.78-3.5,1.57-7.35,2.56-11.57,2.98-4.16.48-8.2.72-12.11.72-3.44,0-6.75-.3-9.94-.9-3.13-.6-5.94-1.63-8.41-3.07-2.41-1.45-4.34-3.4-5.79-5.88-1.45-2.41-2.17-5.48-2.17-9.22,0-2.59.45-4.91,1.36-6.96.9-2.11,1.87-4.16,2.89-6.15,1.08-1.99,2.08-4.04,2.98-6.15.9-2.17,1.36-4.61,1.36-7.32,0-3.07-.3-5.82-.9-8.23-.54-2.41-1.15-4.67-1.81-6.78-.66-2.11-1.29-4.19-1.9-6.24-.54-2.11-.81-4.34-.81-6.69,0-2.77.57-5.09,1.72-6.96,1.2-1.93,2.77-3.49,4.7-4.7,1.93-1.21,4.1-2.08,6.51-2.62,2.47-.54,4.94-.81,7.41-.81ZM852.06,340.68c0,.66.57,1.51,1.72,2.53,1.2,1.02,2.68,2.2,4.43,3.52,1.75,1.27,3.65,2.68,5.7,4.25,2.11,1.57,4.04,3.22,5.79,4.97,1.75,1.75,3.19,3.59,4.34,5.51,1.21,1.93,1.81,3.92,1.81,5.97,0,1.93-.48,3.74-1.45,5.42-.9,1.75-2.11,3.29-3.62,4.61-1.45,1.33-3.1,2.38-4.97,3.16-1.81.78-3.62,1.18-5.42,1.18-1.15,0-2.32-.09-3.53-.27-1.15-.12-2.26-.39-3.35-.81-1.02-.42-1.99-.99-2.89-1.72-.84-.72-1.57-1.66-2.17-2.8-.54-.96-1.02-2.38-1.45-4.25-.36-1.87-.72-3.89-1.09-6.06-.36-2.23-.72-4.52-1.08-6.87-.36-2.35-.81-4.46-1.36-6.33-.48-1.93-1.09-3.5-1.81-4.7-.66-1.2-1.51-1.81-2.53-1.81s-1.9.36-2.62,1.08-1.09,1.6-1.09,2.62c0,1.69.39,3.29,1.18,4.79.78,1.45,1.63,2.89,2.53,4.34.9,1.39,1.75,2.83,2.53,4.34.78,1.51,1.17,3.16,1.17,4.97,0,2.11-.51,4.07-1.54,5.88-.96,1.87-2.26,3.46-3.89,4.79-1.57,1.33-3.38,2.35-5.42,3.07-1.99.78-3.98,1.18-5.97,1.18-4.52,0-8.17-1.08-10.94-3.25-2.77-2.11-4.22-5.42-4.34-9.94v-.72c0-1.99.3-3.92.9-5.79.66-1.93,1.36-3.83,2.08-5.7.78-1.87,1.48-3.74,2.08-5.61.66-1.93.99-3.89.99-5.88,0-2.65-.3-5.21-.9-7.68-.54-2.53-1.17-5.03-1.9-7.5-.72-2.53-1.39-5.06-1.99-7.59-.54-2.53-.81-5.12-.81-7.77,0-3.01.6-5.76,1.81-8.23,1.21-2.53,2.8-4.7,4.79-6.51,1.99-1.81,4.28-3.19,6.87-4.16,2.65-1.02,5.42-1.54,8.32-1.54,3.8,0,7.59.6,11.39,1.81,3.86,1.14,7.29,2.86,10.31,5.15,3.01,2.23,5.45,5,7.32,8.32,1.93,3.31,2.89,7.14,2.89,11.48,0,3.25-.66,5.91-1.99,7.96-1.33,1.99-2.8,3.65-4.43,4.97-1.63,1.27-3.1,2.32-4.43,3.16-1.33.78-1.99,1.6-1.99,2.44ZM833.08,324.95c0,.72.03,1.63.09,2.71.12,1.02.33,2.02.63,2.98.3.9.75,1.69,1.36,2.35.6.66,1.42.99,2.44.99.78,0,1.57-.27,2.35-.81.78-.6,1.51-1.33,2.17-2.17.66-.84,1.21-1.75,1.63-2.71.42-.96.63-1.84.63-2.62,0-.84-.18-1.66-.54-2.44-.3-.78-.75-1.48-1.36-2.08-.54-.6-1.21-1.08-1.99-1.45-.72-.36-1.48-.54-2.26-.54-1.57,0-2.83.63-3.8,1.9-.9,1.21-1.36,2.5-1.36,3.89ZM897.18,299c2.59,0,4.61.51,6.06,1.54,1.51,1.02,2.62,2.8,3.34,5.33.24.84.63,2.11,1.18,3.8.54,1.69,1.2,3.59,1.99,5.7.78,2.05,1.63,4.19,2.53,6.42.96,2.17,1.96,4.16,2.98,5.97,1.02,1.81,2.05,3.29,3.07,4.43,1.08,1.15,2.14,1.72,3.16,1.72.72,0,1.33-.36,1.81-1.08.54-.78.93-1.69,1.17-2.71.3-1.02.51-2.05.63-3.07.12-1.02.18-1.78.18-2.26,0-1.63-.18-3.22-.54-4.79-.36-1.63-.75-3.22-1.17-4.79-.42-1.57-.81-3.1-1.18-4.61-.36-1.57-.54-3.16-.54-4.79,0-3.62,1.02-6.27,3.07-7.96,2.05-1.75,4.82-2.62,8.32-2.62,1.27,0,2.56.27,3.89.81,1.33.54,2.5,1.3,3.52,2.26,1.09.96,1.96,2.05,2.62,3.25.66,1.21.99,2.5.99,3.89,0,4.16-.24,8.26-.72,12.29s-.72,8.14-.72,12.29c0,2.65.3,5.24.9,7.77.6,2.53,1.27,5.06,1.99,7.59.78,2.53,1.48,5.06,2.08,7.59.6,2.47.9,5.03.9,7.68s-.27,5.03-.81,7.32c-.54,2.23-1.39,4.16-2.53,5.79-1.14,1.69-2.62,2.98-4.43,3.89-1.81.96-4.01,1.45-6.6,1.45s-4.76-.54-6.69-1.63c-1.87-1.08-3.47-2.5-4.79-4.25-1.27-1.75-2.23-3.74-2.89-5.97s-.99-4.49-.99-6.78c0-1.57-.3-3.52-.9-5.88-.6-2.35-1.39-4.64-2.35-6.87-.9-2.29-1.96-4.22-3.16-5.79-1.14-1.63-2.26-2.44-3.34-2.44-.54,0-.96.18-1.27.54-.3.3-.54.72-.72,1.26-.18.48-.3.99-.36,1.54v1.36c0,1.63.3,3.22.9,4.79.6,1.57,1.23,3.16,1.9,4.79.72,1.63,1.39,3.38,1.99,5.24.6,1.81.9,3.83.9,6.06s-.36,4.22-1.08,6.15c-.66,1.93-1.63,3.62-2.89,5.06-1.27,1.45-2.83,2.56-4.7,3.35-1.81.84-3.86,1.27-6.15,1.27-2.17,0-4.19-.42-6.06-1.27-1.81-.84-3.41-1.99-4.79-3.43-1.33-1.39-2.38-3.04-3.16-4.97-.78-1.87-1.18-3.89-1.18-6.06,0-3.62.33-7.17,1-10.67.66-3.5,1.36-6.96,2.08-10.4.78-3.5,1.51-6.99,2.17-10.49.66-3.49.99-7.02.99-10.58,0-2.71-.3-5.36-.9-7.96-.54-2.59-.81-4.97-.81-7.14,0-2.95.99-5.18,2.98-6.69,2.05-1.51,4.43-2.26,7.14-2.26ZM978.17,296.47c4.16,0,8.02.15,11.57.45,3.56.3,6.63.87,9.22,1.72,2.65.78,4.73,1.93,6.24,3.43,1.51,1.51,2.26,3.43,2.26,5.79s-.42,4.04-1.27,5.42c-.78,1.33-1.86,2.38-3.25,3.16-1.33.78-2.86,1.36-4.61,1.72-1.69.36-3.43.69-5.24.99-1.75.3-3.47.63-5.15.99-1.69.36-3.16.93-4.43,1.72-.54.3-1.09.75-1.63,1.36-.54.54-.81,1.14-.81,1.81s.18,1.21.54,1.63c.42.36.9.66,1.45.9.54.18,1.11.3,1.72.36.66.06,1.24.09,1.72.09,1.57,0,3.25-.06,5.06-.18,1.81-.12,3.47.21,4.97.99.9.48,1.87,1.17,2.89,2.08,1.09.9,1.63,1.96,1.63,3.16,0,1.27-.48,2.26-1.45,2.98-.9.72-2.08,1.32-3.53,1.81-1.39.42-2.89.81-4.52,1.18-1.63.3-3.16.66-4.61,1.08-1.39.36-2.56.84-3.53,1.45-.9.6-1.36,1.45-1.36,2.53,0,1.87.66,3.19,1.99,3.98,1.33.72,2.77,1.08,4.34,1.08,1.45,0,2.86-.12,4.25-.36,1.45-.24,2.86-.48,4.25-.72,1.39-.3,2.77-.54,4.16-.72,1.45-.24,2.89-.36,4.34-.36,2.35,0,4.25.39,5.7,1.18,1.5.72,2.68,1.75,3.52,3.07.84,1.33,1.42,2.89,1.72,4.7.3,1.75.45,3.68.45,5.79,0,5-1.14,8.98-3.43,11.93-2.23,2.95-5.13,5.21-8.68,6.78-3.5,1.57-7.35,2.56-11.57,2.98-4.16.48-8.2.72-12.11.72-3.43,0-6.75-.3-9.94-.9-3.13-.6-5.94-1.63-8.41-3.07-2.41-1.45-4.34-3.4-5.78-5.88-1.45-2.41-2.17-5.48-2.17-9.22,0-2.59.45-4.91,1.36-6.96.9-2.11,1.87-4.16,2.89-6.15,1.09-1.99,2.08-4.04,2.98-6.15.9-2.17,1.36-4.61,1.36-7.32,0-3.07-.3-5.82-.9-8.23-.54-2.41-1.14-4.67-1.81-6.78-.66-2.11-1.3-4.19-1.9-6.24-.54-2.11-.81-4.34-.81-6.69,0-2.77.57-5.09,1.72-6.96,1.21-1.93,2.77-3.49,4.7-4.7,1.93-1.21,4.1-2.08,6.51-2.62,2.47-.54,4.94-.81,7.41-.81Z"/>
  <g>
    <path class="cls-11" d="M818.65,232.13c.15-.7,1.08-.86,1.45-.24l8.99,14.99c.16.26.46.41.77.38l17.51-1.96c.72-.08,1.16.77.68,1.31l-11.63,13.12c-.21.23-.26.57-.13.85l7.24,15.87c.3.65-.36,1.33-1.03,1.05l-16.19-6.87c-.28-.12-.61-.07-.84.14l-13.05,11.79c-.53.48-1.38.06-1.31-.66l1.64-17.37c.03-.31-.13-.61-.4-.76l-15.28-8.59c-.63-.35-.49-1.3.21-1.46l17.19-3.88c.3-.07.54-.31.6-.61l3.58-17.11Z"/>
    <path class="cls-11" d="M785.97,204.96c.09-.41.64-.5.86-.15l4.29,6.82c.1.15.27.24.46.22l8.44-.98c.44-.05.7.47.4.79l-5.62,5.98c-.13.14-.17.35-.08.53l3.4,7.16c.18.39-.2.8-.6.64l-7.83-3.07c-.16-.06-.35-.03-.48.08l-6.39,5.47c-.33.28-.83.01-.78-.41l.87-7.88c.02-.19-.08-.38-.25-.47l-7.27-3.81c-.39-.2-.31-.79.12-.88l8.29-1.84c.18-.04.32-.18.36-.35l1.82-7.85Z"/>
    <path class="cls-11" d="M829.15,201.08c.07-.26.42-.32.57-.1l2.81,4.24c.07.1.18.15.3.14l5.58-.66c.3-.04.47.32.26.54l-3.72,3.72c-.1.1-.12.24-.06.36l2.19,4.41c.13.26-.12.53-.39.44l-5.2-1.87c-.1-.04-.22-.02-.3.05l-4.3,3.47c-.22.18-.55,0-.51-.29l.62-4.88c.02-.13-.05-.26-.17-.32l-4.73-2.3c-.27-.13-.22-.53.07-.59l5.49-1.2c.12-.02.21-.11.24-.23l1.26-4.93Z"/>
    <path class="cls-14" d="M842.44,225.45l1.85-9.31c.51-2.56,2.99-4.16,5.53-3.57l177.62,41.25c2.55.59,4.2,3.15,3.69,5.71l-1.85,9.31c-.51,2.56-2.99,4.16-5.53,3.57l-177.62-41.25c-2.55-.59-4.2-3.15-3.69-5.71Z"/>
    <path class="cls-7" d="M990.86,259.95l1.86-9.35c.51-2.56,2.99-4.16,5.53-3.57l29.29,6.8c2.55.59,4.2,3.15,3.69,5.71l-1.86,9.35c-.51,2.56-2.99,4.16-5.53,3.57l-29.29-6.8c-2.55-.59-4.2-3.15-3.69-5.71Z"/>
    <path class="cls-7" d="M842.44,225.45l1.85-9.31c.51-2.56,2.99-4.16,5.53-3.57l28.83,6.7c2.55.59,4.2,3.15,3.69,5.71l-1.85,9.31c-.51,2.56-2.99,4.16-5.53,3.57l-28.83-6.7c-2.55-.59-4.2-3.15-3.69-5.71Z"/>
  </g>
  <path class="cls-13" d="M409.85,257.29c0-4.28-1.93-6.42-5.79-6.42-2.17,0-3.86.6-5.06,1.81-1.15,1.21-1.72,2.92-1.72,5.15,0,1.45.21,2.89.63,4.34.48,1.45.99,2.89,1.54,4.34.6,1.39,1.11,2.83,1.54,4.34.48,1.45.72,2.95.72,4.52,0,1.99-.18,4.04-.54,6.15-.36,2.17-1.08,4.13-2.17,5.88-1.02,1.75-2.53,3.16-4.52,4.25-1.93,1.15-4.49,1.72-7.68,1.72s-5.79-.6-7.95-1.81c-2.11-1.2-3.83-2.77-5.15-4.7-1.32-1.87-2.32-3.98-2.98-6.33-.6-2.29-.93-4.55-.99-6.78v-.63c0-2.11.36-4.19,1.08-6.24.78-2.11,1.63-4.25,2.53-6.42.9-2.23,1.72-4.52,2.44-6.87.78-2.35,1.17-4.82,1.17-7.41,0-2.29-.3-4.52-.9-6.69-.6-2.23-1.27-4.43-1.99-6.6-.72-2.17-1.39-4.37-1.99-6.6-.6-2.23-.9-4.55-.9-6.96,0-1.93.18-3.68.54-5.24.42-1.57,1.15-2.89,2.17-3.98,1.02-1.15,2.38-2.02,4.07-2.62,1.75-.6,3.98-.9,6.69-.9,2.17,0,3.98.57,5.42,1.72,1.51,1.08,2.47,2.53,2.89,4.34.36,1.51.54,3.19.54,5.06.06,1.81.06,3.65,0,5.51-.06,1.81-.06,3.62,0,5.42.06,1.75.3,3.32.72,4.7.48,1.33,1.24,2.41,2.26,3.25,1.02.78,2.47,1.18,4.34,1.18,2.11,0,3.77-.57,4.97-1.72,1.27-1.21,1.9-2.77,1.9-4.7,0-.9-.12-1.84-.36-2.8-.24-1.03-.51-2.11-.81-3.26-.24-1.15-.48-2.38-.72-3.71-.24-1.33-.36-2.77-.36-4.34,0-3.98.84-7.05,2.53-9.22,1.75-2.17,4.22-3.25,7.41-3.25,4.16,0,7.23,1.36,9.22,4.07,2.05,2.65,3.07,6.57,3.07,11.75,0,1.33-.09,2.77-.27,4.34-.12,1.57-.3,3.16-.54,4.79-.18,1.63-.36,3.22-.54,4.79-.12,1.57-.18,2.98-.18,4.25,0,2.41.3,4.52.9,6.33.6,1.81,1.24,3.74,1.9,5.78.54,1.69,1.23,3.41,2.08,5.15.9,1.75,1.75,3.59,2.53,5.51.84,1.87,1.57,3.83,2.17,5.88.6,1.99.9,4.13.9,6.42,0,2.65-.33,5.15-.99,7.5-.66,2.35-1.66,4.4-2.98,6.15-1.33,1.81-2.98,3.23-4.97,4.25-1.99,1.09-4.34,1.63-7.05,1.63-2.89,0-5.27-.45-7.14-1.36-1.81-.84-3.25-1.99-4.34-3.43-1.02-1.45-1.75-3.13-2.17-5.06-.36-1.87-.54-3.8-.54-5.79v-.63c0-1.81.18-3.55.54-5.24.36-1.75.75-3.43,1.17-5.06.42-1.69.81-3.32,1.18-4.88.36-1.57.54-3.1.54-4.61ZM476.17,208.39c1.93,0,3.98-.18,6.15-.54,2.23-.36,4.58-.54,7.05-.54,4.22,0,7.2,1.08,8.95,3.25,1.81,2.11,2.71,4.85,2.71,8.23,0,1.87-.24,3.35-.72,4.43-.42,1.02-.99,1.81-1.72,2.35-.66.48-1.42.84-2.26,1.09-.78.18-1.54.39-2.26.63-.66.18-1.24.48-1.72.9-.42.36-.63,1.02-.63,1.99,0,1.14.3,2.5.9,4.07.6,1.51,1.27,3.43,1.99,5.79.78,2.29,1.48,5.09,2.08,8.41.6,3.31.9,7.29.9,11.93,0,10.43-2.41,18.26-7.23,23.5-4.82,5.24-11.99,7.86-21.51,7.86-7.96,0-13.95-1.84-17.99-5.51-4.04-3.62-6.06-8.98-6.06-16.09,0-4.4.72-7.93,2.17-10.58,1.45-2.71,3.35-4.07,5.7-4.07.96,0,1.69.21,2.17.63.54.36,1.06.78,1.54,1.26.48.42,1.02.84,1.63,1.27.6.36,1.45.54,2.53.54,1.57,0,3.01-.51,4.34-1.54,1.39-1.08,2.59-2.5,3.62-4.25,1.02-1.81,1.84-3.86,2.44-6.15.6-2.29.9-4.7.9-7.23,0-2.71-.33-5.03-.99-6.96-.66-1.99-1.6-3.38-2.8-4.16-.6-.36-1.29-.6-2.08-.72-.78-.12-1.69-.18-2.71-.18-1.33,0-2.74.06-4.25.18-1.51.06-3.01,0-4.52-.18-1.45-.18-2.83-.57-4.16-1.18-1.27-.66-2.35-1.69-3.25-3.07-1.27-1.93-1.9-4.01-1.9-6.24,0-3.07,1.03-5.54,3.07-7.41,2.11-1.87,4.79-2.8,8.05-2.8,2.83,0,5.97.18,9.4.54s6.93.54,10.49.54ZM532.82,204.14c4.16,0,8.01.15,11.57.45,3.56.3,6.63.87,9.22,1.72,2.65.78,4.73,1.93,6.24,3.43,1.51,1.51,2.26,3.44,2.26,5.79s-.42,4.04-1.27,5.42c-.78,1.33-1.87,2.38-3.26,3.16-1.33.78-2.86,1.36-4.61,1.72-1.69.36-3.43.69-5.24.99-1.75.3-3.47.63-5.15.99-1.69.36-3.16.93-4.43,1.72-.54.3-1.08.75-1.63,1.36-.54.54-.81,1.15-.81,1.81s.18,1.21.54,1.63c.42.36.9.66,1.45.9.54.18,1.11.3,1.72.36.66.06,1.23.09,1.72.09,1.57,0,3.25-.06,5.06-.18,1.81-.12,3.47.21,4.97,1,.9.48,1.87,1.17,2.89,2.08,1.09.9,1.63,1.96,1.63,3.16,0,1.27-.48,2.26-1.45,2.98-.9.72-2.08,1.33-3.53,1.81-1.39.42-2.89.81-4.52,1.18-1.63.3-3.16.66-4.61,1.08-1.39.36-2.56.84-3.53,1.45-.9.6-1.36,1.45-1.36,2.53,0,1.87.66,3.19,1.99,3.98,1.33.72,2.77,1.08,4.34,1.08,1.45,0,2.86-.12,4.25-.36,1.45-.24,2.86-.48,4.25-.72,1.39-.3,2.77-.54,4.16-.72,1.45-.24,2.89-.36,4.34-.36,2.35,0,4.25.39,5.7,1.18,1.51.72,2.68,1.75,3.53,3.07.84,1.33,1.42,2.89,1.72,4.7.3,1.75.45,3.68.45,5.79,0,5-1.15,8.98-3.44,11.93-2.23,2.95-5.12,5.21-8.68,6.78-3.5,1.57-7.35,2.56-11.57,2.98-4.16.48-8.2.72-12.11.72-3.43,0-6.75-.3-9.94-.9-3.13-.6-5.94-1.63-8.41-3.07-2.41-1.45-4.34-3.4-5.79-5.88-1.45-2.41-2.17-5.48-2.17-9.22,0-2.59.45-4.91,1.36-6.96.9-2.11,1.87-4.16,2.89-6.15,1.08-1.99,2.08-4.04,2.98-6.15.9-2.17,1.36-4.61,1.36-7.32,0-3.07-.3-5.82-.9-8.23-.54-2.41-1.15-4.67-1.81-6.78-.66-2.11-1.3-4.19-1.9-6.24-.54-2.11-.81-4.34-.81-6.69,0-2.77.57-5.09,1.72-6.96,1.21-1.93,2.77-3.5,4.7-4.7,1.93-1.21,4.1-2.08,6.51-2.62,2.47-.54,4.94-.81,7.41-.81ZM620.65,248.34c0,.66.57,1.51,1.72,2.53,1.21,1.03,2.68,2.2,4.43,3.53,1.75,1.27,3.65,2.68,5.7,4.25,2.11,1.57,4.04,3.22,5.79,4.97,1.75,1.75,3.19,3.59,4.34,5.51,1.21,1.93,1.81,3.92,1.81,5.97,0,1.93-.48,3.74-1.45,5.42-.9,1.75-2.11,3.28-3.62,4.61-1.45,1.33-3.1,2.38-4.97,3.16-1.81.78-3.62,1.18-5.42,1.18-1.15,0-2.32-.09-3.52-.27-1.15-.12-2.26-.39-3.35-.81-1.03-.42-1.99-.99-2.89-1.72-.84-.72-1.57-1.66-2.17-2.8-.54-.96-1.02-2.38-1.45-4.25-.36-1.87-.72-3.89-1.09-6.06-.36-2.23-.72-4.52-1.09-6.87-.36-2.35-.81-4.46-1.36-6.33-.48-1.93-1.08-3.49-1.81-4.7-.66-1.21-1.51-1.81-2.53-1.81s-1.9.36-2.62,1.08c-.72.72-1.09,1.6-1.09,2.62,0,1.69.39,3.29,1.18,4.79.78,1.45,1.63,2.89,2.53,4.34.9,1.39,1.75,2.83,2.53,4.34.78,1.51,1.18,3.16,1.18,4.97,0,2.11-.51,4.07-1.54,5.88-.96,1.87-2.26,3.46-3.89,4.79-1.57,1.33-3.38,2.35-5.42,3.07-1.99.78-3.98,1.18-5.97,1.18-4.52,0-8.17-1.08-10.94-3.26-2.77-2.11-4.22-5.42-4.34-9.94v-.72c0-1.99.3-3.92.9-5.79.66-1.93,1.36-3.83,2.08-5.69.78-1.87,1.48-3.74,2.08-5.61.66-1.93.99-3.89.99-5.88,0-2.65-.3-5.21-.9-7.68-.54-2.53-1.17-5.03-1.9-7.5-.72-2.53-1.39-5.06-1.99-7.59-.54-2.53-.81-5.12-.81-7.77,0-3.01.6-5.76,1.81-8.23,1.21-2.53,2.8-4.7,4.79-6.51s4.28-3.19,6.87-4.16c2.65-1.02,5.42-1.54,8.32-1.54,3.8,0,7.59.6,11.39,1.81,3.86,1.15,7.29,2.86,10.31,5.15,3.01,2.23,5.45,5,7.32,8.32,1.93,3.32,2.89,7.14,2.89,11.48,0,3.25-.66,5.91-1.99,7.96-1.33,1.99-2.8,3.65-4.43,4.97-1.63,1.27-3.1,2.32-4.43,3.16-1.33.78-1.99,1.6-1.99,2.44ZM601.66,232.61c0,.72.03,1.63.09,2.71.12,1.02.33,2.02.63,2.98.3.9.75,1.69,1.36,2.35.6.66,1.42,1,2.44,1,.78,0,1.57-.27,2.35-.81.78-.6,1.51-1.33,2.17-2.17.66-.84,1.21-1.75,1.63-2.71.42-.96.63-1.84.63-2.62,0-.84-.18-1.66-.54-2.44-.3-.78-.75-1.48-1.36-2.08-.54-.6-1.21-1.09-1.99-1.45-.72-.36-1.48-.54-2.26-.54-1.57,0-2.83.63-3.8,1.9-.9,1.21-1.36,2.5-1.36,3.89ZM679.48,204.68c1.75,0,3.68.03,5.79.09,2.17.06,4.34.21,6.51.45,2.17.18,4.28.51,6.33.99,2.05.48,3.89,1.15,5.51,1.99,1.99,1.08,3.41,2.32,4.25,3.71.9,1.33,1.36,3.13,1.36,5.42,0,2.59-.51,4.73-1.54,6.42-.96,1.69-2.86,2.53-5.7,2.53-1.33,0-2.5-.18-3.53-.54-.96-.36-1.87-.75-2.71-1.18-.78-.48-1.57-.9-2.35-1.27-.72-.36-1.51-.54-2.35-.54-.72,0-1.33.27-1.81.81-.42.48-.78,1.11-1.08,1.9-.24.72-.42,1.54-.54,2.44-.06.9-.09,1.75-.09,2.53,0,3.62.57,7.14,1.72,10.58,1.14,3.38,2.41,6.78,3.8,10.21,1.39,3.38,2.65,6.78,3.8,10.21,1.14,3.38,1.72,6.84,1.72,10.4,0,2.89-.57,5.42-1.72,7.59-1.15,2.17-2.68,3.98-4.61,5.42-1.87,1.45-4.04,2.5-6.51,3.16-2.41.72-4.91,1.09-7.5,1.09s-5.12-.36-7.59-1.09c-2.47-.66-4.67-1.72-6.6-3.16-1.93-1.45-3.5-3.26-4.7-5.42-1.14-2.17-1.75-4.7-1.81-7.59v-.36c0-3.56.54-7.02,1.63-10.4,1.15-3.38,2.38-6.75,3.71-10.12,1.39-3.38,2.62-6.75,3.71-10.12,1.14-3.43,1.72-6.93,1.72-10.49v-2.98c.06-.96,0-1.84-.18-2.62-.18-.78-.57-1.39-1.17-1.81-.54-.48-1.42-.72-2.62-.72-.96,0-1.87.18-2.71.54s-1.72.78-2.62,1.27c-.84.42-1.72.81-2.62,1.18-.9.36-1.9.54-2.98.54-2.53,0-4.52-.69-5.97-2.08-1.45-1.45-2.17-3.49-2.17-6.15,0-2.29.63-4.19,1.9-5.69,1.33-1.51,2.98-2.71,4.97-3.62,2.05-.96,4.34-1.69,6.87-2.17,2.59-.48,5.15-.81,7.68-.99,2.53-.24,4.94-.36,7.23-.36h5.61ZM737.93,204.14c4.16,0,8.02.15,11.57.45,3.55.3,6.63.87,9.22,1.72,2.65.78,4.73,1.93,6.24,3.43,1.51,1.51,2.26,3.44,2.26,5.79s-.42,4.04-1.27,5.42c-.78,1.33-1.87,2.38-3.25,3.16-1.33.78-2.86,1.36-4.61,1.72-1.69.36-3.44.69-5.24.99-1.75.3-3.47.63-5.15.99-1.69.36-3.16.93-4.43,1.72-.54.3-1.08.75-1.63,1.36-.54.54-.81,1.15-.81,1.81s.18,1.21.54,1.63c.42.36.9.66,1.45.9.54.18,1.11.3,1.72.36.66.06,1.24.09,1.72.09,1.57,0,3.26-.06,5.06-.18,1.81-.12,3.46.21,4.97,1,.9.48,1.87,1.17,2.89,2.08,1.08.9,1.63,1.96,1.63,3.16,0,1.27-.48,2.26-1.45,2.98-.9.72-2.08,1.33-3.52,1.81-1.39.42-2.89.81-4.52,1.18-1.63.3-3.16.66-4.61,1.08-1.39.36-2.56.84-3.52,1.45-.9.6-1.36,1.45-1.36,2.53,0,1.87.66,3.19,1.99,3.98,1.33.72,2.77,1.08,4.34,1.08,1.45,0,2.86-.12,4.25-.36,1.45-.24,2.86-.48,4.25-.72,1.39-.3,2.77-.54,4.16-.72,1.45-.24,2.89-.36,4.34-.36,2.35,0,4.25.39,5.7,1.18,1.51.72,2.68,1.75,3.53,3.07.84,1.33,1.42,2.89,1.72,4.7.3,1.75.45,3.68.45,5.79,0,5-1.15,8.98-3.43,11.93-2.23,2.95-5.12,5.21-8.68,6.78-3.5,1.57-7.35,2.56-11.57,2.98-4.16.48-8.2.72-12.11.72-3.43,0-6.75-.3-9.94-.9-3.13-.6-5.94-1.63-8.41-3.07-2.41-1.45-4.34-3.4-5.79-5.88-1.45-2.41-2.17-5.48-2.17-9.22,0-2.59.45-4.91,1.36-6.96.9-2.11,1.87-4.16,2.89-6.15,1.09-1.99,2.08-4.04,2.98-6.15.9-2.17,1.36-4.61,1.36-7.32,0-3.07-.3-5.82-.9-8.23-.54-2.41-1.15-4.67-1.81-6.78-.66-2.11-1.29-4.19-1.9-6.24-.54-2.11-.81-4.34-.81-6.69,0-2.77.57-5.09,1.72-6.96,1.21-1.93,2.77-3.5,4.7-4.7,1.93-1.21,4.1-2.08,6.51-2.62,2.47-.54,4.94-.81,7.41-.81Z"/>
  <g>
    <ellipse class="cls-9" cx="1117.78" cy="495.09" rx="37.79" ry="20.46" transform="translate(39.33 1070.84) rotate(-51.99)"/>
    <ellipse class="cls-9" cx="1134.06" cy="510.16" rx="37.79" ry="20.46" transform="translate(-75.73 797.84) rotate(-37.6)"/>
    <ellipse class="cls-6" cx="1201.9" cy="562.58" rx="8.56" ry="8.54" transform="translate(18.47 1163.04) rotate(-51.99)"/>
    <path class="cls-6" d="M1082.96,621.91c-18.83,18.48-42.18,26.52-52.16,17.98s-2.81-30.46,16.01-48.93,42.18-26.52,52.16-17.98c9.98,8.55,2.81,30.46-16.01,48.93Z"/>
    <path class="cls-6" d="M1176.88,651.15c.05,26.25-10.57,46.74-23.73,45.75-13.16-.99-23.87-23.07-23.92-49.32s10.57-46.74,23.73-45.75c13.16.99,23.87,23.07,23.92,49.32Z"/>
    <ellipse class="cls-6" cx="1172.62" cy="599.29" rx="37.79" ry="20.46" transform="translate(-21.7 1154.08) rotate(-51.99)"/>
    <path class="cls-10" d="M1062.47,493.1l2.23,1.65c1.23.91,1.49,2.65.58,3.88h0c-.91,1.23-2.65,1.49-3.88.58l-2.23-1.65c-1.23-.91-1.49-2.65-.58-3.88h0c.91-1.23,2.65-1.49,3.88-.58Z"/>
    <rect class="cls-10" x="1192.91" y="567.58" width="8.32" height="5.55" rx="2.77" ry="2.77" transform="translate(-18.86 1099.32) rotate(-48.99)"/>
    <ellipse class="cls-10" cx="1057.69" cy="491.81" rx="7.28" ry="4.19" transform="translate(15.42 1015.52) rotate(-51.62)"/>
    <ellipse class="cls-6" cx="1106.88" cy="558.17" rx="28.21" ry="18.95" transform="translate(508.69 1643.95) rotate(-87.91)"/>
    <ellipse class="cls-5" cx="1090.5" cy="519.67" rx="20.46" ry="37.79" transform="translate(58.38 1147.34) rotate(-56.79)"/>
    <path class="cls-9" d="M1187.2,653.95c4.14,23.48-1.46,43.14-12.51,43.93-11.04.78-23.35-17.61-27.49-41.09-4.14-23.48,1.46-43.14,12.51-43.93s23.35,17.61,27.49,41.09Z"/>
    <ellipse class="cls-9" cx="1127.3" cy="605.36" rx="22.69" ry="41.89" transform="translate(107.89 1378.72) rotate(-65.42)"/>
    <path class="cls-9" d="M1091.16,632.26c-17.72,19.38-40.1,28.83-49.97,21.11-9.88-7.72-3.52-29.69,14.2-49.07,17.72-19.38,40.1-28.83,49.97-21.11,9.88,7.72,3.52,29.69-14.2,49.07Z"/>
    <path class="cls-8" d="M1088.05,499.06c-8.06-3.11-17.27-5.04-20.2-2.49-2.11,1.83,13.56,2.58,21.62,5.68,8.06,3.1,6.64-.09-1.42-3.19Z"/>
    <path class="cls-8" d="M1143.83,487.36c-7.73,3.86-15.37,9.35-15.46,13.23-.07,2.79,11.04-8.27,18.77-12.12,7.74-3.86,4.42-4.96-3.31-1.11Z"/>
    <path class="cls-8" d="M1126.65,470.17c-7.73,3.86-15.37,9.35-15.47,13.23-.06,2.79,11.05-8.27,18.78-12.12,7.73-3.86,4.42-4.96-3.31-1.11Z"/>
    <path class="cls-8" d="M1081.94,593.14c-7.73,3.86-15.38,9.35-15.47,13.23-.07,2.79,11.05-8.27,18.78-12.13,7.73-3.86,4.42-4.96-3.31-1.11Z"/>
    <path class="cls-8" d="M1151.98,632.88c-.94,7.61-.47,16.07,2.69,18.26,2.28,1.58-.94-12.39-.01-20.01.94-7.62-1.75-5.87-2.68,1.75Z"/>
    <path class="cls-8" d="M1135.88,589.39c-7.58-4.16-16.45-7.31-19.69-5.18-2.33,1.54,13.09,4.37,20.66,8.53,7.57,4.16,6.6.8-.97-3.35Z"/>
    <path class="cls-8" d="M1179.9,572.63c-7.76,3.79-15.45,9.22-15.58,13.1-.09,2.79,11.12-8.17,18.88-11.97,7.77-3.79,4.47-4.92-3.3-1.14Z"/>
    <path class="cls-8" d="M1202.79,556.93c-1.9-.56-4.37.28-5.74,3.45-.99,2.28,3.69-1.49,5.59-.93,1.9.56,2.05-1.97.15-2.53Z"/>
    <path class="cls-8" d="M1071.66,578.6c-7.73,3.86-15.37,9.35-15.46,13.23-.07,2.79,11.04-8.27,18.78-12.12,7.73-3.86,4.42-4.96-3.32-1.11Z"/>
  </g>
  <g>
    <ellipse class="cls-3" cx="301.48" cy="52.71" rx="17.55" ry="32.41" transform="translate(29.49 193.02) rotate(-37.21)"/>
    <ellipse class="cls-3" cx="287.34" cy="65.43" rx="17.55" ry="32.41" transform="translate(57.56 249.95) rotate(-51.59)"/>
    <ellipse class="cls-11" cx="228.53" cy="109.56" rx="7.33" ry="7.34" transform="translate(-19.74 160.48) rotate(-37.21)"/>
    <path class="cls-11" d="M329.8,161.88c15.92,16.07,35.85,23.26,44.51,16.05s2.78-26.08-13.14-42.16c-15.92-16.07-35.85-23.26-44.51-16.05s-2.78,26.08,13.14,42.16Z"/>
    <path class="cls-11" d="M248.9,185.82c-.36,22.51,8.5,40.21,19.8,39.52s20.75-19.49,21.11-42c.36-22.51-8.5-40.21-19.8-39.52s-20.75,19.49-21.11,42Z"/>
    <ellipse class="cls-11" cx="253.19" cy="141.4" rx="17.55" ry="32.41" transform="translate(-33.97 181.88) rotate(-37.21)"/>
    <path class="cls-11" d="M348.93,51.67l-1.93,1.39c-1.07.77-1.31,2.26-.54,3.32h0c.77,1.07,2.26,1.31,3.32.54l1.93-1.39c1.07-.77,1.31-2.26.54-3.32h0c-.77-1.07-2.26-1.31-3.32-.54Z"/>
    <path class="cls-11" d="M229.98,116.92l1.54,1.82c.85,1,2.35,1.13,3.35.28h0c1-.85,1.13-2.35.28-3.35l-1.54-1.82c-.85-1-2.35-1.13-3.35-.28h0c-1,.85-1.13,2.35-.28,3.35Z"/>
    <ellipse class="cls-11" cx="353.05" cy="50.63" rx="3.59" ry="6.25" transform="translate(42.37 225.79) rotate(-37.57)"/>
    <ellipse class="cls-11" cx="310.06" cy="106.94" rx="16.25" ry="24.19" transform="translate(-2.31 6.96) rotate(-1.28)"/>
    <ellipse class="cls-4" cx="324.58" cy="74.12" rx="32.41" ry="17.55" transform="translate(10.82 185.49) rotate(-32.41)"/>
    <path class="cls-3" d="M240.03,188.1c-3.83,20.08.73,37.01,10.19,37.82s20.24-14.82,24.07-34.9c3.83-20.08-.73-37.01-10.19-37.82s-20.24,14.82-24.07,34.9Z"/>
    <ellipse class="cls-3" cx="291.98" cy="147.15" rx="35.93" ry="19.46" transform="translate(-34.55 130.17) rotate(-23.77)"/>
    <path class="cls-3" d="M322.65,170.66c14.96,16.83,34.03,25.21,42.6,18.71,8.56-6.5,3.38-25.42-11.59-42.25-14.96-16.83-34.03-25.21-42.6-18.71s-3.38,25.42,11.59,42.25Z"/>
    <path class="cls-8" d="M326.92,56.48c6.95-2.56,14.88-4.11,17.35-1.89,1.78,1.6-11.66,2.04-18.61,4.61-6.95,2.56-5.7-.15,1.25-2.72Z"/>
    <path class="cls-8" d="M279.23,45.77c6.58,3.4,13.07,8.21,13.1,11.53.02,2.39-9.37-7.22-15.96-10.63-6.58-3.4-3.73-4.31,2.85-.91Z"/>
    <path class="cls-8" d="M294.17,31.23c6.58,3.4,13.07,8.21,13.1,11.53.02,2.39-9.37-7.22-15.95-10.63-6.58-3.4-3.73-4.31,2.85-.91Z"/>
    <path class="cls-8" d="M331.03,137.22c6.58,3.4,13.07,8.21,13.1,11.54.02,2.39-9.37-7.23-15.96-10.63-6.58-3.4-3.73-4.31,2.85-.91Z"/>
    <path class="cls-8" d="M270.48,170.46c.71,6.54.21,13.79-2.53,15.63-1.97,1.33.96-10.62.25-17.16-.71-6.54,1.57-5.01,2.28,1.53Z"/>
    <path class="cls-8" d="M284.82,133.36c6.55-3.47,14.19-6.07,16.94-4.2,1.98,1.35-11.28,3.59-17.82,7.06-6.54,3.47-5.67.61.88-2.86Z"/>
    <path class="cls-8" d="M247.27,118.45c6.61,3.34,13.14,8.1,13.2,11.42.04,2.4-9.43-7.14-16.04-10.49-6.61-3.34-3.77-4.28,2.85-.93Z"/>
    <path class="cls-8" d="M227.83,104.71c1.64-.46,3.75.29,4.88,3.03.82,1.97-3.14-1.32-4.78-.86s-1.74-1.71-.1-2.17Z"/>
    <path class="cls-8" d="M338.76,127.6c6.58,3.4,13.07,8.21,13.1,11.53.02,2.4-9.37-7.22-15.95-10.62-6.58-3.4-3.73-4.31,2.85-.91Z"/>
  </g>
</svg>