<svg width="234" height="243" viewBox="0 0 234 243" fill="none" xmlns="http://www.w3.org/2000/svg">
<g filter="url(#filter0_d_7_138)">
<ellipse cx="32.4056" cy="17.549" rx="32.4056" ry="17.549" transform="matrix(0.604672 0.796475 0.796475 -0.604672 94.9089 37.511)" fill="#FFDF53" fill-opacity="0.7"/>
<ellipse cx="32.4056" cy="17.549" rx="32.4056" ry="17.549" transform="matrix(0.783621 0.621239 0.621239 -0.783621 78.0405 59.0551)" fill="#FFDF53" fill-opacity="0.7"/>
<ellipse cx="7.34074" cy="7.32534" rx="7.34074" ry="7.32534" transform="matrix(0.604672 0.796475 0.796475 -0.604672 45.2552 108.146)" fill="#FFDF53"/>
<ellipse cx="40.9612" cy="20.4094" rx="40.9612" ry="20.4094" transform="matrix(0.703745 0.710453 0.768672 -0.639643 127.977 132.781)" fill="#FFDF53"/>
<ellipse cx="40.7686" cy="20.4891" rx="40.7686" ry="20.4891" transform="matrix(-0.0160971 0.99987 0.998164 -0.0605653 76.5596 145.056)" fill="#FFDF53"/>
<ellipse cx="32.4056" cy="17.549" rx="32.4056" ry="17.549" transform="matrix(0.604672 0.796475 0.796475 -0.604672 46.6176 126.205)" fill="#FFDF53"/>
<rect width="7.13897" height="4.75931" rx="2.37966" transform="matrix(-0.811454 0.584416 0.584416 0.811454 177.86 50.2803)" fill="#FFDF53"/>
<rect width="7.13897" height="4.75931" rx="2.37966" transform="matrix(0.645525 0.763739 0.763739 -0.645525 55.4447 115.103)" fill="#FFDF53"/>
<ellipse cx="3.58983" cy="6.24747" rx="3.58983" ry="6.24747" transform="matrix(-0.792558 0.609796 0.609796 0.792558 179.086 43.4868)" fill="#FFDF53"/>
<ellipse cx="24.1931" cy="16.2485" rx="24.1931" ry="16.2485" transform="matrix(0.0223702 0.99975 0.99975 -0.0223702 120.273 83.1137)" fill="#FFDF53"/>
<ellipse cx="32.4056" cy="17.549" rx="32.4056" ry="17.549" transform="matrix(-0.844276 0.535909 0.535909 0.844276 169.532 41.9393)" fill="#FFDF53" fill-opacity="0.6"/>
<ellipse cx="37.0169" cy="17.194" rx="37.0169" ry="17.194" transform="matrix(-0.187442 0.982276 0.9964 0.0847803 73.9642 151.739)" fill="#FFDF53" fill-opacity="0.7"/>
<ellipse cx="35.9267" cy="19.4557" rx="35.9267" ry="19.4557" transform="matrix(0.915173 -0.403062 -0.403062 -0.915173 93.9377 179.441)" fill="#FFDF53" fill-opacity="0.7"/>
<ellipse cx="40.7797" cy="19.4675" rx="40.7797" ry="19.4675" transform="matrix(0.664365 0.747408 0.7965 -0.604639 122.553 140.182)" fill="#FFDF53" fill-opacity="0.7"/>
<path d="M153.924 56.4762C160.875 53.9112 168.799 52.3644 171.278 54.5853C173.061 56.1836 159.622 56.63 152.671 59.195C145.72 61.76 146.973 59.0411 153.924 56.4762Z" fill="white"/>
<path d="M106.23 45.7708C112.812 49.1714 119.3 53.9773 119.333 57.3051C119.356 59.6999 109.96 50.0805 103.377 46.6799C96.7945 43.2793 99.6469 42.3702 106.23 45.7708Z" fill="white"/>
<path d="M121.172 31.231C127.755 34.6316 134.243 39.4375 134.275 42.7654C134.299 45.1602 124.903 35.5408 118.32 32.1402C111.737 28.7396 114.59 27.8304 121.172 31.231Z" fill="white"/>
<path d="M158.027 137.222C164.61 140.623 171.098 145.429 171.13 148.757C171.154 151.151 161.758 141.532 155.175 138.131C148.592 134.731 151.445 133.822 158.027 137.222Z" fill="white"/>
<path d="M97.4847 170.456C98.1962 176.998 97.6927 184.241 94.9536 186.084C92.9825 187.411 95.9143 175.467 95.2028 168.925C94.4913 162.384 96.7732 163.915 97.4847 170.456Z" fill="white"/>
<path d="M111.819 133.358C118.363 129.885 126.009 127.29 128.763 129.159C130.744 130.504 117.486 132.747 110.941 136.22C104.396 139.693 105.274 136.831 111.819 133.358Z" fill="white"/>
<path d="M74.2674 118.448C80.8788 121.792 87.407 126.543 87.468 129.87C87.5119 132.265 78.0343 122.726 71.4229 119.381C64.8115 116.037 67.656 115.103 74.2674 118.448Z" fill="white"/>
<path d="M54.8286 104.707C56.4656 104.249 58.5745 105.001 59.7107 107.738C60.5282 109.707 56.568 106.418 54.9309 106.876C53.2939 107.334 53.1915 105.164 54.8286 104.707Z" fill="white"/>
<path d="M165.759 127.6C172.342 131.001 178.829 135.806 178.862 139.134C178.885 141.529 169.489 131.91 162.907 128.509C156.324 125.108 159.176 124.199 165.759 127.6Z" fill="white"/>
</g>
<defs>
<filter id="filter0_d_7_138" x="36.197" y="16.7961" width="181.119" height="225.152" filterUnits="userSpaceOnUse" color-interpolation-filters="sRGB">
<feFlood flood-opacity="0" result="BackgroundImageFix"/>
<feColorMatrix in="SourceAlpha" type="matrix" values="0 0 0 0 0 0 0 0 0 0 0 0 0 0 0 0 0 0 127 0" result="hardAlpha"/>
<feOffset dy="4"/>
<feGaussianBlur stdDeviation="6"/>
<feComposite in2="hardAlpha" operator="out"/>
<feColorMatrix type="matrix" values="0 0 0 0 0 0 0 0 0 0 0 0 0 0 0 0 0 0 0.25 0"/>
<feBlend mode="normal" in2="BackgroundImageFix" result="effect1_dropShadow_7_138"/>
<feBlend mode="normal" in="SourceGraphic" in2="effect1_dropShadow_7_138" result="shape"/>
</filter>
</defs>
</svg>
