<svg width="800" height="316" viewBox="0 0 800 316" fill="none" xmlns="http://www.w3.org/2000/svg">
<g filter="url(#filter0_d_93_170)">
<path d="M67.1301 148.412C69.7409 148.412 71.9166 149.115 73.6572 150.521C75.3977 151.86 76.837 153.567 77.9751 155.642C79.1801 157.65 80.1842 159.859 80.9876 162.269C81.7909 164.612 82.5273 166.822 83.1967 168.897C83.9331 170.905 84.6695 172.612 85.4059 174.018C86.1423 175.357 87.0795 176.026 88.2176 176.026C89.0878 176.026 89.9246 175.357 90.728 174.018C91.5313 172.679 92.3681 171.006 93.2384 168.997C94.1087 166.922 95.0794 164.713 96.1505 162.37C97.2216 159.96 98.46 157.751 99.8659 155.742C101.339 153.667 103.012 151.96 104.887 150.621C106.828 149.282 109.104 148.613 111.715 148.613C114.259 148.613 116.368 149.115 118.041 150.119C119.715 151.056 121.02 152.429 121.958 154.236C122.895 156.044 123.531 158.286 123.865 160.964C124.267 163.575 124.468 166.554 124.468 169.901C124.468 172.177 124.903 174.888 125.773 178.035C126.711 181.114 127.715 184.461 128.786 188.076C129.857 191.691 130.828 195.507 131.698 199.524C132.635 203.541 133.104 207.591 133.104 211.674C133.104 217.164 132.635 221.749 131.698 225.431C130.761 229.113 129.455 232.059 127.782 234.268C126.175 236.544 124.234 238.151 121.958 239.088C119.748 240.025 117.305 240.494 114.627 240.494C111.882 240.494 109.339 240.025 106.995 239.088C104.719 238.151 102.744 236.845 101.071 235.172C99.4642 233.498 98.1923 231.49 97.255 229.147C96.3848 226.804 95.9496 224.193 95.9496 221.314C95.9496 217.432 96.2844 214.218 96.9538 211.674C97.6232 209.13 98.3596 206.854 99.163 204.846C100.033 202.771 100.803 200.762 101.473 198.821C102.142 196.88 102.477 194.537 102.477 191.792C102.477 190.252 102.209 189.047 101.673 188.177C101.205 187.307 100.569 186.871 99.7655 186.871C99.0291 186.871 98.3931 187.441 97.8575 188.579C97.3889 189.717 96.9538 191.156 96.5521 192.896C96.1505 194.57 95.7488 196.411 95.3471 198.419C94.9455 200.428 94.4099 202.302 93.7405 204.043C93.138 205.716 92.3346 207.122 91.3305 208.26C90.3932 209.398 89.1883 209.967 87.7155 209.967C86.2427 209.967 85.0042 209.398 84.0001 208.26C82.9959 207.122 82.1256 205.716 81.3892 204.043C80.6528 202.302 80.0169 200.428 79.4813 198.419C79.0127 196.411 78.5441 194.57 78.0755 192.896C77.6738 191.156 77.2722 189.717 76.8705 188.579C76.4688 187.441 76.0002 186.871 75.4647 186.871C74.7952 186.871 74.2262 187.173 73.7576 187.775C73.3559 188.378 73.0212 189.114 72.7534 189.984C72.5526 190.855 72.4187 191.792 72.3517 192.796C72.2848 193.8 72.2513 194.67 72.2513 195.407C72.2513 198.085 72.7199 200.528 73.6572 202.737C74.5944 204.88 75.632 206.988 76.7701 209.064C77.9751 211.139 79.0462 213.248 79.9834 215.39C80.9206 217.465 81.3892 219.808 81.3892 222.419C81.3892 225.03 81.0545 227.54 80.3851 229.95C79.7156 232.427 78.5106 234.569 76.7701 236.377C75.0965 238.251 72.7869 239.758 69.8413 240.896C66.8958 242.034 63.1804 242.603 58.6951 242.603C55.8165 242.603 53.3061 241.933 51.1638 240.594C49.0886 239.255 47.3815 237.582 46.0426 235.574C44.7707 233.565 43.8 231.389 43.1305 229.046C42.528 226.703 42.2268 224.494 42.2268 222.419C42.2268 217.532 42.595 212.846 43.3314 208.361C44.1347 203.808 45.005 199.256 45.9422 194.704C46.8794 190.152 47.7162 185.499 48.4526 180.746C49.2559 175.926 49.6576 170.805 49.6576 165.382C49.6576 162.972 50.0258 160.763 50.7622 158.755C51.5655 156.68 52.7036 154.872 54.1763 153.332C55.6491 151.793 57.4566 150.588 59.5988 149.717C61.808 148.847 64.3184 148.412 67.1301 148.412ZM141.379 225.231C141.379 222.888 141.914 220.611 142.985 218.402C144.123 216.126 145.462 213.917 147.002 211.775C148.609 209.633 150.282 207.591 152.023 205.649C153.83 203.708 155.37 201.867 156.642 200.126C158.717 197.382 160.257 194.67 161.261 191.993C162.332 189.248 163.102 186.57 163.571 183.959C164.039 181.349 164.307 178.838 164.374 176.428C164.508 173.951 164.642 171.608 164.776 169.399C164.91 167.19 165.144 165.148 165.479 163.274C165.88 161.399 166.617 159.726 167.688 158.253C168.893 156.579 170.299 155.173 171.905 154.035C173.579 152.897 175.353 151.96 177.227 151.224C179.169 150.487 181.144 149.952 183.152 149.617C185.227 149.282 187.269 149.115 189.277 149.115C192.223 149.115 194.934 149.517 197.411 150.32C199.955 151.123 202.164 152.696 204.039 155.039C204.976 156.177 205.779 157.784 206.449 159.859C207.185 161.935 207.888 164.144 208.557 166.487C209.294 168.83 210.03 171.173 210.767 173.516C211.57 175.859 212.44 177.867 213.377 179.541C214.783 181.951 216.289 184.127 217.896 186.068C219.503 187.943 221.109 189.784 222.716 191.591C224.323 193.332 225.863 195.106 227.335 196.913C228.875 198.654 230.214 200.562 231.352 202.637C232.49 204.645 233.394 206.888 234.063 209.365C234.8 211.842 235.168 214.687 235.168 217.9C235.168 220.779 234.8 223.457 234.063 225.934C233.327 228.41 232.189 230.519 230.649 232.26C229.176 234 227.268 235.373 224.925 236.377C222.649 237.381 219.971 237.883 216.892 237.883C213.009 237.883 209.762 237.147 207.152 235.674C204.541 234.268 202.399 232.494 200.725 230.352C199.051 228.21 197.679 225.9 196.608 223.423C195.604 220.946 194.666 218.637 193.796 216.494C192.993 214.352 192.156 212.578 191.286 211.172C190.482 209.7 189.445 208.963 188.173 208.963C187.905 208.963 187.604 208.997 187.269 209.064C187.001 209.13 186.767 209.264 186.566 209.465C184.759 210.804 183.52 212.578 182.851 214.787C182.181 216.996 181.713 219.373 181.445 221.917C181.177 224.394 180.909 226.904 180.642 229.448C180.374 232.059 179.671 234.369 178.533 236.377C177.395 238.452 175.654 240.126 173.311 241.398C170.968 242.737 167.621 243.406 163.27 243.406C156.374 243.406 150.985 241.9 147.102 238.887C143.287 235.875 141.379 231.323 141.379 225.231ZM180.943 186.57C180.943 187.574 181.177 188.445 181.646 189.181C182.181 189.917 182.851 190.52 183.654 190.989C184.457 191.39 185.328 191.725 186.265 191.993C187.202 192.194 188.106 192.294 188.976 192.294C189.779 192.294 190.65 192.194 191.587 191.993C192.591 191.792 193.495 191.457 194.298 190.989C195.169 190.52 195.871 189.951 196.407 189.281C196.943 188.612 197.21 187.775 197.21 186.771C197.21 185.834 196.976 184.863 196.507 183.859C196.106 182.855 195.503 181.918 194.7 181.047C193.964 180.177 193.06 179.474 191.989 178.939C190.984 178.403 189.913 178.135 188.775 178.135C187.57 178.135 186.499 178.403 185.562 178.939C184.625 179.474 183.788 180.177 183.052 181.047C182.382 181.851 181.847 182.754 181.445 183.759C181.11 184.696 180.943 185.633 180.943 186.57ZM243.263 194.704C243.263 187.139 244.1 180.411 245.774 174.52C247.447 168.562 249.824 163.541 252.903 159.458C256.049 155.374 259.865 152.261 264.351 150.119C268.836 147.91 273.857 146.805 279.413 146.805C282.827 146.805 286.041 147.173 289.053 147.91C292.066 148.579 294.676 149.617 296.886 151.023C299.095 152.362 300.835 154.002 302.107 155.943C303.446 157.885 304.116 160.094 304.116 162.571C304.116 165.315 302.576 167.525 299.496 169.198C296.484 170.805 292.467 171.608 287.446 171.608C284.501 171.608 281.656 171.842 278.911 172.311C276.233 172.78 273.857 173.683 271.781 175.022C269.706 176.361 268.033 178.236 266.761 180.646C265.556 182.989 264.953 186.068 264.953 189.884C264.953 191.491 265.254 193.03 265.857 194.503C266.459 195.909 267.296 197.181 268.367 198.319C269.505 199.39 270.878 200.26 272.484 200.93C274.158 201.532 275.999 201.834 278.007 201.834C279.748 201.834 281.488 201.599 283.229 201.131C284.969 200.662 286.543 200.06 287.948 199.323C289.354 198.587 290.492 197.75 291.363 196.813C292.233 195.875 292.668 194.972 292.668 194.101C292.668 192.16 290.66 191.189 286.643 191.189C285.505 191.189 284.3 191.256 283.028 191.39C281.823 191.524 280.652 191.591 279.513 191.591C277.037 191.591 275.229 191.156 274.091 190.286C273.02 189.348 272.484 187.909 272.484 185.968C272.484 184.026 272.953 182.487 273.89 181.349C274.894 180.211 276.133 179.374 277.606 178.838C279.078 178.303 280.652 177.968 282.325 177.834C283.999 177.7 285.572 177.633 287.045 177.633C292.132 177.633 296.551 177.901 300.3 178.436C304.116 178.972 307.295 180.144 309.839 181.951C312.383 183.692 314.291 186.202 315.563 189.482C316.835 192.763 317.471 197.181 317.471 202.737C317.471 208.428 316.5 213.817 314.559 218.904C312.617 223.925 309.906 228.344 306.425 232.159C302.944 235.975 298.793 238.988 293.973 241.197C289.22 243.406 283.965 244.511 278.208 244.511C272.518 244.511 267.497 243.272 263.146 240.795C258.794 238.385 255.146 234.971 252.2 230.553C249.255 226.201 247.012 220.98 245.472 214.888C243.999 208.729 243.263 202.001 243.263 194.704ZM344.527 146.203C349.28 146.203 352.995 147.24 355.673 149.316C358.351 151.324 359.69 154.136 359.69 157.751C359.69 159.558 359.422 161.6 358.886 163.876C358.351 166.152 357.782 168.596 357.179 171.206C356.577 173.75 356.008 176.428 355.472 179.24C354.937 182.051 354.669 184.93 354.669 187.876C354.669 191.089 355.205 194.035 356.276 196.712C357.414 199.39 358.652 202.034 359.991 204.645C361.33 207.256 362.535 209.934 363.606 212.679C364.744 215.423 365.347 218.469 365.414 221.816V222.319C365.414 238.05 358.652 245.916 345.129 245.916C339.171 245.916 334.452 244.41 330.971 241.398C327.557 238.452 325.749 234.335 325.548 229.046V228.243C325.548 225.298 325.983 222.62 326.854 220.21C327.791 217.8 328.762 215.356 329.766 212.879C330.837 210.335 331.807 207.624 332.678 204.746C333.615 201.867 334.084 198.486 334.084 194.604C334.084 191.056 333.715 187.943 332.979 185.265C332.243 182.52 331.406 179.976 330.469 177.633C329.598 175.29 328.762 172.981 327.958 170.704C327.222 168.361 326.854 165.784 326.854 162.972C326.854 157.617 328.36 153.5 331.372 150.621C334.452 147.676 338.837 146.203 344.527 146.203ZM375.144 163.876C375.144 162.202 375.412 160.395 375.947 158.454C376.55 156.512 377.453 154.705 378.658 153.031C379.93 151.291 381.537 149.851 383.478 148.713C385.42 147.575 387.729 147.006 390.407 147.006C394.357 147.006 397.503 148.01 399.846 150.019C402.256 152.027 403.461 154.972 403.461 158.855C403.461 160.462 403.327 161.968 403.06 163.374C402.792 164.713 402.457 165.985 402.055 167.19C401.721 168.395 401.419 169.533 401.152 170.604C400.884 171.608 400.75 172.579 400.75 173.516C400.75 174.252 400.884 174.821 401.152 175.223C401.486 175.625 402.122 175.826 403.06 175.826C404.465 175.826 405.737 175.19 406.875 173.918C408.08 172.579 409.252 170.939 410.39 168.997C411.528 166.989 412.733 164.847 414.005 162.571C415.277 160.228 416.716 158.085 418.323 156.144C419.93 154.136 421.737 152.496 423.745 151.224C425.754 149.885 428.097 149.215 430.775 149.215C432.783 149.215 434.557 149.617 436.097 150.42C437.636 151.157 438.942 152.228 440.013 153.634C441.151 154.972 441.988 156.546 442.523 158.353C443.126 160.161 443.427 162.102 443.427 164.177C443.427 167.056 442.657 169.533 441.117 171.608C439.578 173.683 437.636 175.457 435.293 176.93C432.95 178.403 430.406 179.675 427.662 180.746C424.984 181.75 422.473 182.721 420.13 183.658C417.787 184.528 415.846 185.399 414.306 186.269C412.767 187.139 411.997 188.143 411.997 189.281C411.997 190.42 412.833 191.591 414.507 192.796C416.181 194.001 418.256 195.34 420.733 196.813C423.21 198.219 425.888 199.792 428.766 201.532C431.712 203.273 434.423 205.315 436.9 207.658C439.377 209.934 441.452 212.545 443.126 215.49C444.799 218.369 445.636 221.649 445.636 225.331C445.636 227.205 445.268 229.18 444.532 231.256C443.862 233.331 442.791 235.239 441.318 236.979C439.912 238.72 438.071 240.159 435.795 241.297C433.586 242.435 430.975 243.004 427.963 243.004C426.088 243.004 424.281 242.603 422.54 241.799C420.8 241.063 419.193 240.059 417.72 238.787C416.315 237.515 415.11 236.076 414.105 234.469C413.101 232.862 412.398 231.189 411.997 229.448C411.461 227.239 411.16 225.063 411.093 222.921C411.093 220.712 411.093 218.637 411.093 216.695C411.16 214.754 411.16 212.98 411.093 211.373C411.093 209.766 410.859 208.461 410.39 207.457C410.122 206.854 409.787 206.151 409.386 205.348C409.051 204.478 408.616 203.675 408.08 202.938C407.612 202.135 406.976 201.465 406.172 200.93C405.436 200.327 404.499 200.026 403.361 200.026C401.955 200.026 400.984 200.562 400.449 201.633C399.98 202.704 399.746 204.009 399.746 205.549C399.746 207.49 400.248 209.365 401.252 211.172C402.256 212.98 403.327 214.821 404.465 216.695C405.67 218.57 406.775 220.545 407.779 222.62C408.783 224.695 409.285 226.971 409.285 229.448C409.285 231.59 408.817 233.599 407.88 235.473C406.942 237.414 405.637 239.122 403.963 240.594C402.29 242.067 400.281 243.205 397.938 244.009C395.662 244.879 393.118 245.314 390.307 245.314C387.83 245.314 385.453 244.879 383.177 244.009C380.968 243.138 378.993 241.933 377.253 240.394C375.579 238.921 374.24 237.147 373.236 235.071C372.232 233.063 371.73 230.921 371.73 228.645C371.73 226.101 372.232 223.624 373.236 221.214C374.24 218.737 375.345 216.193 376.55 213.582C377.822 210.971 378.96 208.294 379.964 205.549C380.968 202.737 381.47 199.758 381.47 196.612C381.47 193.934 381.135 191.457 380.466 189.181C379.796 186.905 379.06 184.562 378.257 182.152C377.52 179.742 376.817 177.098 376.148 174.219C375.478 171.273 375.144 167.826 375.144 163.876ZM477.908 146.404C482.527 146.404 486.811 146.571 490.761 146.906C494.711 147.24 498.125 147.876 501.003 148.814C503.949 149.684 506.259 150.956 507.932 152.629C509.606 154.303 510.443 156.445 510.443 159.056C510.443 161.533 509.974 163.541 509.037 165.081C508.166 166.554 506.961 167.725 505.422 168.596C503.949 169.466 502.242 170.102 500.3 170.504C498.426 170.905 496.485 171.273 494.476 171.608C492.535 171.943 490.627 172.311 488.753 172.713C486.878 173.114 485.238 173.75 483.832 174.621C483.23 174.955 482.627 175.457 482.025 176.127C481.422 176.729 481.121 177.399 481.121 178.135C481.121 178.872 481.322 179.474 481.723 179.943C482.192 180.344 482.728 180.679 483.33 180.947C483.933 181.148 484.569 181.282 485.238 181.349C485.974 181.416 486.61 181.449 487.146 181.449C488.886 181.449 490.761 181.382 492.769 181.248C494.778 181.114 496.619 181.482 498.292 182.353C499.296 182.888 500.367 183.658 501.505 184.662C502.71 185.666 503.313 186.838 503.313 188.177C503.313 189.583 502.777 190.687 501.706 191.491C500.702 192.294 499.397 192.963 497.79 193.499C496.25 193.968 494.577 194.403 492.769 194.804C490.962 195.139 489.255 195.541 487.648 196.009C486.108 196.411 484.803 196.947 483.732 197.616C482.728 198.285 482.225 199.223 482.225 200.428C482.225 202.503 482.962 203.976 484.435 204.846C485.907 205.649 487.514 206.051 489.255 206.051C490.861 206.051 492.434 205.917 493.974 205.649C495.581 205.382 497.154 205.114 498.694 204.846C500.234 204.511 501.773 204.244 503.313 204.043C504.92 203.775 506.526 203.641 508.133 203.641C510.744 203.641 512.853 204.076 514.459 204.946C516.133 205.75 517.438 206.888 518.375 208.361C519.313 209.833 519.949 211.574 520.283 213.582C520.618 215.524 520.785 217.666 520.785 220.009C520.785 225.565 519.513 229.984 516.97 233.264C514.493 236.544 511.279 239.055 507.33 240.795C503.447 242.536 499.162 243.64 494.476 244.109C489.857 244.644 485.372 244.912 481.02 244.912C477.205 244.912 473.523 244.578 469.975 243.908C466.494 243.239 463.381 242.101 460.636 240.494C457.958 238.887 455.816 236.712 454.209 233.967C452.603 231.289 451.799 227.875 451.799 223.724C451.799 220.846 452.301 218.268 453.306 215.992C454.31 213.649 455.381 211.373 456.519 209.164C457.724 206.955 458.828 204.679 459.833 202.336C460.837 199.926 461.339 197.214 461.339 194.202C461.339 190.788 461.004 187.742 460.335 185.064C459.732 182.386 459.063 179.876 458.326 177.533C457.59 175.19 456.887 172.88 456.218 170.604C455.615 168.261 455.314 165.784 455.314 163.173C455.314 160.094 455.95 157.516 457.222 155.441C458.561 153.299 460.301 151.558 462.443 150.219C464.586 148.881 466.996 147.91 469.673 147.307C472.418 146.705 475.163 146.404 477.908 146.404ZM575.465 195.507C575.465 196.244 576.101 197.181 577.373 198.319C578.711 199.457 580.352 200.762 582.293 202.235C584.234 203.641 586.343 205.214 588.619 206.955C590.962 208.695 593.104 210.536 595.046 212.478C596.987 214.419 598.594 216.461 599.866 218.603C601.205 220.745 601.874 222.954 601.874 225.231C601.874 227.373 601.339 229.381 600.268 231.256C599.263 233.197 597.924 234.904 596.251 236.377C594.644 237.85 592.803 239.021 590.728 239.891C588.72 240.762 586.711 241.197 584.703 241.197C583.431 241.197 582.126 241.096 580.787 240.896C579.515 240.762 578.276 240.46 577.071 239.992C575.933 239.523 574.862 238.887 573.858 238.084C572.921 237.281 572.117 236.243 571.448 234.971C570.845 233.9 570.31 232.327 569.841 230.251C569.44 228.176 569.038 225.934 568.636 223.524C568.235 221.047 567.833 218.503 567.431 215.892C567.03 213.281 566.528 210.938 565.925 208.863C565.389 206.72 564.72 204.98 563.917 203.641C563.18 202.302 562.243 201.633 561.105 201.633C559.967 201.633 558.996 202.034 558.193 202.838C557.39 203.641 556.988 204.612 556.988 205.75C556.988 207.624 557.423 209.398 558.293 211.072C559.164 212.679 560.101 214.285 561.105 215.892C562.109 217.432 563.046 219.038 563.917 220.712C564.787 222.385 565.222 224.226 565.222 226.235C565.222 228.578 564.653 230.754 563.515 232.762C562.444 234.837 561.005 236.611 559.197 238.084C557.457 239.557 555.448 240.695 553.172 241.498C550.963 242.368 548.754 242.804 546.545 242.804C541.524 242.804 537.474 241.599 534.394 239.189C531.315 236.845 529.708 233.164 529.574 228.143V227.339C529.574 225.13 529.909 222.988 530.578 220.913C531.315 218.77 532.085 216.662 532.888 214.586C533.758 212.511 534.528 210.436 535.198 208.361C535.934 206.218 536.302 204.043 536.302 201.834C536.302 198.888 535.967 196.043 535.298 193.298C534.695 190.486 533.993 187.708 533.189 184.964C532.386 182.152 531.65 179.34 530.98 176.529C530.378 173.717 530.076 170.838 530.076 167.893C530.076 164.546 530.746 161.5 532.085 158.755C533.424 155.943 535.198 153.533 537.407 151.525C539.616 149.517 542.16 147.977 545.038 146.906C547.984 145.768 551.063 145.199 554.277 145.199C558.494 145.199 562.712 145.868 566.929 147.207C571.214 148.479 575.029 150.387 578.377 152.931C581.724 155.408 584.435 158.487 586.51 162.169C588.653 165.851 589.724 170.102 589.724 174.922C589.724 178.537 588.987 181.482 587.515 183.759C586.042 185.968 584.402 187.809 582.594 189.281C580.787 190.687 579.147 191.859 577.674 192.796C576.201 193.666 575.465 194.57 575.465 195.507ZM554.377 178.035C554.377 178.838 554.411 179.842 554.478 181.047C554.611 182.185 554.846 183.29 555.18 184.361C555.515 185.365 556.017 186.236 556.687 186.972C557.356 187.708 558.26 188.076 559.398 188.076C560.268 188.076 561.139 187.775 562.009 187.173C562.879 186.503 563.682 185.7 564.419 184.763C565.155 183.826 565.758 182.821 566.226 181.75C566.695 180.679 566.929 179.708 566.929 178.838C566.929 177.901 566.728 176.997 566.327 176.127C565.992 175.257 565.49 174.487 564.82 173.817C564.218 173.148 563.482 172.612 562.611 172.211C561.808 171.809 560.971 171.608 560.101 171.608C558.36 171.608 556.954 172.311 555.883 173.717C554.879 175.056 554.377 176.495 554.377 178.035ZM625.582 149.215C628.461 149.215 630.703 149.784 632.31 150.922C633.983 152.06 635.222 154.035 636.025 156.847C636.293 157.784 636.728 159.19 637.331 161.064C637.933 162.939 638.67 165.048 639.54 167.391C640.41 169.667 641.347 172.043 642.351 174.52C643.423 176.93 644.527 179.139 645.665 181.148C646.803 183.156 647.941 184.796 649.079 186.068C650.284 187.34 651.456 187.976 652.594 187.976C653.397 187.976 654.067 187.574 654.602 186.771C655.205 185.901 655.64 184.897 655.908 183.759C656.242 182.621 656.477 181.482 656.611 180.344C656.745 179.206 656.811 178.37 656.811 177.834C656.811 176.026 656.611 174.252 656.209 172.512C655.807 170.704 655.372 168.93 654.904 167.19C654.435 165.449 654 163.742 653.598 162.069C653.196 160.328 652.996 158.554 652.996 156.747C652.996 152.73 654.134 149.784 656.41 147.91C658.686 145.968 661.765 144.998 665.648 144.998C667.054 144.998 668.493 145.299 669.966 145.902C671.439 146.504 672.744 147.341 673.882 148.412C675.087 149.483 676.058 150.688 676.794 152.027C677.531 153.366 677.899 154.805 677.899 156.345C677.899 160.964 677.631 165.516 677.096 170.001C676.56 174.487 676.292 179.039 676.292 183.658C676.292 186.604 676.627 189.482 677.296 192.294C677.966 195.106 678.702 197.917 679.506 200.729C680.376 203.541 681.146 206.352 681.815 209.164C682.485 211.909 682.819 214.754 682.819 217.699C682.819 220.578 682.518 223.289 681.916 225.833C681.313 228.31 680.376 230.452 679.104 232.26C677.832 234.134 676.192 235.574 674.184 236.578C672.175 237.649 669.732 238.184 666.853 238.184C664.041 238.184 661.565 237.582 659.422 236.377C657.347 235.172 655.573 233.599 654.1 231.657C652.694 229.716 651.623 227.507 650.887 225.03C650.15 222.553 649.782 220.042 649.782 217.499C649.782 215.758 649.448 213.582 648.778 210.971C648.109 208.361 647.238 205.817 646.167 203.34C645.163 200.796 643.992 198.654 642.653 196.913C641.381 195.106 640.142 194.202 638.937 194.202C638.335 194.202 637.866 194.403 637.531 194.804C637.197 195.139 636.929 195.608 636.728 196.21C636.527 196.746 636.393 197.315 636.326 197.917C636.326 198.52 636.326 199.022 636.326 199.424C636.326 201.231 636.661 203.005 637.331 204.746C638 206.486 638.703 208.26 639.439 210.068C640.243 211.875 640.979 213.817 641.649 215.892C642.318 217.9 642.653 220.143 642.653 222.62C642.653 225.03 642.251 227.306 641.448 229.448C640.711 231.59 639.64 233.465 638.234 235.071C636.829 236.678 635.088 237.917 633.013 238.787C631.004 239.724 628.728 240.193 626.184 240.193C623.774 240.193 621.532 239.724 619.457 238.787C617.448 237.85 615.674 236.578 614.134 234.971C612.662 233.431 611.49 231.59 610.62 229.448C609.75 227.373 609.314 225.13 609.314 222.72C609.314 218.704 609.683 214.754 610.419 210.871C611.155 206.988 611.925 203.139 612.729 199.323C613.599 195.44 614.402 191.558 615.139 187.675C615.875 183.792 616.243 179.876 616.243 175.926C616.243 172.914 615.908 169.968 615.239 167.089C614.637 164.211 614.335 161.567 614.335 159.157C614.335 155.876 615.44 153.399 617.649 151.726C619.925 150.052 622.569 149.215 625.582 149.215ZM715.546 146.404C720.165 146.404 724.449 146.571 728.399 146.906C732.349 147.24 735.763 147.876 738.642 148.814C741.587 149.684 743.897 150.956 745.57 152.629C747.244 154.303 748.081 156.445 748.081 159.056C748.081 161.533 747.612 163.541 746.675 165.081C745.805 166.554 744.6 167.725 743.06 168.596C741.587 169.466 739.88 170.102 737.939 170.504C736.064 170.905 734.123 171.273 732.114 171.608C730.173 171.943 728.265 172.311 726.391 172.713C724.516 173.114 722.876 173.75 721.47 174.621C720.868 174.955 720.265 175.457 719.663 176.127C719.06 176.729 718.759 177.399 718.759 178.135C718.759 178.872 718.96 179.474 719.362 179.943C719.83 180.344 720.366 180.679 720.968 180.947C721.571 181.148 722.207 181.282 722.876 181.349C723.613 181.416 724.249 181.449 724.784 181.449C726.525 181.449 728.399 181.382 730.407 181.248C732.416 181.114 734.257 181.482 735.93 182.353C736.934 182.888 738.006 183.658 739.144 184.662C740.349 185.666 740.951 186.838 740.951 188.177C740.951 189.583 740.416 190.687 739.344 191.491C738.34 192.294 737.035 192.963 735.428 193.499C733.889 193.968 732.215 194.403 730.407 194.804C728.6 195.139 726.893 195.541 725.286 196.009C723.746 196.411 722.441 196.947 721.37 197.616C720.366 198.285 719.864 199.223 719.864 200.428C719.864 202.503 720.6 203.976 722.073 204.846C723.546 205.649 725.152 206.051 726.893 206.051C728.499 206.051 730.073 205.917 731.612 205.649C733.219 205.382 734.792 205.114 736.332 204.846C737.872 204.511 739.411 204.244 740.951 204.043C742.558 203.775 744.164 203.641 745.771 203.641C748.382 203.641 750.491 204.076 752.097 204.946C753.771 205.75 755.076 206.888 756.014 208.361C756.951 209.833 757.587 211.574 757.922 213.582C758.256 215.524 758.424 217.666 758.424 220.009C758.424 225.565 757.152 229.984 754.608 233.264C752.131 236.544 748.918 239.055 744.968 240.795C741.085 242.536 736.801 243.64 732.114 244.109C727.495 244.644 723.01 244.912 718.659 244.912C714.843 244.912 711.161 244.578 707.613 243.908C704.132 243.239 701.019 242.101 698.274 240.494C695.596 238.887 693.454 236.712 691.847 233.967C690.241 231.289 689.437 227.875 689.437 223.724C689.437 220.846 689.94 218.268 690.944 215.992C691.948 213.649 693.019 211.373 694.157 209.164C695.362 206.955 696.467 204.679 697.471 202.336C698.475 199.926 698.977 197.214 698.977 194.202C698.977 190.788 698.642 187.742 697.973 185.064C697.37 182.386 696.701 179.876 695.965 177.533C695.228 175.19 694.525 172.88 693.856 170.604C693.253 168.261 692.952 165.784 692.952 163.173C692.952 160.094 693.588 157.516 694.86 155.441C696.199 153.299 697.939 151.558 700.082 150.219C702.224 148.881 704.634 147.91 707.312 147.307C710.056 146.705 712.801 146.404 715.546 146.404Z" fill="#FBF6EB"/>
</g>
<g filter="url(#filter1_d_93_170)">
<path d="M538.346 74.5733C538.51 73.7928 539.546 73.6184 539.956 74.3024L549.939 90.9564C550.115 91.2508 550.447 91.4151 550.788 91.3768L570.239 89.1942C571.037 89.1047 571.525 90.0457 570.993 90.6466L558.076 105.223C557.846 105.482 557.79 105.852 557.934 106.168L565.975 123.8C566.307 124.527 565.572 125.283 564.836 124.97L546.851 117.339C546.537 117.206 546.174 117.267 545.921 117.496L531.426 130.594C530.833 131.13 529.891 130.658 529.966 129.862L531.792 110.568C531.824 110.223 531.651 109.892 531.348 109.722L514.371 100.178C513.671 99.7845 513.825 98.7355 514.608 98.5589L533.701 94.2532C534.036 94.1777 534.296 93.9137 534.366 93.5778L538.346 74.5733Z" fill="#FFDF53"/>
<path d="M502.051 44.3856C502.157 43.9299 502.76 43.8284 503.009 44.2244L507.77 51.802C507.878 51.9735 508.075 52.0679 508.276 52.0446L517.651 50.962C518.138 50.9058 518.43 51.4875 518.094 51.8446L511.853 58.4835C511.705 58.6412 511.668 58.8738 511.761 59.0693L515.538 67.0227C515.743 67.4533 515.315 67.9121 514.871 67.7378L506.174 64.3229C505.993 64.2518 505.788 64.2864 505.64 64.4128L498.541 70.4868C498.178 70.7967 497.624 70.5034 497.676 70.0295L498.641 61.2778C498.665 61.0626 498.555 60.8548 498.363 60.7543L490.292 56.5248C489.858 56.2972 489.943 55.6518 490.422 55.5455L499.634 53.4993C499.832 53.4554 499.987 53.3018 500.033 53.1045L502.051 44.3856Z" fill="#FFDF53"/>
<path d="M550.008 40.0806C550.083 39.7861 550.472 39.7207 550.64 39.9742L553.758 44.6874C553.831 44.7979 553.96 44.8578 554.092 44.8421L560.29 44.106C560.62 44.0668 560.815 44.4668 560.579 44.7021L556.446 48.8362C556.339 48.9426 556.313 49.1051 556.379 49.24L558.811 54.1369C558.951 54.4199 558.675 54.7298 558.378 54.6226L552.605 52.5406C552.489 52.499 552.361 52.5207 552.265 52.5977L547.492 56.455C547.246 56.6537 546.884 56.4513 546.924 56.1378L547.618 50.7148C547.637 50.5655 547.559 50.4206 547.423 50.3549L542.164 47.802C541.865 47.6567 541.917 47.2152 542.242 47.1441L548.34 45.8103C548.469 45.782 548.572 45.6832 548.605 45.5549L550.008 40.0806Z" fill="#FFDF53"/>
<rect width="21.0606" height="213.074" rx="5.25906" transform="matrix(0.19473 -0.980857 0.974075 0.226226 563.752 72.3101)" fill="#3D3B3B"/>
<rect width="21.1038" height="43.9206" rx="5.25906" transform="matrix(0.19473 -0.980857 0.974075 0.226226 728.616 110.626)" fill="#EBE8D5"/>
<rect width="21.0606" height="43.3992" rx="5.25906" transform="matrix(0.19473 -0.980857 0.974075 0.226226 563.752 72.3101)" fill="#EBE8D5"/>
</g>
<g filter="url(#filter2_d_93_170)">
<path d="M91.2112 100.885C91.2112 96.1315 89.069 93.755 84.7845 93.755C82.3745 93.755 80.5001 94.4244 79.1612 95.7633C77.8893 97.1022 77.2533 99.0101 77.2533 101.487C77.2533 103.094 77.4876 104.7 77.9562 106.307C78.4918 107.914 79.0608 109.52 79.6633 111.127C80.3327 112.667 80.9018 114.273 81.3704 115.947C81.9059 117.554 82.1737 119.227 82.1737 120.968C82.1737 123.177 81.9729 125.453 81.5712 127.796C81.1695 130.206 80.3662 132.382 79.1612 134.323C78.0232 136.265 76.3496 137.838 74.1404 139.043C71.9982 140.315 69.153 140.951 65.605 140.951C62.1239 140.951 59.1783 140.281 56.7683 138.942C54.4253 137.604 52.5174 135.863 51.0446 133.721C49.5718 131.646 48.4672 129.302 47.7308 126.692C47.0614 124.148 46.6932 121.637 46.6262 119.16V118.457C46.6262 116.114 47.0279 113.805 47.8312 111.529C48.7015 109.186 49.6387 106.809 50.6429 104.399C51.6471 101.922 52.5508 99.3783 53.3542 96.7675C54.2244 94.1567 54.6596 91.4119 54.6596 88.5333C54.6596 85.9895 54.3249 83.5125 53.6554 81.1025C52.986 78.6256 52.2496 76.1821 51.4462 73.7721C50.6429 71.3621 49.9065 68.9186 49.2371 66.4417C48.5676 63.9648 48.2329 61.3874 48.2329 58.7096C48.2329 56.5674 48.4337 54.626 48.8354 52.8855C49.304 51.1449 50.1074 49.6721 51.2454 48.4671C52.3835 47.1952 53.8897 46.2245 55.7642 45.555C57.7055 44.8856 60.1825 44.5509 63.195 44.5509C65.605 44.5509 67.6133 45.1869 69.22 46.4588C70.8936 47.6638 71.9647 49.2705 72.4333 51.2788C72.835 52.9524 73.0358 54.8268 73.0358 56.9021C73.1028 58.9105 73.1028 60.9523 73.0358 63.0275C72.9689 65.0359 72.9689 67.0442 73.0358 69.0525C73.1028 70.9939 73.3705 72.7345 73.8391 74.2742C74.3747 75.747 75.2115 76.952 76.3496 77.8892C77.4876 78.7595 79.0943 79.1946 81.1695 79.1946C83.5126 79.1946 85.3536 78.5586 86.6925 77.2867C88.0983 75.9478 88.8012 74.2072 88.8012 72.065C88.8012 71.0609 88.6673 70.0232 88.3995 68.9521C88.1318 67.8141 87.8305 66.6091 87.4958 65.3371C87.228 64.0652 86.9602 62.6928 86.6925 61.22C86.4247 59.7473 86.2908 58.1406 86.2908 56.4C86.2908 51.9817 87.228 48.5675 89.1025 46.1576C91.0438 43.7476 93.7886 42.5426 97.3366 42.5426C101.956 42.5426 105.37 44.0488 107.579 47.0613C109.855 50.0069 110.993 54.3582 110.993 60.1155C110.993 61.5882 110.893 63.1949 110.692 64.9354C110.558 66.676 110.357 68.45 110.09 70.2575C109.889 72.065 109.688 73.839 109.487 75.5796C109.353 77.3202 109.286 78.8933 109.286 80.2992C109.286 82.977 109.621 85.32 110.29 87.3283C110.96 89.3367 111.663 91.4789 112.399 93.755C113.002 95.6294 113.771 97.5374 114.709 99.4787C115.713 101.42 116.65 103.462 117.52 105.604C118.458 107.679 119.261 109.855 119.93 112.131C120.6 114.34 120.935 116.717 120.935 119.261C120.935 122.206 120.566 124.985 119.83 127.595C119.094 130.206 117.989 132.482 116.516 134.424C115.043 136.432 113.202 138.005 110.993 139.143C108.784 140.348 106.173 140.951 103.161 140.951C99.9474 140.951 97.3031 140.449 95.2279 139.445C93.2195 138.507 91.6129 137.235 90.4079 135.629C89.2698 134.022 88.4665 132.148 87.9979 130.005C87.5962 127.93 87.3954 125.788 87.3954 123.579V122.876C87.3954 120.867 87.5962 118.926 87.9979 117.052C88.3995 115.11 88.8347 113.236 89.3033 111.428C89.7719 109.554 90.207 107.746 90.6087 106.006C91.0104 104.265 91.2112 102.558 91.2112 100.885ZM160.867 46.5592C163.01 46.5592 165.286 46.3584 167.696 45.9567C170.173 45.555 172.783 45.3542 175.528 45.3542C180.214 45.3542 183.528 46.5592 185.469 48.9692C187.478 51.3123 188.482 54.3582 188.482 58.1071C188.482 60.1824 188.214 61.8225 187.679 63.0275C187.21 64.1656 186.574 65.0359 185.771 65.6384C185.034 66.1739 184.197 66.5756 183.26 66.8434C182.39 67.0442 181.553 67.2785 180.75 67.5463C180.013 67.7471 179.377 68.0818 178.842 68.5504C178.373 68.9521 178.139 69.6885 178.139 70.7596C178.139 72.0316 178.474 73.5378 179.143 75.2784C179.813 76.952 180.549 79.0942 181.352 81.705C182.223 84.2489 182.992 87.3618 183.662 91.0438C184.331 94.7257 184.666 99.144 184.666 104.299C184.666 115.88 181.988 124.583 176.633 130.407C171.277 136.231 163.311 139.143 152.734 139.143C143.897 139.143 137.236 137.101 132.751 133.018C128.265 129.001 126.023 123.043 126.023 115.144C126.023 110.257 126.826 106.341 128.433 103.395C130.039 100.382 132.148 98.8762 134.759 98.8762C135.83 98.8762 136.633 99.1106 137.169 99.5792C137.772 99.9808 138.341 100.449 138.876 100.985C139.412 101.454 140.014 101.922 140.684 102.391C141.353 102.792 142.29 102.993 143.495 102.993C145.236 102.993 146.843 102.424 148.315 101.286C149.855 100.081 151.194 98.5081 152.332 96.5667C153.47 94.5583 154.374 92.2822 155.043 89.7383C155.713 87.1945 156.047 84.5167 156.047 81.705C156.047 78.6925 155.679 76.1152 154.943 73.9729C154.206 71.7638 153.169 70.2241 151.83 69.3538C151.16 68.9521 150.391 68.6843 149.52 68.5504C148.65 68.4166 147.646 68.3496 146.508 68.3496C145.035 68.3496 143.462 68.4166 141.788 68.5504C140.115 68.6174 138.441 68.5504 136.767 68.3496C135.161 68.1488 133.621 67.7136 132.148 67.0442C130.742 66.3078 129.537 65.1698 128.533 63.63C127.127 61.4878 126.424 59.1782 126.424 56.7013C126.424 53.2871 127.563 50.5424 129.839 48.4671C132.182 46.3919 135.161 45.3542 138.776 45.3542C141.922 45.3542 145.403 45.555 149.219 45.9567C153.035 46.3584 156.918 46.5592 160.867 46.5592ZM219.776 41.8396C224.395 41.8396 228.679 42.007 232.629 42.3417C236.579 42.6764 239.993 43.3124 242.872 44.2496C245.817 45.1199 248.127 46.3919 249.8 48.0655C251.474 49.7391 252.311 51.8813 252.311 54.4921C252.311 56.9691 251.842 58.9774 250.905 60.5171C250.035 61.9899 248.83 63.1614 247.29 64.0317C245.817 64.902 244.11 65.5379 242.169 65.9396C240.294 66.3413 238.353 66.7095 236.345 67.0442C234.403 67.3789 232.495 67.7471 230.621 68.1488C228.746 68.5504 227.106 69.1864 225.7 70.0567C225.098 70.3914 224.495 70.8935 223.893 71.5629C223.29 72.1654 222.989 72.8349 222.989 73.5713C222.989 74.3077 223.19 74.9102 223.592 75.3788C224.06 75.7804 224.596 76.1152 225.198 76.3829C225.801 76.5838 226.437 76.7177 227.106 76.7846C227.843 76.8515 228.479 76.885 229.014 76.885C230.755 76.885 232.629 76.8181 234.637 76.6842C236.646 76.5503 238.487 76.9185 240.16 77.7888C241.165 78.3243 242.236 79.0942 243.374 80.0983C244.579 81.1025 245.181 82.274 245.181 83.6129C245.181 85.0188 244.646 86.1233 243.575 86.9267C242.57 87.73 241.265 88.3995 239.658 88.935C238.119 89.4036 236.445 89.8388 234.637 90.2404C232.83 90.5751 231.123 90.9768 229.516 91.4454C227.976 91.8471 226.671 92.3826 225.6 93.0521C224.596 93.7215 224.094 94.6588 224.094 95.8638C224.094 97.939 224.83 99.4118 226.303 100.282C227.776 101.085 229.382 101.487 231.123 101.487C232.73 101.487 234.303 101.353 235.842 101.085C237.449 100.818 239.022 100.55 240.562 100.282C242.102 99.9474 243.641 99.6796 245.181 99.4787C246.788 99.211 248.395 99.0771 250.001 99.0771C252.612 99.0771 254.721 99.5122 256.327 100.382C258.001 101.186 259.306 102.324 260.244 103.797C261.181 105.269 261.817 107.01 262.152 109.018C262.486 110.96 262.654 113.102 262.654 115.445C262.654 121.001 261.382 125.42 258.838 128.7C256.361 131.98 253.148 134.491 249.198 136.231C245.315 137.972 241.031 139.076 236.345 139.545C231.725 140.081 227.24 140.348 222.889 140.348C219.073 140.348 215.391 140.014 211.843 139.344C208.362 138.675 205.249 137.537 202.504 135.93C199.826 134.323 197.684 132.148 196.077 129.403C194.471 126.725 193.667 123.311 193.667 119.16C193.667 116.282 194.17 113.704 195.174 111.428C196.178 109.085 197.249 106.809 198.387 104.6C199.592 102.391 200.697 100.115 201.701 97.7717C202.705 95.3617 203.207 92.6504 203.207 89.6379C203.207 86.2238 202.872 83.1778 202.203 80.5C201.6 77.8222 200.931 75.3118 200.195 72.9688C199.458 70.6257 198.755 68.3161 198.086 66.04C197.483 63.697 197.182 61.22 197.182 58.6092C197.182 55.5298 197.818 52.9524 199.09 50.8771C200.429 48.7349 202.169 46.9944 204.312 45.6555C206.454 44.3166 208.864 43.3459 211.542 42.7434C214.286 42.1409 217.031 41.8396 219.776 41.8396ZM313.316 90.9433C313.316 91.6797 313.952 92.6169 315.224 93.755C316.563 94.8931 318.203 96.1985 320.144 97.6712C322.086 99.0771 324.195 100.65 326.471 102.391C328.814 104.131 330.956 105.972 332.897 107.914C334.839 109.855 336.445 111.897 337.717 114.039C339.056 116.181 339.726 118.391 339.726 120.667C339.726 122.809 339.19 124.817 338.119 126.692C337.115 128.633 335.776 130.34 334.102 131.813C332.496 133.286 330.655 134.457 328.579 135.327C326.571 136.198 324.563 136.633 322.554 136.633C321.283 136.633 319.977 136.532 318.638 136.332C317.366 136.198 316.128 135.896 314.923 135.428C313.785 134.959 312.714 134.323 311.71 133.52C310.772 132.717 309.969 131.679 309.3 130.407C308.697 129.336 308.161 127.763 307.693 125.687C307.291 123.612 306.89 121.37 306.488 118.96C306.086 116.483 305.685 113.939 305.283 111.328C304.881 108.717 304.379 106.374 303.777 104.299C303.241 102.157 302.572 100.416 301.768 99.0771C301.032 97.7382 300.095 97.0687 298.957 97.0687C297.819 97.0687 296.848 97.4704 296.045 98.2737C295.241 99.0771 294.84 100.048 294.84 101.186C294.84 103.06 295.275 104.834 296.145 106.508C297.015 108.115 297.952 109.721 298.957 111.328C299.961 112.868 300.898 114.474 301.768 116.148C302.639 117.822 303.074 119.662 303.074 121.671C303.074 124.014 302.505 126.19 301.367 128.198C300.295 130.273 298.856 132.047 297.049 133.52C295.308 134.993 293.3 136.131 291.024 136.934C288.815 137.804 286.605 138.24 284.396 138.24C279.375 138.24 275.325 137.035 272.246 134.625C269.166 132.281 267.56 128.6 267.426 123.579V122.775C267.426 120.566 267.761 118.424 268.43 116.349C269.166 114.207 269.936 112.098 270.74 110.022C271.61 107.947 272.38 105.872 273.049 103.797C273.786 101.654 274.154 99.4787 274.154 97.2696C274.154 94.324 273.819 91.4789 273.15 88.7342C272.547 85.9225 271.844 83.1443 271.041 80.3996C270.237 77.5879 269.501 74.7763 268.832 71.9646C268.229 69.1529 267.928 66.2743 267.928 63.3288C267.928 59.9816 268.597 56.9356 269.936 54.1909C271.275 51.3792 273.049 48.9692 275.258 46.9609C277.467 44.9525 280.011 43.4128 282.89 42.3417C285.836 41.2037 288.915 40.6346 292.128 40.6346C296.346 40.6346 300.563 41.3041 304.781 42.643C309.065 43.9149 312.881 45.8228 316.228 48.3667C319.575 50.8437 322.287 53.9231 324.362 57.605C326.504 61.287 327.575 65.5379 327.575 70.3579C327.575 73.9729 326.839 76.9185 325.366 79.1946C323.893 81.4038 322.253 83.2447 320.446 84.7175C318.638 86.1233 316.998 87.2949 315.525 88.2321C314.053 89.1024 313.316 90.0061 313.316 90.9433ZM292.229 73.4709C292.229 74.2742 292.262 75.2784 292.329 76.4834C292.463 77.6214 292.697 78.726 293.032 79.7971C293.367 80.8013 293.869 81.6715 294.538 82.4079C295.208 83.1443 296.111 83.5125 297.25 83.5125C298.12 83.5125 298.99 83.2113 299.86 82.6088C300.731 81.9393 301.534 81.136 302.27 80.1988C303.007 79.2615 303.609 78.2574 304.078 77.1863C304.546 76.1152 304.781 75.1445 304.781 74.2742C304.781 73.337 304.58 72.4332 304.178 71.5629C303.844 70.6927 303.341 69.9228 302.672 69.2534C302.07 68.5839 301.333 68.0484 300.463 67.6467C299.66 67.245 298.823 67.0442 297.952 67.0442C296.212 67.0442 294.806 67.7471 293.735 69.1529C292.731 70.4918 292.229 71.9311 292.229 73.4709ZM374.649 42.4421C376.59 42.4421 378.732 42.4756 381.075 42.5426C383.485 42.6095 385.895 42.7769 388.305 43.0446C390.715 43.2455 393.058 43.6137 395.335 44.1492C397.611 44.6848 399.652 45.4212 401.46 46.3584C403.669 47.5634 405.242 48.9357 406.18 50.4755C407.184 51.9482 407.686 53.9566 407.686 56.5005C407.686 59.3791 407.117 61.7556 405.979 63.63C404.908 65.5045 402.799 66.4417 399.652 66.4417C398.18 66.4417 396.874 66.2409 395.736 65.8392C394.665 65.4375 393.661 65.0024 392.724 64.5338C391.853 63.9982 390.983 63.5296 390.113 63.1279C389.31 62.7263 388.439 62.5254 387.502 62.5254C386.699 62.5254 386.029 62.8267 385.494 63.4292C385.025 63.9648 384.623 64.6677 384.289 65.5379C384.021 66.3413 383.82 67.245 383.686 68.2492C383.619 69.2534 383.586 70.1906 383.586 71.0609C383.586 75.0775 384.222 78.9938 385.494 82.8096C386.766 86.5585 388.172 90.3408 389.711 94.1567C391.251 97.9056 392.657 101.688 393.929 105.504C395.201 109.253 395.837 113.102 395.837 117.052C395.837 120.265 395.201 123.077 393.929 125.487C392.657 127.897 390.95 129.905 388.807 131.512C386.732 133.118 384.322 134.29 381.577 135.026C378.9 135.83 376.122 136.231 373.243 136.231C370.364 136.231 367.553 135.83 364.808 135.026C362.063 134.29 359.62 133.118 357.478 131.512C355.335 129.905 353.595 127.897 352.256 125.487C350.984 123.077 350.314 120.265 350.248 117.052V116.65C350.248 112.7 350.85 108.851 352.055 105.102C353.327 101.353 354.699 97.6043 356.172 93.8554C357.712 90.1065 359.084 86.3576 360.289 82.6088C361.561 78.7929 362.197 74.9102 362.197 70.9604C362.197 69.8224 362.197 68.7178 362.197 67.6467C362.264 66.5756 362.197 65.6049 361.996 64.7346C361.795 63.8643 361.36 63.1949 360.691 62.7263C360.088 62.1907 359.118 61.923 357.779 61.923C356.708 61.923 355.703 62.1238 354.766 62.5254C353.829 62.9271 352.858 63.3957 351.854 63.9313C350.917 64.3999 349.946 64.835 348.942 65.2367C347.938 65.6384 346.833 65.8392 345.628 65.8392C342.817 65.8392 340.608 65.0693 339.001 63.5296C337.394 61.9229 336.591 59.6468 336.591 56.7013C336.591 54.1574 337.294 52.0487 338.7 50.375C340.172 48.7014 342.013 47.3625 344.223 46.3584C346.499 45.2873 349.043 44.4839 351.854 43.9484C354.733 43.4128 357.578 43.0446 360.39 42.8438C363.201 42.576 365.879 42.4421 368.423 42.4421C370.967 42.4421 373.042 42.4421 374.649 42.4421ZM435.558 41.8396C440.177 41.8396 444.461 42.007 448.411 42.3417C452.361 42.6764 455.775 43.3124 458.653 44.2496C461.599 45.1199 463.909 46.3919 465.582 48.0655C467.256 49.7391 468.093 51.8813 468.093 54.4921C468.093 56.9691 467.624 58.9774 466.687 60.5171C465.817 61.9899 464.612 63.1614 463.072 64.0317C461.599 64.902 459.892 65.5379 457.951 65.9396C456.076 66.3413 454.135 66.7095 452.126 67.0442C450.185 67.3789 448.277 67.7471 446.403 68.1488C444.528 68.5504 442.888 69.1864 441.482 70.0567C440.88 70.3914 440.277 70.8935 439.675 71.5629C439.072 72.1654 438.771 72.8349 438.771 73.5713C438.771 74.3077 438.972 74.9102 439.373 75.3788C439.842 75.7804 440.378 76.1152 440.98 76.3829C441.583 76.5838 442.219 76.7177 442.888 76.7846C443.624 76.8515 444.26 76.885 444.796 76.885C446.537 76.885 448.411 76.8181 450.419 76.6842C452.428 76.5503 454.269 76.9185 455.942 77.7888C456.946 78.3243 458.017 79.0942 459.156 80.0983C460.361 81.1025 460.963 82.274 460.963 83.6129C460.963 85.0188 460.427 86.1233 459.356 86.9267C458.352 87.73 457.047 88.3995 455.44 88.935C453.9 89.4036 452.227 89.8388 450.419 90.2404C448.612 90.5751 446.905 90.9768 445.298 91.4454C443.758 91.8471 442.453 92.3826 441.382 93.0521C440.378 93.7215 439.876 94.6588 439.876 95.8638C439.876 97.939 440.612 99.4118 442.085 100.282C443.558 101.085 445.164 101.487 446.905 101.487C448.511 101.487 450.085 101.353 451.624 101.085C453.231 100.818 454.804 100.55 456.344 100.282C457.884 99.9474 459.423 99.6796 460.963 99.4787C462.57 99.211 464.176 99.0771 465.783 99.0771C468.394 99.0771 470.503 99.5122 472.109 100.382C473.783 101.186 475.088 102.324 476.026 103.797C476.963 105.269 477.599 107.01 477.933 109.018C478.268 110.96 478.436 113.102 478.436 115.445C478.436 121.001 477.164 125.42 474.62 128.7C472.143 131.98 468.929 134.491 464.98 136.231C461.097 137.972 456.812 139.076 452.126 139.545C447.507 140.081 443.022 140.348 438.671 140.348C434.855 140.348 431.173 140.014 427.625 139.344C424.144 138.675 421.031 137.537 418.286 135.93C415.608 134.323 413.466 132.148 411.859 129.403C410.253 126.725 409.449 123.311 409.449 119.16C409.449 116.282 409.951 113.704 410.956 111.428C411.96 109.085 413.031 106.809 414.169 104.6C415.374 102.391 416.478 100.115 417.483 97.7717C418.487 95.3617 418.989 92.6504 418.989 89.6379C418.989 86.2238 418.654 83.1778 417.985 80.5C417.382 77.8222 416.713 75.3118 415.976 72.9688C415.24 70.6257 414.537 68.3161 413.868 66.04C413.265 63.697 412.964 61.22 412.964 58.6092C412.964 55.5298 413.6 52.9524 414.872 50.8771C416.211 48.7349 417.951 46.9944 420.093 45.6555C422.236 44.3166 424.646 43.3459 427.323 42.7434C430.068 42.1409 432.813 41.8396 435.558 41.8396Z" fill="#FBF6EB"/>
</g>
<defs>
<filter id="filter0_d_93_170" x="29.1488" y="144.998" width="742.353" height="127.074" filterUnits="userSpaceOnUse" color-interpolation-filters="sRGB">
<feFlood flood-opacity="0" result="BackgroundImageFix"/>
<feColorMatrix in="SourceAlpha" type="matrix" values="0 0 0 0 0 0 0 0 0 0 0 0 0 0 0 0 0 0 127 0" result="hardAlpha"/>
<feOffset dy="13.0777"/>
<feGaussianBlur stdDeviation="6.53887"/>
<feComposite in2="hardAlpha" operator="out"/>
<feColorMatrix type="matrix" values="0 0 0 0 0 0 0 0 0 0 0 0 0 0 0 0 0 0 0.25 0"/>
<feBlend mode="normal" in2="BackgroundImageFix" result="effect1_dropShadow_93_170"/>
<feBlend mode="normal" in="SourceGraphic" in2="effect1_dropShadow_93_170" result="shape"/>
</filter>
<filter id="filter1_d_93_170" x="476.932" y="39.8169" width="310.732" height="117.162" filterUnits="userSpaceOnUse" color-interpolation-filters="sRGB">
<feFlood flood-opacity="0" result="BackgroundImageFix"/>
<feColorMatrix in="SourceAlpha" type="matrix" values="0 0 0 0 0 0 0 0 0 0 0 0 0 0 0 0 0 0 127 0" result="hardAlpha"/>
<feOffset dy="13.0777"/>
<feGaussianBlur stdDeviation="6.53887"/>
<feComposite in2="hardAlpha" operator="out"/>
<feColorMatrix type="matrix" values="0 0 0 0 0 0 0 0 0 0 0 0 0 0 0 0 0 0 0.25 0"/>
<feBlend mode="normal" in2="BackgroundImageFix" result="effect1_dropShadow_93_170"/>
<feBlend mode="normal" in="SourceGraphic" in2="effect1_dropShadow_93_170" result="shape"/>
</filter>
<filter id="filter2_d_93_170" x="33.5482" y="40.6348" width="457.965" height="126.471" filterUnits="userSpaceOnUse" color-interpolation-filters="sRGB">
<feFlood flood-opacity="0" result="BackgroundImageFix"/>
<feColorMatrix in="SourceAlpha" type="matrix" values="0 0 0 0 0 0 0 0 0 0 0 0 0 0 0 0 0 0 127 0" result="hardAlpha"/>
<feOffset dy="13.0777"/>
<feGaussianBlur stdDeviation="6.53887"/>
<feComposite in2="hardAlpha" operator="out"/>
<feColorMatrix type="matrix" values="0 0 0 0 0 0 0 0 0 0 0 0 0 0 0 0 0 0 0.25 0"/>
<feBlend mode="normal" in2="BackgroundImageFix" result="effect1_dropShadow_93_170"/>
<feBlend mode="normal" in="SourceGraphic" in2="effect1_dropShadow_93_170" result="shape"/>
</filter>
</defs>
</svg>
