<svg width="326" height="319" viewBox="0 0 326 319" fill="none" xmlns="http://www.w3.org/2000/svg">
<g filter="url(#filter0_d_7_169)">
<rect x="240.04" y="174.838" width="107.31" height="149.03" rx="15.1433" transform="rotate(129.881 240.04 174.838)" fill="white"/>
<rect x="240.04" y="174.838" width="107.31" height="149.03" rx="15.1433" transform="rotate(129.881 240.04 174.838)" fill="white"/>
<rect x="240.04" y="174.838" width="107.31" height="149.03" rx="15.1433" transform="rotate(129.881 240.04 174.838)" stroke="#FF4B00" stroke-width="2.75334"/>
<path d="M211.526 166.332L207.164 166.614L208.483 170.583" stroke="#FF4B00" stroke-width="8.26001" stroke-linecap="round"/>
<path d="M89.924 165.593L89.8942 169.963L85.8552 168.876" stroke="#FF4B00" stroke-width="5.50667" stroke-linecap="round"/>
<path d="M211.927 173.696C211.969 173.723 212.011 173.749 212.074 173.789C212.14 173.684 212.227 173.592 212.293 173.487C213.095 172.353 213.884 171.239 214.707 170.117C214.812 169.949 214.797 169.881 214.663 169.767C213.84 169.074 213.005 168.402 212.216 167.701C211.54 167.1 211.388 166.272 211.7 165.59C212.031 164.832 212.77 164.448 213.673 164.548C214.225 164.602 214.739 164.808 215.187 165.12C217.879 167.077 219.93 168.749 221.799 171.594C223.227 173.839 225.688 178.023 224.038 180.645C222.204 183.56 216.99 181.889 214.653 180.624C213.447 179.982 212.388 179.198 211.322 178.381C210.556 177.782 209.791 177.183 209.039 176.564C208.217 175.87 207.555 175.015 206.967 174.088C206.559 173.48 206.582 172.792 206.925 172.247C207.031 172.079 207.157 171.924 207.326 171.796C208 171.283 208.985 171.347 209.695 171.94C210.425 172.547 211.183 173.111 211.927 173.696ZM217.308 172.31C216.446 173.495 215.609 174.638 214.773 175.78C216.266 177.13 219.325 178.411 220.516 178.194C219.908 175.996 218.784 174.059 217.308 172.31Z" fill="#FF4B00"/>
<path d="M79.9855 158.352C79.9695 158.329 79.9535 158.307 79.9296 158.273C79.9856 158.233 80.0337 158.182 80.0897 158.142C80.6934 157.661 81.286 157.188 81.8817 156.696C81.9714 156.632 82.0098 156.638 82.0769 156.708C82.4879 157.143 82.8876 157.585 83.3017 157.999C83.6567 158.355 84.1208 158.413 84.489 158.218C84.8989 158.01 85.0881 157.588 85.0037 157.09C84.9559 156.786 84.8249 156.508 84.6379 156.269C83.466 154.839 82.4731 153.755 80.8351 152.809C79.5443 152.089 77.1448 150.858 75.7436 151.857C74.1856 152.968 75.2794 155.807 76.0561 157.062C76.4509 157.71 76.9193 158.273 77.407 158.838C77.7635 159.243 78.12 159.648 78.4878 160.045C78.8987 160.479 79.3945 160.819 79.9272 161.116C80.2775 161.322 80.6584 161.287 80.9498 161.08C81.0395 161.016 81.1212 160.941 81.1869 160.843C81.4497 160.453 81.3829 159.909 81.0312 159.534C80.6714 159.148 80.3341 158.746 79.9855 158.352ZM80.5818 155.323C79.9524 155.839 79.3455 156.34 78.7385 156.84C77.9422 156.055 77.1338 154.4 77.216 153.733C78.4544 153.999 79.5646 154.56 80.5818 155.323Z" fill="#FF4B00"/>
<rect x="257.035" y="180.393" width="107.31" height="149.03" rx="15.1433" transform="rotate(141.167 257.035 180.393)" fill="white"/>
<rect x="257.035" y="180.393" width="107.31" height="149.03" rx="15.1433" transform="rotate(141.167 257.035 180.393)" fill="white"/>
<rect x="257.035" y="180.393" width="107.31" height="149.03" rx="15.1433" transform="rotate(141.167 257.035 180.393)" stroke="#FF4B00" stroke-width="2.75334"/>
<path d="M230.737 166.471L226.404 165.894L226.921 170.045" stroke="#FF4B00" stroke-width="8.26001" stroke-linecap="round"/>
<path d="M111.523 142.568L110.639 146.848L106.891 144.991" stroke="#FF4B00" stroke-width="5.50667" stroke-linecap="round"/>
<path d="M229.689 173.772C229.725 173.806 229.761 173.84 229.815 173.891C229.9 173.801 230.004 173.728 230.089 173.638C231.097 172.682 232.089 171.744 233.116 170.806C233.252 170.662 233.25 170.592 233.141 170.454C232.47 169.613 231.782 168.79 231.146 167.948C230.601 167.227 230.613 166.385 231.053 165.777C231.526 165.099 232.326 164.867 233.192 165.142C233.722 165.303 234.186 165.606 234.565 165.999C236.821 168.445 238.506 170.486 239.782 173.642C240.742 176.123 242.337 180.708 240.206 182.956C237.837 185.456 233.05 182.797 231.007 181.099C229.95 180.233 229.065 179.257 228.179 178.247C227.545 177.51 226.912 176.773 226.296 176.019C225.625 175.178 225.143 174.209 224.748 173.185C224.467 172.509 224.624 171.839 225.068 171.371C225.204 171.227 225.358 171.101 225.549 171.008C226.31 170.637 227.263 170.892 227.844 171.613C228.442 172.35 229.074 173.052 229.689 173.772ZM235.237 173.466C234.16 174.459 233.116 175.416 232.072 176.372C233.272 177.988 236.021 179.843 237.231 179.863C237.065 177.589 236.343 175.469 235.237 173.466Z" fill="#FF4B00"/>
<path d="M103.56 134.155C103.548 134.13 103.537 134.104 103.52 134.067C103.583 134.039 103.64 133.998 103.703 133.97C104.389 133.616 105.063 133.268 105.743 132.901C105.844 132.856 105.88 132.87 105.932 132.952C106.25 133.458 106.556 133.97 106.881 134.458C107.159 134.876 107.603 135.024 108.002 134.905C108.445 134.781 108.713 134.404 108.728 133.9C108.74 133.592 108.666 133.293 108.53 133.023C107.66 131.391 106.899 130.133 105.478 128.885C104.353 127.927 102.24 126.25 100.671 126.956C98.9255 127.74 99.4427 130.738 99.9587 132.121C100.219 132.834 100.568 133.477 100.936 134.127C101.206 134.594 101.477 135.061 101.759 135.522C102.077 136.028 102.497 136.459 102.962 136.854C103.265 137.125 103.645 137.165 103.971 137.018C104.072 136.973 104.167 136.916 104.25 136.833C104.584 136.501 104.625 135.955 104.354 135.518C104.076 135.069 103.824 134.609 103.56 134.155ZM104.737 131.301C104.019 131.684 103.326 132.056 102.633 132.428C102.005 131.503 101.537 129.721 101.748 129.083C102.91 129.587 103.889 130.354 104.737 131.301Z" fill="#FF4B00"/>
<rect x="271.468" y="191.182" width="107.31" height="149.03" rx="15.1433" transform="rotate(152.035 271.468 191.182)" fill="white"/>
<rect x="271.468" y="191.182" width="107.31" height="149.03" rx="15.1433" transform="rotate(152.035 271.468 191.182)" fill="white"/>
<rect x="271.468" y="191.182" width="107.31" height="149.03" rx="15.1433" transform="rotate(152.035 271.468 191.182)" stroke="#FF4B00" stroke-width="2.75334"/>
<path d="M248.266 172.552L244.12 171.168L243.845 175.342" stroke="#FF4B00" stroke-width="8.26001" stroke-linecap="round"/>
<path d="M136.494 124.551L134.818 128.588L131.487 126.057" stroke="#FF4B00" stroke-width="5.50667" stroke-linecap="round"/>
<path d="M245.86 179.524C245.889 179.564 245.918 179.605 245.961 179.665C246.062 179.593 246.177 179.541 246.278 179.469C247.449 178.72 248.599 177.986 249.785 177.257C249.946 177.142 249.957 177.072 249.876 176.917C249.376 175.965 248.855 175.027 248.389 174.08C247.99 173.269 248.161 172.444 248.707 171.93C249.299 171.353 250.129 171.276 250.927 171.709C251.418 171.968 251.816 172.353 252.114 172.81C253.869 175.638 255.138 177.96 255.797 181.3C256.272 183.917 256.974 188.721 254.457 190.527C251.659 192.535 247.46 189.021 245.773 186.968C244.898 185.918 244.213 184.794 243.533 183.634C243.05 182.791 242.567 181.948 242.105 181.091C241.604 180.138 241.314 179.096 241.118 178.016C240.97 177.3 241.251 176.671 241.774 176.295C241.935 176.18 242.111 176.084 242.315 176.029C243.133 175.808 244.021 176.239 244.455 177.056C244.903 177.893 245.392 178.701 245.86 179.524ZM251.367 180.27C250.121 181.042 248.916 181.785 247.71 182.527C248.584 184.34 250.934 186.68 252.119 186.928C252.385 184.663 252.074 182.446 251.367 180.27Z" fill="#FF4B00"/>
<path d="M129.447 115.556C129.44 115.53 129.434 115.503 129.424 115.463C129.491 115.447 129.555 115.417 129.622 115.402C130.363 115.184 131.09 114.969 131.827 114.737C131.935 114.712 131.968 114.732 132.003 114.823C132.22 115.38 132.424 115.94 132.651 116.48C132.846 116.944 133.253 117.172 133.668 117.131C134.126 117.093 134.46 116.773 134.57 116.28C134.64 115.981 134.624 115.673 134.541 115.382C133.995 113.615 133.484 112.237 132.324 110.743C131.399 109.59 129.641 107.545 127.967 107.942C126.105 108.383 126.048 111.424 126.294 112.88C126.415 113.629 126.637 114.327 126.875 115.034C127.052 115.544 127.23 116.053 127.421 116.56C127.638 117.117 127.969 117.619 128.35 118.094C128.597 118.418 128.963 118.529 129.311 118.446C129.418 118.421 129.522 118.382 129.62 118.317C130.01 118.054 130.154 117.525 129.969 117.045C129.782 116.552 129.621 116.053 129.447 115.556ZM131.141 112.976C130.363 113.217 129.613 113.451 128.862 113.686C128.42 112.659 128.296 110.821 128.623 110.234C129.67 110.948 130.486 111.886 131.141 112.976Z" fill="#FF4B00"/>
<rect x="138.606" y="91.0348" width="107.31" height="149.03" rx="15.1433" transform="rotate(-19.1569 138.606 91.0348)" fill="white"/>
<rect x="138.606" y="91.0348" width="107.31" height="149.03" rx="15.1433" transform="rotate(-19.1569 138.606 91.0348)" fill="white"/>
<rect x="138.606" y="91.0348" width="107.31" height="149.03" rx="15.1433" transform="rotate(-19.1569 138.606 91.0348)" stroke="#FF4B00" stroke-width="2.75334"/>
<path d="M206.156 140.127L214.788 146.737L218.814 137.142" stroke="#FF4B00" stroke-width="13.7667" stroke-linecap="round"/>
<path d="M158.185 112.315L162.07 114.317L162.982 110.234" stroke="#FF4B00" stroke-width="5.50667" stroke-linecap="round"/>
<path d="M261.203 177.654L263.477 173.922L266.381 176.932" stroke="#FF4B00" stroke-width="5.50667" stroke-linecap="round"/>
<path d="M157.465 99.3196C157.453 99.295 157.44 99.2705 157.422 99.2336C157.36 99.2647 157.293 99.2835 157.231 99.3146C156.525 99.626 155.831 99.9312 155.118 100.23C155.02 100.28 155.008 100.317 155.039 100.409C155.233 100.975 155.439 101.534 155.614 102.093C155.764 102.573 155.6 103.011 155.256 103.246C154.882 103.513 154.42 103.485 154.019 103.179C153.771 102.995 153.585 102.75 153.461 102.474C152.738 100.772 152.239 99.3891 152.161 97.4994C152.123 96.022 152.146 93.3252 153.682 92.5479C155.389 91.6834 157.395 93.9697 158.147 95.2404C158.538 95.891 158.818 96.5668 159.093 97.2611C159.286 97.765 159.479 98.2689 159.661 98.779C159.854 99.3444 159.925 99.9413 159.94 100.551C159.961 100.957 159.753 101.278 159.434 101.44C159.336 101.49 159.231 101.527 159.114 101.54C158.647 101.592 158.196 101.28 158.027 100.794C157.852 100.297 157.652 99.8112 157.465 99.3196ZM154.506 98.4418C155.255 98.1241 155.98 97.8187 156.705 97.5134C156.379 96.4437 155.288 94.9593 154.659 94.7224C154.321 95.9431 154.302 97.1869 154.506 98.4418Z" fill="#FF4B00"/>
<path d="M267.373 187.516C267.375 187.543 267.377 187.571 267.38 187.612C267.312 187.617 267.244 187.636 267.176 187.642C266.41 187.744 265.659 187.845 264.895 187.961C264.785 187.969 264.755 187.944 264.734 187.849C264.605 187.265 264.489 186.681 264.348 186.112C264.226 185.624 263.858 185.336 263.442 185.314C262.984 185.281 262.604 185.546 262.421 186.016C262.305 186.301 262.274 186.608 262.312 186.908C262.581 188.738 262.874 190.178 263.792 191.832C264.529 193.113 265.953 195.403 267.669 195.267C269.576 195.116 270.099 192.12 270.079 190.643C270.074 189.884 269.961 189.161 269.834 188.426C269.737 187.895 269.639 187.364 269.528 186.834C269.399 186.251 269.149 185.704 268.845 185.176C268.651 184.818 268.306 184.652 267.949 184.681C267.839 184.689 267.731 184.712 267.624 184.762C267.198 184.961 266.975 185.462 267.084 185.964C267.194 186.48 267.277 186.999 267.373 187.516ZM265.303 189.806C266.108 189.687 266.886 189.571 267.664 189.454C267.943 190.536 267.785 192.372 267.371 192.902C266.446 192.036 265.783 190.984 265.303 189.806Z" fill="#FF4B00"/>
</g>
<defs>
<filter id="filter0_d_7_169" x="47.6819" y="48.5702" width="252.447" height="221.805" filterUnits="userSpaceOnUse" color-interpolation-filters="sRGB">
<feFlood flood-opacity="0" result="BackgroundImageFix"/>
<feColorMatrix in="SourceAlpha" type="matrix" values="0 0 0 0 0 0 0 0 0 0 0 0 0 0 0 0 0 0 127 0" result="hardAlpha"/>
<feOffset dy="4"/>
<feGaussianBlur stdDeviation="7"/>
<feComposite in2="hardAlpha" operator="out"/>
<feColorMatrix type="matrix" values="0 0 0 0 0 0 0 0 0 0 0 0 0 0 0 0 0 0 0.25 0"/>
<feBlend mode="normal" in2="BackgroundImageFix" result="effect1_dropShadow_7_169"/>
<feBlend mode="normal" in="SourceGraphic" in2="effect1_dropShadow_7_169" result="shape"/>
</filter>
</defs>
</svg>
