<svg width="236" height="238" viewBox="0 0 236 238" fill="none" xmlns="http://www.w3.org/2000/svg">
<circle cx="117.959" cy="119.853" r="117.959" fill="#4559B2"/>
<ellipse cx="102.449" cy="65.1362" rx="23.4099" ry="12.6774" transform="rotate(106.951 102.449 65.1362)" fill="#FF97D6" fill-opacity="0.7"/>
<ellipse cx="115.217" cy="70.2228" rx="23.4099" ry="12.6774" transform="rotate(121.339 115.217 70.2228)" fill="#FF97D6" fill-opacity="0.7"/>
<ellipse cx="166.11" cy="85.4233" rx="5.30297" ry="5.29184" transform="rotate(106.951 166.11 85.4233)" fill="#FF97D6" fill-opacity="0.5"/>
<ellipse cx="29.5905" cy="14.7438" rx="29.5905" ry="14.7438" transform="matrix(-0.414276 0.910151 -0.942579 -0.333984 122.817 119.277)" fill="#FF97D6" fill-opacity="0.5"/>
<ellipse cx="29.4514" cy="14.8014" rx="29.4514" ry="14.8014" transform="matrix(0.361247 0.93247 -0.957409 0.288734 160.732 114.737)" fill="#FF97D6" fill-opacity="0.5"/>
<ellipse cx="157.359" cy="113.17" rx="23.4099" ry="12.6774" transform="rotate(106.951 157.359 113.17)" fill="#FF97D6" fill-opacity="0.5"/>
<rect x="68.3755" y="75.8384" width="5.15721" height="3.43814" rx="1.71907" transform="rotate(15.5073 68.3755 75.8384)" fill="#FF97D6"/>
<rect x="167.552" y="89.1558" width="5.15721" height="3.43814" rx="1.71907" transform="rotate(109.951 167.552 89.1558)" fill="#FF97D6"/>
<ellipse cx="66.9766" cy="76.6211" rx="2.5933" ry="4.51319" transform="rotate(17.3203 66.9766 76.6211)" fill="#FF97D6"/>
<ellipse cx="110.199" cy="104.033" rx="17.4772" ry="11.738" transform="rotate(71.0274 110.199 104.033)" fill="#FF97D6" fill-opacity="0.5"/>
<ellipse cx="92.1505" cy="85.4235" rx="23.4099" ry="12.6774" transform="rotate(12.1511 92.1505 85.4235)" fill="#FF97D6" fill-opacity="0.6"/>
<ellipse cx="26.7411" cy="12.421" rx="26.7411" ry="12.421" transform="matrix(0.515906 0.856645 -0.905437 0.424482 164.162 118.616)" fill="#FF97D6" fill-opacity="0.7"/>
<ellipse cx="132.511" cy="126.767" rx="25.9535" ry="14.0549" transform="rotate(-176.485 132.511 126.767)" fill="#FF97D6" fill-opacity="0.7"/>
<ellipse cx="29.4594" cy="14.0634" rx="29.4594" ry="14.0634" transform="matrix(-0.364539 0.931188 -0.956568 -0.29151 128.342 122.936)" fill="#FF97D6" fill-opacity="0.7"/>
<path d="M86.1468 74.0513C80.7944 74.0513 75.0371 74.9848 73.9127 77.1098C73.1036 78.639 82.3236 75.5805 87.6761 75.5805C93.0285 75.5805 91.4992 74.0513 86.1468 74.0513Z" fill="white"/>
<path d="M115.794 54.868C112.184 58.8189 108.989 63.6985 109.799 65.9621C110.382 67.591 114.344 58.7217 117.955 54.7708C121.566 50.8198 119.405 50.917 115.794 54.868Z" fill="white"/>
<path d="M102.031 48.7518C98.4206 52.7027 95.2256 57.5823 96.0357 59.8458C96.6187 61.4748 100.581 52.6055 104.192 48.6546C107.803 44.7036 105.642 44.8008 102.031 48.7518Z" fill="white"/>
<path d="M103.559 129.802C99.9484 133.753 96.7535 138.632 97.5636 140.896C98.1466 142.525 102.109 133.655 105.72 129.704C109.331 125.753 107.17 125.851 103.559 129.802Z" fill="white"/>
<path d="M152.901 137.185C154.055 141.796 156.207 146.579 158.525 147.143C160.193 147.55 155.219 140.188 154.065 135.576C152.911 130.965 151.747 132.573 152.901 137.185Z" fill="white"/>
<path d="M133.911 115.627C128.607 114.91 122.777 115.063 121.378 117.019C120.371 118.426 129.918 116.63 135.222 117.347C140.526 118.065 139.216 116.344 133.911 115.627Z" fill="white"/>
<path d="M155.63 96.1307C151.986 100.051 148.75 104.903 149.541 107.173C150.11 108.807 154.147 99.972 157.792 96.0519C161.436 92.1318 159.275 92.2106 155.63 96.1307Z" fill="white"/>
<path d="M165.371 81.9561C164.147 82.0552 162.906 83.0923 162.82 85.2312C162.759 86.7705 164.62 83.5511 165.844 83.452C167.068 83.3528 166.595 81.8569 165.371 81.9561Z" fill="white"/>
<path d="M94.3833 123.685C90.7724 127.636 87.5774 132.516 88.3875 134.779C88.9705 136.408 92.9329 127.539 96.5438 123.588C100.155 119.637 97.9941 119.734 94.3833 123.685Z" fill="white"/>
<path d="M40.2304 107.36C40.7676 106.607 41.9482 106.883 42.0953 107.797L43.8913 118.96C43.9549 119.355 44.2405 119.678 44.6248 119.79L55.9194 123.067C56.8423 123.335 56.9339 124.606 56.0589 125.004L45.6898 129.711C45.3053 129.886 45.0654 130.277 45.0836 130.699L45.5626 141.791C45.6031 142.729 44.4727 143.232 43.8027 142.573L35.4481 134.359C35.1721 134.088 34.7676 133.993 34.3997 134.114L23.2678 137.767C22.375 138.06 21.5852 137.108 22.0381 136.285L27.3895 126.558C27.5931 126.188 27.5514 125.731 27.2843 125.404L20.0813 116.584C19.4734 115.839 20.1198 114.74 21.0657 114.91L32.6416 116.985C33.0355 117.056 33.4348 116.893 33.6671 116.567L40.2304 107.36Z" fill="#EFD65C"/>
<path d="M49.4423 72.3896C49.7667 71.9549 50.4532 72.1156 50.551 72.649L51.465 77.6357C51.5075 77.8678 51.6778 78.0557 51.9046 78.1207L57.1482 79.6247C57.712 79.7864 57.7581 80.5676 57.2172 80.7944L52.5355 82.758C52.2923 82.86 52.1401 83.1044 52.1557 83.3676L52.442 88.188C52.4752 88.7476 51.8085 89.0614 51.3985 88.6791L47.4035 84.9547C47.2423 84.8044 47.0133 84.7508 46.8021 84.814L41.5693 86.3787C41.0322 86.5393 40.574 85.9623 40.8521 85.4756L43.2478 81.2828C43.3786 81.0539 43.3506 80.7673 43.178 80.568L39.8538 76.7308C39.4698 76.2875 39.8577 75.6079 40.4347 75.7132L45.8012 76.6923C46.0332 76.7346 46.2693 76.6418 46.4104 76.4527L49.4423 72.3896Z" fill="#EFD65C"/>
<path d="M25.9849 85.9834C26.2023 85.7064 26.6442 85.8098 26.716 86.1545L27.37 89.2927C27.4014 89.4436 27.5141 89.5646 27.6624 89.6066L31.1027 90.5819C31.4857 90.6904 31.5098 91.224 31.1383 91.3667L28.1503 92.5147C27.9793 92.5804 27.8718 92.7506 27.886 92.9332L28.1147 95.8816C28.1435 96.2524 27.7068 96.4702 27.428 96.2241L24.7319 93.8452C24.6277 93.7533 24.4843 93.7197 24.3502 93.7559L20.8784 94.6913C20.5193 94.788 20.2247 94.3991 20.415 94.0796L21.9284 91.5389C22.0221 91.3816 22.0013 91.1813 21.8773 91.0466L19.709 88.6919C19.4394 88.3991 19.6978 87.9317 20.0891 88.0043L23.605 88.657C23.7565 88.6852 23.9112 88.6268 24.0063 88.5055L25.9849 85.9834Z" fill="#EFD65C"/>
<rect x="44.5811" y="107.291" width="10.719" height="143.67" rx="5.35951" transform="rotate(-55.1364 44.5811 107.291)" fill="#3D3B3B"/>
<rect x="138.216" y="172.543" width="11.0495" height="29.6146" rx="5.52473" transform="rotate(-55.1364 138.216 172.543)" fill="#EBE8D5"/>
<rect x="44.5811" y="107.288" width="10.7208" height="29.263" rx="5.36038" transform="rotate(-55.1364 44.5811 107.288)" fill="#EBE8D5"/>
<path d="M74.3908 37.1071C73.6781 36.0512 72.8459 35.8445 71.8941 36.487C71.3588 36.8483 71.0427 37.2781 70.9461 37.7763C70.8643 38.2644 71.0091 38.7836 71.3805 39.3338C71.6214 39.6907 71.9144 40.0125 72.2594 40.2992C72.6193 40.5758 72.9866 40.8473 73.3613 41.1139C73.7409 41.3556 74.1082 41.6271 74.4633 41.9287C74.8232 42.2053 75.1336 42.5369 75.3946 42.9235C75.7258 43.4143 76.0225 43.95 76.2846 44.5307C76.5568 45.1263 76.7045 45.7301 76.728 46.342C76.7663 46.9439 76.6304 47.5443 76.3203 48.1433C76.0352 48.747 75.4985 49.3149 74.7103 49.8469C73.937 50.3689 73.1823 50.6619 72.4462 50.7258C71.725 50.7797 71.0401 50.6792 70.3918 50.4241C69.7534 50.184 69.1567 49.8291 68.6017 49.3596C68.0715 48.8948 67.6133 48.3924 67.227 47.8522L67.1216 47.696C66.7703 47.1755 66.5132 46.6023 66.3504 45.9762C66.1924 45.3252 66.0442 44.6568 65.9059 43.9708C65.7576 43.27 65.5769 42.5694 65.3638 41.869C65.1657 41.1585 64.8508 40.4836 64.4192 39.8441C64.0377 39.279 63.592 38.779 63.0819 38.344C62.5618 37.8941 62.0318 37.4618 61.492 37.0469C60.9522 36.632 60.4222 36.1996 59.9021 35.7497C59.382 35.2999 58.9211 34.7775 58.5196 34.1827C58.1984 33.7068 57.9519 33.2454 57.7801 32.7986C57.6233 32.3416 57.5809 31.894 57.653 31.4557C57.7151 31.0025 57.9041 30.561 58.2201 30.1312C58.551 29.6914 59.0511 29.2457 59.7203 28.794C60.2556 28.4326 60.7971 28.2727 61.3447 28.3144C61.8972 28.3311 62.3761 28.5274 62.7813 28.9033C63.1215 29.2148 63.4471 29.6011 63.7583 30.0621C64.0743 30.4982 64.3805 30.9518 64.6768 31.4228C64.9631 31.879 65.2642 32.3251 65.5802 32.7612C65.8862 33.1824 66.2067 33.5289 66.5416 33.8007C66.8814 34.0475 67.248 34.1897 67.6414 34.2273C68.0247 34.25 68.4468 34.1057 68.9078 33.7945C69.4283 33.4432 69.7419 33.0259 69.8486 32.5426C69.9601 32.0344 69.8553 31.5423 69.5341 31.0664C69.3835 30.8434 69.1982 30.633 68.9781 30.4352C68.7479 30.2225 68.5003 30 68.2353 29.7676C67.9851 29.5252 67.7198 29.2605 67.4395 28.9735C67.1592 28.6865 66.8885 28.3497 66.6275 27.963C65.965 26.9815 65.6613 26.0826 65.7163 25.2662C65.7862 24.4397 66.2152 23.7605 67.0034 23.2285C68.0295 22.5358 69.0138 22.3585 69.9562 22.6964C70.9035 23.0095 71.8088 23.8055 72.6721 25.0844C72.8929 25.4115 73.1115 25.7835 73.3279 26.2003C73.5591 26.607 73.7805 27.0312 73.992 27.4728C74.2185 27.9045 74.4399 28.3287 74.6562 28.7454C74.8875 29.1522 75.1085 29.5117 75.3193 29.824C75.7208 30.4188 76.1465 30.8891 76.5963 31.2349C77.0462 31.5806 77.5236 31.9511 78.0284 32.3463C78.4433 32.6723 78.9004 32.9807 79.3997 33.2715C79.9139 33.5521 80.4283 33.8652 80.9428 34.2106C81.4622 34.531 81.9669 34.8939 82.4569 35.2991C82.9368 35.6895 83.3675 36.1672 83.749 36.7323C84.1906 37.3867 84.5254 38.059 84.7533 38.7494C84.9812 39.4398 85.0771 40.111 85.0411 40.7631C85.0151 41.4301 84.842 42.0556 84.5219 42.6397C84.2118 43.2386 83.7222 43.7639 83.053 44.2156C82.3392 44.6975 81.6765 44.9824 81.0649 45.0705C80.4783 45.1635 79.9306 45.1218 79.422 44.9456C78.9283 44.7594 78.4688 44.4634 78.0435 44.0578C77.6431 43.657 77.2773 43.2113 76.946 42.7205L76.8406 42.5644C76.5395 42.1183 76.293 41.6569 76.1011 41.1803C75.8993 40.6888 75.7149 40.2071 75.5479 39.7354C75.371 39.2487 75.1966 38.7819 75.0248 38.3351C74.8531 37.8882 74.6417 37.4789 74.3908 37.1071Z" fill="#88DFD5"/>
<path d="M87.792 15.4021C88.3326 15.2086 88.8888 14.9523 89.4606 14.6333C90.0494 14.3082 90.69 14.0217 91.3826 13.7738C92.565 13.3505 93.5101 13.3552 94.2176 13.788C94.936 14.1978 95.4645 14.8757 95.8031 15.8217C95.9906 16.3453 96.0712 16.7834 96.0449 17.1358C96.0294 17.4653 95.9476 17.7423 95.7993 17.9669C95.6618 18.1686 95.487 18.3455 95.2747 18.4977C95.0732 18.627 94.8832 18.7617 94.7047 18.9019C94.537 19.0191 94.4068 19.161 94.314 19.3276C94.232 19.4713 94.2394 19.6782 94.3361 19.9485C94.451 20.2695 94.6715 20.6193 94.9977 20.998C95.3178 21.3599 95.6971 21.8339 96.1356 22.4202C96.585 22.9834 97.0604 23.6994 97.5619 24.568C98.0634 25.4366 98.547 26.5213 99.0126 27.822C100.059 30.7443 100.169 33.1822 99.3437 35.1355C98.5184 37.0889 96.7713 38.5433 94.1023 39.4987C91.8725 40.2968 90.0073 40.3833 88.5067 39.758C87.0121 39.1496 85.9081 37.8487 85.1946 35.8555C84.7531 34.6223 84.6021 33.5616 84.7415 32.6732C84.8748 31.7679 85.2708 31.1974 85.9296 30.9616C86.1999 30.8648 86.4238 30.8514 86.6012 30.9212C86.7895 30.9682 86.9755 31.035 87.159 31.1218C87.3364 31.1917 87.5308 31.2555 87.742 31.3133C87.9472 31.3541 88.2019 31.3202 88.5059 31.2113C88.9451 31.0541 89.2991 30.7654 89.568 30.3452C89.8477 29.9021 90.0434 29.3842 90.1552 28.7915C90.261 28.1819 90.2834 27.526 90.2226 26.8236C90.1617 26.1212 90.0043 25.4153 89.7504 24.7058C89.4782 23.9457 89.1525 23.3286 88.7732 22.8546C88.3879 22.3636 87.987 22.0688 87.5705 21.9702C87.3653 21.9293 87.1469 21.9312 86.9152 21.9761C86.6835 22.0209 86.424 22.0947 86.1369 22.1975C85.7653 22.3305 85.3743 22.4895 84.9641 22.6745C84.5479 22.8425 84.1195 22.9768 83.6791 23.0773C83.2555 23.1717 82.8277 23.201 82.3956 23.1651C81.9743 23.1063 81.5675 22.928 81.175 22.6302C80.6268 22.2166 80.2408 21.6973 80.0171 21.0723C79.7087 20.2108 79.7479 19.4154 80.1348 18.6862C80.5386 17.9509 81.1966 17.42 82.1088 17.0934C82.9027 16.8092 83.7992 16.5455 84.7984 16.3022C85.7975 16.0588 86.7954 15.7588 87.792 15.4021Z" fill="#F96B4F"/>
<path d="M106.348 10.4241C107.578 10.2826 108.724 10.1959 109.785 10.164C110.847 10.1321 111.776 10.1968 112.571 10.3581C113.382 10.4996 114.036 10.7674 114.533 11.1618C115.03 11.5561 115.318 12.1008 115.398 12.796C115.474 13.4555 115.411 14.0045 115.208 14.4432C115.022 14.862 114.737 15.2109 114.354 15.4898C113.988 15.7666 113.553 15.9882 113.048 16.1547C112.562 16.3191 112.056 16.4766 111.532 16.6273C111.025 16.7759 110.528 16.9324 110.042 17.0967C109.555 17.2611 109.138 17.4807 108.79 17.7555C108.64 17.8631 108.495 18.0152 108.355 18.2119C108.213 18.3908 108.153 18.5783 108.176 18.7744C108.198 18.9704 108.27 19.1247 108.392 19.2371C108.529 19.3297 108.681 19.4024 108.85 19.4553C109.017 19.4903 109.19 19.5064 109.37 19.5038C109.568 19.499 109.739 19.4884 109.881 19.472C110.345 19.4187 110.842 19.3434 111.373 19.2462C111.903 19.1491 112.405 19.1907 112.877 19.3711C113.161 19.4829 113.469 19.6551 113.803 19.8876C114.155 20.118 114.351 20.4115 114.392 20.768C114.435 21.1423 114.326 21.4528 114.066 21.6995C113.823 21.9442 113.496 22.1624 113.085 22.3542C112.689 22.5262 112.257 22.6933 111.788 22.8556C111.317 23.0002 110.875 23.1594 110.461 23.3334C110.064 23.4875 109.732 23.6701 109.468 23.8812C109.221 24.0902 109.116 24.3551 109.153 24.676C109.216 25.2285 109.458 25.5981 109.876 25.7847C110.293 25.9534 110.733 26.0111 111.197 25.9578C111.625 25.9086 112.039 25.8247 112.441 25.7062C112.861 25.5857 113.271 25.4662 113.673 25.3477C114.073 25.2114 114.474 25.093 114.878 24.9923C115.298 24.8718 115.722 24.7869 116.149 24.7377C116.844 24.6577 117.419 24.7089 117.874 24.8914C118.344 25.054 118.726 25.317 119.021 25.6804C119.316 26.0438 119.538 26.4878 119.689 27.0122C119.838 27.5189 119.948 28.0841 120.02 28.708C120.19 30.1874 119.987 31.4028 119.41 32.3541C118.851 33.3034 118.072 34.0702 117.074 34.6547C116.093 35.2371 114.987 35.6625 113.753 35.9309C112.54 36.215 111.354 36.4237 110.195 36.5571C109.179 36.674 108.189 36.6977 107.223 36.6282C106.276 36.5566 105.412 36.349 104.632 36.0053C103.87 35.6596 103.233 35.1459 102.721 34.4644C102.211 33.8006 101.893 32.9162 101.766 31.8111C101.677 31.0447 101.732 30.3431 101.93 29.7063C102.125 29.0517 102.341 28.4128 102.576 27.7897C102.829 27.1646 103.054 26.5247 103.249 25.8701C103.443 25.1977 103.493 24.4604 103.401 23.6583C103.296 22.7493 103.114 21.9486 102.854 21.2561C102.611 20.5616 102.356 19.9137 102.088 19.3124C101.82 18.7111 101.562 18.1177 101.314 17.5322C101.082 16.9268 100.926 16.2766 100.846 15.5814C100.752 14.7615 100.842 14.0558 101.117 13.4643C101.408 12.8529 101.818 12.3361 102.347 11.914C102.877 11.4919 103.489 11.1596 104.183 10.9171C104.895 10.6726 105.617 10.5082 106.348 10.4241Z" fill="#EFD65C"/>
<path d="M133.233 24.5248C133.208 24.7206 133.346 24.9911 133.646 25.3362C133.964 25.6836 134.357 26.0855 134.824 26.542C135.293 26.9807 135.801 27.4695 136.349 28.0084C136.913 28.5496 137.422 29.1107 137.873 29.6918C138.324 30.273 138.683 30.8696 138.95 31.4818C139.235 32.0962 139.339 32.706 139.263 33.3112C139.191 33.8809 138.982 34.3971 138.634 34.8597C138.302 35.3424 137.889 35.7516 137.395 36.0874C136.918 36.4253 136.39 36.6753 135.809 36.8374C135.246 37.0017 134.697 37.0503 134.163 36.9832C133.825 36.9407 133.481 36.8704 133.132 36.7723C132.798 36.6942 132.479 36.5727 132.174 36.4078C131.887 36.2451 131.623 36.0402 131.383 35.7931C131.161 35.5481 130.982 35.2454 130.846 34.8847C130.722 34.5798 130.632 34.1435 130.577 33.576C130.539 33.0108 130.507 32.401 130.481 31.7467C130.457 31.0746 130.435 30.3847 130.416 29.677C130.396 28.9693 130.341 28.3295 130.25 27.7575C130.179 27.1699 130.059 26.6847 129.89 26.3018C129.739 25.9212 129.512 25.7118 129.21 25.6738C128.907 25.6358 128.636 25.7102 128.395 25.8969C128.155 26.0837 128.015 26.3284 127.977 26.6311C127.915 27.1295 127.971 27.6158 128.147 28.0899C128.324 28.5463 128.52 29.0048 128.733 29.4656C128.949 29.9086 129.144 30.3672 129.32 30.8413C129.495 31.3154 129.55 31.8195 129.483 32.3536C129.404 32.9766 129.18 33.5362 128.811 34.0322C128.456 34.5483 128.014 34.9719 127.484 35.3032C126.972 35.6367 126.4 35.8722 125.768 36.0098C125.152 36.1674 124.55 36.2093 123.962 36.1354C122.627 35.9677 121.59 35.5119 120.852 34.7681C120.111 34.0422 119.807 33.0094 119.939 31.6698L119.966 31.4562C120.04 30.8687 120.201 30.3102 120.448 29.7807C120.715 29.2357 120.991 28.7006 121.273 28.1756C121.574 27.6528 121.848 27.1267 122.096 26.5972C122.363 26.0522 122.534 25.4859 122.608 24.8985C122.706 24.1152 122.712 23.3474 122.626 22.5952C122.559 21.8274 122.465 21.0651 122.343 20.3084C122.224 19.5338 122.122 18.7616 122.038 17.9915C121.972 17.2237 121.988 16.4482 122.086 15.6649C122.198 14.7748 122.478 13.9872 122.925 13.302C123.375 12.5991 123.928 12.0175 124.582 11.5573C125.237 11.097 125.965 10.7726 126.766 10.5839C127.587 10.3797 128.425 10.3313 129.28 10.4387C130.401 10.5796 131.5 10.8985 132.577 11.3955C133.674 11.8769 134.625 12.5118 135.43 13.3001C136.237 14.0706 136.855 14.9801 137.284 16.0285C137.731 17.0792 137.874 18.2454 137.713 19.5271C137.592 20.4884 137.298 21.2471 136.83 21.8032C136.364 22.3414 135.867 22.7762 135.337 23.1074C134.809 23.4209 134.334 23.6776 133.911 23.8776C133.49 24.0598 133.264 24.2755 133.233 24.5248ZM128.209 19.1739C128.182 19.3875 128.158 19.6556 128.135 19.9783C128.133 20.2854 128.158 20.587 128.211 20.883C128.267 21.1612 128.371 21.4094 128.525 21.6276C128.678 21.8458 128.906 21.9739 129.209 22.0119C129.44 22.041 129.682 21.9899 129.933 21.8588C130.187 21.7099 130.428 21.5231 130.655 21.2985C130.882 21.0739 131.076 20.827 131.236 20.5578C131.396 20.2886 131.491 20.0383 131.52 19.8069C131.552 19.5577 131.528 19.3106 131.451 19.0658C131.391 18.8232 131.283 18.6017 131.127 18.4013C130.989 18.2031 130.811 18.0361 130.593 17.9002C130.393 17.7666 130.177 17.6852 129.946 17.6561C129.483 17.598 129.086 17.7379 128.754 18.076C128.442 18.3984 128.261 18.7644 128.209 19.1739Z" fill="#FAA7D5"/>
<path d="M155.988 18.3539C156.473 18.5445 157.004 18.7631 157.581 19.0098C158.176 19.2631 158.76 19.5414 159.335 19.8448C159.916 20.1315 160.465 20.4533 160.98 20.8103C161.495 21.1673 161.932 21.5514 162.29 21.9625C162.723 22.4799 162.981 22.9766 163.063 23.4526C163.169 23.9184 163.097 24.4686 162.847 25.103C162.565 25.8209 162.19 26.3577 161.722 26.7134C161.271 27.0757 160.653 27.1025 159.868 26.7936C159.501 26.649 159.195 26.4708 158.951 26.2589C158.723 26.0536 158.515 25.8465 158.327 25.6376C158.163 25.4186 157.992 25.2163 157.814 25.0307C157.653 24.8517 157.456 24.7162 157.222 24.6242C157.022 24.5453 156.826 24.5547 156.633 24.6524C156.463 24.74 156.294 24.8759 156.125 25.06C155.98 25.2341 155.841 25.4398 155.709 25.677C155.594 25.9209 155.493 26.1513 155.408 26.3684C155.014 27.3701 154.788 28.4092 154.73 29.4856C154.68 30.5454 154.659 31.6267 154.668 32.7295C154.684 33.8155 154.663 34.8968 154.606 35.9733C154.555 37.0331 154.336 38.0555 153.948 39.0405C153.633 39.8418 153.198 40.4806 152.644 40.9567C152.091 41.4329 151.468 41.7662 150.776 41.9566C150.101 42.1535 149.385 42.2091 148.628 42.1233C147.881 42.0608 147.149 41.8883 146.431 41.6057C145.713 41.3231 145.051 40.9469 144.446 40.4771C143.833 40.0241 143.339 39.492 142.963 38.8811C142.586 38.2701 142.349 37.5984 142.252 36.8659C142.171 36.14 142.28 35.3731 142.579 34.5652L142.618 34.465C143.006 33.48 143.534 32.5792 144.203 31.7626C144.888 30.9525 145.598 30.1523 146.334 29.362C147.086 28.5782 147.796 27.778 148.464 26.9613C149.156 26.1346 149.696 25.2287 150.084 24.2437C150.195 23.9599 150.304 23.6844 150.409 23.4173C150.531 23.1567 150.609 22.9081 150.645 22.6713C150.68 22.4346 150.637 22.2249 150.516 22.0423C150.419 21.8496 150.203 21.6876 149.869 21.5561C149.602 21.451 149.332 21.4025 149.058 21.4107C148.785 21.4188 148.497 21.4404 148.194 21.4754C147.915 21.5003 147.63 21.5135 147.34 21.5151C147.05 21.5167 146.755 21.4583 146.454 21.3401C145.753 21.064 145.278 20.6552 145.028 20.1135C144.785 19.5551 144.808 18.9086 145.098 18.174C145.347 17.5396 145.73 17.0827 146.244 16.8033C146.776 16.5305 147.367 16.3774 148.016 16.3438C148.689 16.3001 149.402 16.3495 150.156 16.4919C150.926 16.641 151.672 16.8284 152.393 17.0543C153.12 17.2636 153.801 17.4931 154.436 17.7428C155.07 17.9925 155.588 18.1962 155.988 18.3539Z" fill="#CAE500"/>
<path d="M173.897 28.5426C174.908 29.2565 175.821 29.9552 176.634 30.6389C177.447 31.3226 178.096 31.9895 178.582 32.6396C179.092 33.2853 179.402 33.9208 179.509 34.5459C179.617 35.171 179.469 35.7694 179.066 36.3411C178.683 36.8834 178.27 37.2508 177.827 37.4431C177.409 37.6311 176.964 37.7014 176.492 37.654C176.035 37.617 175.563 37.4924 175.076 37.2804C174.603 37.0786 174.121 36.8592 173.63 36.6222C173.153 36.3954 172.678 36.1812 172.206 35.9795C171.733 35.7778 171.276 35.6635 170.834 35.6369C170.65 35.617 170.44 35.6339 170.205 35.6873C169.98 35.7262 169.811 35.8262 169.697 35.9874C169.583 36.1487 169.534 36.3116 169.549 36.4763C169.59 36.6367 169.656 36.7928 169.746 36.9445C169.847 37.0816 169.966 37.2092 170.102 37.3273C170.253 37.4558 170.387 37.5614 170.504 37.6442C170.885 37.9131 171.306 38.1882 171.766 38.4692C172.227 38.7503 172.573 39.1154 172.805 39.5646C172.942 39.837 173.058 40.1711 173.152 40.5669C173.26 40.973 173.211 41.3226 173.004 41.6158C172.787 41.9236 172.499 42.0828 172.14 42.0931C171.796 42.1139 171.407 42.0587 170.973 41.9277C170.563 41.7923 170.129 41.629 169.671 41.4376C169.224 41.2316 168.788 41.0557 168.364 40.91C167.965 40.76 167.596 40.6756 167.258 40.6566C166.935 40.648 166.68 40.7756 166.494 41.0395C166.173 41.4939 166.107 41.9302 166.295 42.3484C166.493 42.7519 166.783 43.0881 167.164 43.3571C167.516 43.6054 167.881 43.8192 168.259 43.9985C168.652 44.1882 169.038 44.3727 169.417 44.552C169.806 44.7167 170.184 44.896 170.552 45.0899C170.946 45.2796 171.318 45.4986 171.67 45.7469C172.242 46.1503 172.636 46.5715 172.853 47.0104C173.096 47.4449 173.206 47.8959 173.183 48.3632C173.161 48.8305 173.031 49.3099 172.794 49.8014C172.567 50.2783 172.273 50.7732 171.911 51.2863C171.052 52.5029 170.091 53.2738 169.027 53.599C167.978 53.9345 166.886 53.9876 165.752 53.7583C164.633 53.5394 163.524 53.1192 162.426 52.4976C161.331 51.901 160.308 51.2665 159.355 50.594C158.52 50.0043 157.765 49.362 157.092 48.6671C156.433 47.9826 155.927 47.2523 155.574 46.4763C155.236 45.7107 155.103 44.9032 155.176 44.0539C155.238 43.2193 155.59 42.3475 156.231 41.4387C156.676 40.8083 157.184 40.3216 157.756 39.9784C158.338 39.6205 158.924 39.2876 159.515 38.9798C160.12 38.6822 160.713 38.3545 161.295 37.9967C161.888 37.6241 162.417 37.1081 162.882 36.4484C163.41 35.7008 163.807 34.9821 164.075 34.2923C164.356 33.6128 164.598 32.9597 164.799 32.3328C165 31.706 165.203 31.0916 165.408 30.4898C165.638 29.8836 165.955 29.2947 166.358 28.723C166.834 28.0487 167.372 27.5826 167.971 27.3247C168.595 27.0626 169.245 26.9504 169.921 26.9883C170.597 27.0262 171.275 27.1861 171.954 27.468C172.648 27.7602 173.296 28.1184 173.897 28.5426Z" fill="#EFD65C"/>
<path d="M53.4587 175.479C53.9545 175.973 54.2347 176.518 54.2994 177.114C54.3767 177.698 54.3272 178.294 54.1509 178.903C53.9999 179.513 53.7728 180.122 53.4695 180.732C53.179 181.329 52.901 181.887 52.6357 182.408C52.3957 182.929 52.2127 183.392 52.0867 183.798C51.9733 184.192 52.0247 184.496 52.2408 184.712C52.4061 184.876 52.6916 184.907 53.0974 184.805C53.5031 184.703 53.9785 184.543 54.5236 184.326C55.0814 184.097 55.6835 183.861 56.33 183.618C56.9892 183.363 57.6422 183.178 58.289 183.062C58.9612 182.947 59.6018 182.939 60.211 183.039C60.8329 183.152 61.3918 183.456 61.8876 183.949C62.3707 184.431 62.6762 184.925 62.8041 185.432C62.9446 185.926 62.933 186.434 62.7692 186.954C62.6053 187.475 62.3019 188.021 61.8591 188.593C61.4416 189.165 60.9163 189.768 60.2833 190.404C59.8529 190.836 59.4227 191.433 58.993 192.196C58.5886 192.958 58.1462 193.783 57.666 194.672C57.1857 195.561 56.6484 196.469 56.054 197.397C55.4724 198.337 54.7954 199.195 54.0231 199.97C52.9849 201.013 52.0287 201.795 51.1544 202.317C50.28 202.839 49.4751 203.151 48.7395 203.254C48.0039 203.383 47.3314 203.321 46.7219 203.068C46.1251 202.828 45.5724 202.455 45.0639 201.949C44.5427 201.43 44.1482 200.86 43.8805 200.238C43.6255 199.63 43.4974 199.009 43.4961 198.374C43.5075 197.753 43.6457 197.131 43.9109 196.508C44.1887 195.899 44.5999 195.321 45.1443 194.774C45.8786 194.037 46.5498 193.49 47.1581 193.133C47.7663 192.777 48.3366 192.484 48.869 192.254C49.4267 192.025 49.9527 191.789 50.447 191.547C50.9413 191.305 51.448 190.923 51.9671 190.402C52.2583 190.11 52.4353 189.83 52.4982 189.564C52.5738 189.31 52.5353 189.107 52.3828 188.955C52.2429 188.816 52.0145 188.803 51.6976 188.918C51.3934 189.046 51.0385 189.237 50.6331 189.491C50.2403 189.733 49.8159 190.007 49.3598 190.312C48.9037 190.618 48.4475 190.872 47.9912 191.076C47.5602 191.28 47.1418 191.395 46.7359 191.422C46.3427 191.46 46.0062 191.341 45.7265 191.062C45.4468 190.784 45.3193 190.441 45.3438 190.035C45.3683 189.629 45.4689 189.198 45.6456 188.741C45.835 188.271 46.0687 187.794 46.3468 187.312C46.6376 186.842 46.8968 186.404 47.1243 185.997C47.3772 185.591 47.5731 185.241 47.7121 184.949C47.851 184.657 47.8697 184.46 47.768 184.359C47.6408 184.233 47.4758 184.182 47.2729 184.208C47.0826 184.246 46.8798 184.323 46.6644 184.438C46.4616 184.565 46.259 184.718 46.0563 184.896C45.8537 185.074 45.6828 185.233 45.5435 185.372C45.0371 185.881 44.664 186.434 44.4241 187.03C44.197 187.614 43.9952 188.211 43.8189 188.82C43.6552 189.442 43.4598 190.045 43.2327 190.63C43.0182 191.201 42.6641 191.734 42.1703 192.23C41.6765 192.726 41.1382 193.139 40.5553 193.471C39.9597 193.814 39.3257 193.993 38.6534 194.007C37.981 194.047 37.2576 193.896 36.483 193.555C35.7084 193.214 34.8952 192.62 34.0434 191.771C33.4968 191.227 33.1466 190.625 32.993 189.966C32.8521 189.319 32.8445 188.678 32.97 188.044C33.1083 187.422 33.3354 186.825 33.6514 186.253C33.9801 185.694 34.3407 185.218 34.7332 184.824C35.6574 183.896 36.6136 183.075 37.6017 182.363C38.6152 181.65 39.6413 180.951 40.6802 180.263C41.7191 179.576 42.758 178.851 43.7967 178.087C44.8608 177.324 45.9056 176.427 46.9312 175.398C47.3869 174.94 47.8747 174.59 48.3943 174.348C48.9393 174.106 49.4973 173.978 50.0682 173.964C50.6391 173.95 51.2102 174.063 51.7816 174.303C52.3657 174.555 52.9248 174.948 53.4587 175.479Z" fill="#FAA7D5"/>
<path d="M52.8028 204.329C53.131 203.793 53.5722 203.348 54.1264 202.994C54.7053 202.633 55.3207 202.316 55.9726 202.042C56.6398 201.778 57.3082 201.545 57.9779 201.346C58.6628 201.155 59.2725 200.95 59.807 200.731C60.6657 200.394 61.3973 199.991 62.0018 199.52C62.6311 199.042 63.1821 198.538 63.6549 198.008C64.1277 197.477 64.5406 196.941 64.8935 196.399C65.271 195.852 65.6299 195.336 65.9699 194.85C66.31 194.364 66.6496 193.93 66.9886 193.548C67.343 193.176 67.7457 192.897 68.1967 192.711C68.7065 192.497 69.2247 192.373 69.7512 192.338C70.293 192.312 70.8296 192.347 71.3611 192.441C71.9078 192.545 72.4341 192.699 72.9398 192.904C73.4609 193.118 73.9509 193.366 74.4097 193.647C75.0828 194.06 75.646 194.531 76.0994 195.062C76.5681 195.602 76.8525 196.271 76.9525 197.069C77.0073 197.46 76.9657 197.94 76.828 198.508C76.7055 199.085 76.5566 199.688 76.3814 200.317C76.2214 200.956 76.0614 201.594 75.9015 202.233C75.7568 202.881 75.6743 203.462 75.654 203.975C75.6376 204.723 75.677 205.431 75.7721 206.1C75.8766 206.753 75.9858 207.399 76.0997 208.037C76.223 208.66 76.3263 209.281 76.4096 209.9C76.5176 210.513 76.5562 211.137 76.5255 211.77C76.5042 212.389 76.3965 213.028 76.2025 213.687C76.0238 214.356 75.7093 215.058 75.2592 215.792C74.8559 216.45 74.3967 217.01 73.8815 217.473C73.3662 217.936 72.8108 218.258 72.2151 218.44C71.6348 218.632 71.0066 218.678 70.3306 218.579C69.6699 218.49 68.9877 218.229 68.2841 217.798C67.3969 217.254 66.7582 216.631 66.368 215.929C65.9684 215.242 65.7275 214.536 65.6452 213.812C65.5629 213.088 65.5728 212.369 65.6751 211.653C65.7926 210.946 65.902 210.287 66.0033 209.676C66.1198 209.074 66.1771 208.551 66.1752 208.108C66.198 207.659 66.0641 207.345 65.7735 207.167C65.7123 207.129 65.6388 207.095 65.5529 207.063C65.4823 207.041 65.41 207.039 65.336 207.057C64.7355 207.109 64.204 207.341 63.7415 207.752C63.2791 208.163 62.8391 208.641 62.4216 209.184C62.0134 209.713 61.6006 210.249 61.183 210.792C60.7561 211.352 60.2719 211.781 59.7306 212.08C59.1798 212.395 58.5477 212.534 57.8341 212.496C57.1112 212.474 56.2526 212.158 55.2584 211.548C53.6829 210.582 52.6626 209.483 52.1975 208.251C51.7476 207.028 51.9494 205.721 52.8028 204.329ZM67.2584 201.038C67.1178 201.267 67.0494 201.499 67.0533 201.733C67.0725 201.976 67.1411 202.207 67.259 202.427C67.3863 202.631 67.5382 202.83 67.7148 203.022C67.9008 203.199 68.0933 203.349 68.2921 203.471C68.4757 203.583 68.6886 203.682 68.9309 203.768C69.1884 203.863 69.4418 203.913 69.691 203.918C69.9555 203.933 70.1958 203.901 70.412 203.823C70.6281 203.746 70.8065 203.592 70.9472 203.362C71.0785 203.148 71.1609 202.894 71.1945 202.599C71.2434 202.313 71.2371 202.014 71.1754 201.703C71.1291 201.401 71.0211 201.114 70.8513 200.841C70.6969 200.578 70.4897 200.367 70.2297 200.208C69.9544 200.039 69.6721 199.95 69.3829 199.941C69.0938 199.932 68.8041 199.975 68.5139 200.071C68.2484 200.161 67.9995 200.292 67.767 200.466C67.5593 200.633 67.3897 200.824 67.2584 201.038Z" fill="#88DFD5"/>
<path d="M80.3716 208.888C81.035 206.972 81.8369 205.341 82.7774 203.996C83.7237 202.634 84.7658 201.571 85.9038 200.807C87.0588 200.048 88.2982 199.595 89.622 199.445C90.9516 199.279 92.3201 199.44 93.7273 199.927C94.5919 200.226 95.3734 200.601 96.0718 201.052C96.7761 201.486 97.3463 201.978 97.7825 202.527C98.2246 203.06 98.5216 203.628 98.6734 204.231C98.8423 204.84 98.8181 205.459 98.6009 206.086C98.3602 206.781 97.7765 207.206 96.8499 207.359C95.946 207.502 94.8583 207.353 93.5868 206.913C92.8408 206.655 92.0997 206.465 91.3634 206.343C90.6442 206.226 89.9631 206.247 89.3201 206.404C88.6771 206.561 88.0888 206.889 87.5554 207.388C87.0447 207.876 86.6221 208.603 86.2875 209.569C86.1466 209.976 86.0879 210.392 86.1113 210.818C86.1406 211.227 86.241 211.623 86.4125 212.005C86.6068 212.376 86.878 212.717 87.2262 213.027C87.5972 213.326 88.0371 213.564 88.5457 213.74C88.9865 213.893 89.4479 213.986 89.9298 214.02C90.4117 214.054 90.8629 214.039 91.2835 213.976C91.7042 213.913 92.0658 213.801 92.3684 213.64C92.6709 213.479 92.8604 213.288 92.9367 213.068C93.107 212.576 92.6835 212.154 91.6662 211.802C91.378 211.702 91.0669 211.613 90.7331 211.536C90.4161 211.464 90.1136 211.378 89.8253 211.278C89.198 211.061 88.7784 210.792 88.5665 210.472C88.3774 210.141 88.368 209.729 88.5383 209.238C88.7085 208.746 88.9622 208.397 89.2994 208.191C89.6535 207.991 90.0405 207.888 90.4605 207.881C90.8804 207.875 91.3082 207.928 91.7438 208.041C92.1794 208.154 92.5837 208.275 92.9567 208.404C94.2452 208.85 95.3407 209.305 96.2432 209.769C97.1626 210.24 97.8652 210.815 98.351 211.496C98.8426 212.16 99.1057 212.963 99.1401 213.905C99.1746 214.848 98.9482 216.022 98.461 217.43C97.962 218.871 97.2436 220.15 96.3058 221.269C95.3738 222.37 94.2997 223.251 93.0834 223.912C91.8672 224.574 90.5519 224.973 89.1374 225.109C87.74 225.252 86.3122 225.071 84.8541 224.566C83.413 224.067 82.25 223.313 81.3652 222.304C80.4745 221.312 79.8499 220.128 79.4914 218.75C79.127 217.39 79.0169 215.871 79.1612 214.193C79.3282 212.504 79.7317 210.736 80.3716 208.888Z" fill="#EFD65C"/>
<path d="M108.171 203.176C109.43 203.367 110.373 203.791 111 204.448C111.629 205.087 111.871 205.886 111.726 206.844C111.654 207.323 111.501 207.853 111.268 208.435C111.035 209.017 110.786 209.641 110.522 210.309C110.261 210.959 110.003 211.646 109.748 212.37C109.493 213.093 109.307 213.845 109.189 214.626C109.061 215.477 109.084 216.28 109.261 217.032C109.455 217.787 109.678 218.538 109.928 219.283C110.178 220.029 110.39 220.786 110.564 221.557C110.756 222.33 110.794 223.161 110.677 224.051L110.657 224.184C110.027 228.353 107.92 230.166 104.337 229.625C102.758 229.386 101.567 228.798 100.766 227.86C99.9787 226.943 99.6646 225.78 99.8232 224.37L99.8554 224.157C99.9734 223.377 100.196 222.684 100.523 222.081C100.868 221.479 101.223 220.871 101.588 220.255C101.974 219.623 102.34 218.944 102.686 218.216C103.049 217.49 103.309 216.613 103.465 215.584C103.607 214.644 103.634 213.804 103.546 213.065C103.461 212.309 103.341 211.601 103.186 210.942C103.05 210.287 102.92 209.641 102.799 209.006C102.697 208.355 102.703 207.658 102.815 206.912C103.03 205.493 103.594 204.463 104.508 203.82C105.442 203.163 106.663 202.948 108.171 203.176Z" fill="#CAE500"/>
<path d="M115.262 209.571C115.251 209.122 115.31 208.636 115.441 208.112C115.589 207.588 115.819 207.098 116.131 206.641C116.46 206.166 116.881 205.77 117.393 205.452C117.906 205.134 118.521 204.966 119.238 204.948C120.297 204.922 121.146 205.17 121.788 205.692C122.447 206.214 122.789 206.995 122.815 208.036C122.826 208.466 122.8 208.871 122.738 209.249C122.675 209.61 122.594 209.953 122.495 210.278C122.413 210.603 122.34 210.91 122.275 211.199C122.21 211.47 122.181 211.731 122.187 211.982C122.192 212.179 122.232 212.331 122.306 212.437C122.399 212.542 122.57 212.591 122.821 212.585C123.198 212.576 123.535 212.397 123.831 212.048C124.145 211.682 124.448 211.234 124.74 210.707C125.031 210.161 125.34 209.579 125.665 208.96C125.99 208.324 126.362 207.741 126.779 207.21C127.196 206.661 127.669 206.209 128.199 205.855C128.728 205.483 129.351 205.288 130.069 205.27C130.607 205.256 131.085 205.352 131.503 205.557C131.92 205.744 132.277 206.022 132.574 206.392C132.887 206.743 133.122 207.159 133.278 207.639C133.451 208.12 133.545 208.638 133.559 209.194C133.578 209.965 133.389 210.634 132.99 211.2C132.591 211.767 132.083 212.255 131.465 212.665C130.847 213.075 130.174 213.433 129.446 213.739C128.735 214.026 128.069 214.303 127.448 214.569C126.826 214.818 126.311 215.064 125.905 215.308C125.498 215.551 125.298 215.826 125.306 216.13C125.314 216.435 125.546 216.744 126.002 217.055C126.459 217.367 127.024 217.712 127.697 218.09C128.37 218.45 129.098 218.853 129.881 219.3C130.682 219.747 131.422 220.276 132.101 220.887C132.78 221.48 133.354 222.166 133.822 222.944C134.29 223.704 134.536 224.577 134.561 225.564C134.573 226.066 134.488 226.598 134.304 227.159C134.139 227.719 133.865 228.237 133.482 228.714C133.117 229.189 132.633 229.587 132.031 229.908C131.447 230.227 130.751 230.397 129.944 230.417C129.442 230.43 128.955 230.334 128.483 230.131C128.012 229.945 127.574 229.687 127.171 229.356C126.786 229.025 126.454 228.647 126.174 228.223C125.894 227.8 125.694 227.356 125.575 226.892C125.417 226.304 125.322 225.723 125.289 225.15C125.274 224.558 125.261 224.002 125.248 223.481C125.253 222.961 125.241 222.486 125.212 222.056C125.201 221.625 125.13 221.277 124.997 221.011C124.922 220.851 124.827 220.665 124.714 220.453C124.619 220.222 124.497 220.009 124.348 219.816C124.217 219.604 124.042 219.429 123.824 219.29C123.622 219.134 123.369 219.059 123.064 219.067C122.688 219.077 122.431 219.227 122.295 219.517C122.176 219.807 122.122 220.159 122.133 220.571C122.146 221.091 122.293 221.59 122.574 222.068C122.855 222.545 123.154 223.031 123.472 223.526C123.807 224.02 124.116 224.542 124.399 225.091C124.682 225.64 124.832 226.247 124.849 226.91C124.863 227.484 124.751 228.026 124.512 228.534C124.274 229.061 123.936 229.527 123.497 229.932C123.059 230.338 122.528 230.657 121.906 230.888C121.302 231.136 120.623 231.27 119.87 231.288C119.206 231.305 118.567 231.204 117.951 230.986C117.353 230.768 116.816 230.458 116.34 230.058C115.881 229.674 115.511 229.208 115.228 228.659C114.945 228.127 114.796 227.557 114.781 226.947C114.764 226.265 114.882 225.598 115.135 224.946C115.387 224.275 115.666 223.586 115.972 222.879C116.295 222.171 116.582 221.446 116.833 220.704C117.083 219.944 117.197 219.142 117.176 218.299C117.158 217.582 117.052 216.92 116.857 216.315C116.663 215.709 116.45 215.087 116.218 214.446C116.005 213.806 115.799 213.102 115.6 212.335C115.401 211.55 115.288 210.629 115.262 209.571Z" fill="#F96B4F"/>
<path d="M140.489 202.605C141.698 202.339 142.829 202.136 143.882 201.996C144.935 201.856 145.865 201.825 146.673 201.905C147.494 201.963 148.172 202.163 148.706 202.504C149.241 202.846 149.583 203.359 149.734 204.042C149.876 204.69 149.869 205.243 149.713 205.7C149.57 206.136 149.322 206.512 148.969 206.828C148.634 207.141 148.224 207.406 147.739 207.623C147.271 207.836 146.784 208.044 146.278 208.247C145.789 208.447 145.311 208.653 144.843 208.866C144.376 209.079 143.983 209.34 143.665 209.649C143.527 209.771 143.398 209.938 143.279 210.148C143.156 210.34 143.116 210.533 143.158 210.725C143.201 210.918 143.288 211.064 143.42 211.164C143.566 211.242 143.725 211.299 143.898 211.334C144.068 211.352 144.242 211.35 144.421 211.329C144.618 211.304 144.786 211.276 144.926 211.245C145.382 211.145 145.868 211.02 146.386 210.869C146.904 210.718 147.407 210.708 147.896 210.84C148.189 210.922 148.514 211.062 148.87 211.259C149.243 211.453 149.468 211.725 149.545 212.075C149.626 212.443 149.55 212.763 149.316 213.035C149.099 213.303 148.796 213.553 148.406 213.786C148.03 213.998 147.617 214.208 147.167 214.417C146.714 214.609 146.29 214.812 145.896 215.028C145.517 215.222 145.206 215.437 144.964 215.674C144.74 215.907 144.662 216.181 144.732 216.497C144.851 217.04 145.129 217.383 145.564 217.526C145.996 217.651 146.44 217.664 146.896 217.563C147.316 217.471 147.72 217.345 148.108 217.186C148.513 217.024 148.909 216.863 149.297 216.704C149.68 216.528 150.068 216.369 150.46 216.228C150.865 216.065 151.277 215.938 151.698 215.845C152.381 215.695 152.958 215.687 153.429 215.822C153.913 215.936 154.321 216.159 154.651 216.49C154.981 216.822 155.248 217.241 155.451 217.747C155.651 218.236 155.818 218.787 155.953 219.4C156.273 220.855 156.195 222.084 155.718 223.089C155.258 224.091 154.562 224.933 153.628 225.616C152.712 226.295 151.655 226.831 150.455 227.224C149.277 227.63 148.118 227.959 146.979 228.21C145.981 228.429 144.998 228.554 144.03 228.583C143.081 228.609 142.2 228.49 141.389 228.228C140.596 227.961 139.91 227.515 139.331 226.889C138.756 226.281 138.349 225.434 138.11 224.347C137.944 223.594 137.927 222.89 138.059 222.237C138.187 221.566 138.336 220.908 138.506 220.264C138.695 219.617 138.853 218.957 138.98 218.286C139.104 217.597 139.08 216.859 138.906 216.07C138.709 215.177 138.446 214.399 138.117 213.736C137.805 213.07 137.485 212.452 137.157 211.881C136.829 211.31 136.512 210.746 136.206 210.189C135.913 209.61 135.692 208.979 135.541 208.296C135.364 207.49 135.382 206.779 135.595 206.162C135.822 205.524 136.177 204.968 136.661 204.495C137.145 204.021 137.719 203.628 138.386 203.316C139.069 203 139.77 202.763 140.489 202.605Z" fill="#FAA7D5"/>
<path d="M167.429 206.851C167.508 207.033 167.764 207.195 168.198 207.34C168.648 207.477 169.191 207.624 169.825 207.78C170.452 207.919 171.138 208.081 171.883 208.267C172.645 208.446 173.368 208.671 174.052 208.942C174.736 209.213 175.349 209.544 175.889 209.936C176.447 210.32 176.846 210.792 177.089 211.352C177.317 211.879 177.399 212.43 177.335 213.005C177.294 213.59 177.147 214.152 176.892 214.692C176.653 215.226 176.325 215.71 175.907 216.145C175.506 216.572 175.058 216.893 174.564 217.107C174.251 217.242 173.919 217.356 173.569 217.45C173.242 217.552 172.905 217.61 172.559 217.623C172.229 217.628 171.898 217.586 171.565 217.495C171.249 217.397 170.941 217.228 170.641 216.986C170.379 216.787 170.08 216.457 169.744 215.996C169.424 215.528 169.087 215.02 168.731 214.469C168.369 213.903 167.999 213.32 167.623 212.721C167.246 212.121 166.873 211.598 166.504 211.152C166.144 210.682 165.795 210.325 165.454 210.081C165.131 209.83 164.829 209.765 164.549 209.886C164.269 210.007 164.073 210.21 163.961 210.493C163.849 210.776 163.853 211.057 163.975 211.337C164.174 211.798 164.47 212.188 164.862 212.507C165.247 212.81 165.649 213.105 166.067 213.394C166.477 213.666 166.879 213.961 167.271 214.28C167.663 214.599 167.966 215.006 168.18 215.5C168.429 216.076 168.521 216.672 168.455 217.287C168.412 217.911 168.247 218.501 167.959 219.056C167.688 219.603 167.315 220.097 166.84 220.537C166.39 220.986 165.892 221.328 165.349 221.563C164.114 222.097 162.99 222.232 161.976 221.967C160.969 221.718 160.182 220.984 159.615 219.763L159.529 219.565C159.294 219.022 159.148 218.459 159.092 217.877C159.045 217.272 159.01 216.672 158.987 216.076C158.98 215.472 158.949 214.88 158.892 214.298C158.846 213.693 158.705 213.119 158.47 212.575C158.156 211.851 157.771 211.187 157.314 210.583C156.867 209.955 156.398 209.347 155.909 208.757C155.412 208.151 154.931 207.538 154.467 206.917C154.02 206.29 153.64 205.614 153.326 204.889C152.97 204.066 152.81 203.245 152.848 202.428C152.878 201.594 153.058 200.812 153.387 200.083C153.717 199.354 154.179 198.704 154.773 198.135C155.376 197.541 156.073 197.074 156.864 196.732C157.901 196.283 159.01 195.999 160.19 195.879C161.379 195.736 162.521 195.799 163.615 196.069C164.702 196.322 165.696 196.791 166.598 197.476C167.517 198.153 168.233 199.085 168.746 200.27C169.131 201.16 169.263 201.963 169.143 202.679C169.016 203.379 168.808 204.007 168.521 204.561C168.226 205.099 167.947 205.562 167.684 205.949C167.415 206.32 167.33 206.621 167.429 206.851ZM160.383 204.798C160.468 204.995 160.583 205.239 160.728 205.528C160.882 205.794 161.057 206.041 161.254 206.268C161.443 206.48 161.659 206.64 161.902 206.75C162.145 206.86 162.407 206.855 162.687 206.734C162.901 206.641 163.083 206.474 163.233 206.233C163.375 205.976 163.487 205.693 163.569 205.384C163.65 205.075 163.692 204.764 163.693 204.451C163.694 204.137 163.648 203.874 163.556 203.66C163.456 203.429 163.311 203.228 163.119 203.057C162.944 202.878 162.739 202.742 162.503 202.649C162.283 202.548 162.045 202.495 161.788 202.489C161.548 202.476 161.321 202.515 161.107 202.608C160.679 202.793 160.408 203.116 160.294 203.575C160.189 204.012 160.219 204.419 160.383 204.798Z" fill="#EFD65C"/>
<path d="M173 190.975C173.629 190.529 174.208 190.305 174.735 190.305C175.278 190.295 175.855 190.534 176.466 191.025C176.67 191.188 176.983 191.428 177.405 191.744C177.827 192.061 178.315 192.408 178.869 192.785C179.412 193.148 179.985 193.522 180.588 193.908C181.196 194.269 181.78 194.581 182.34 194.844C182.9 195.107 183.403 195.289 183.849 195.39C184.31 195.482 184.665 195.439 184.914 195.263C185.089 195.138 185.173 194.947 185.166 194.688C185.163 194.404 185.102 194.117 184.984 193.827C184.881 193.526 184.756 193.241 184.609 192.972C184.462 192.702 184.347 192.509 184.264 192.392C183.984 191.996 183.665 191.64 183.307 191.321C182.939 190.988 182.569 190.668 182.197 190.36C181.825 190.052 181.465 189.746 181.118 189.443C180.76 189.124 180.441 188.768 180.161 188.372C179.538 187.494 179.331 186.674 179.538 185.911C179.735 185.134 180.257 184.444 181.106 183.842C181.414 183.625 181.775 183.467 182.191 183.371C182.606 183.274 183.021 183.255 183.436 183.313C183.865 183.36 184.264 183.473 184.633 183.652C185.001 183.83 185.305 184.088 185.544 184.425C186.26 185.435 186.907 186.471 187.485 187.535C188.063 188.599 188.71 189.636 189.426 190.646C189.882 191.29 190.402 191.867 190.984 192.378C191.566 192.889 192.163 193.39 192.774 193.88C193.4 194.36 194.005 194.855 194.587 195.366C195.159 195.863 195.673 196.433 196.129 197.077C196.575 197.706 196.93 198.346 197.192 198.995C197.445 199.63 197.572 200.244 197.574 200.836C197.586 201.443 197.451 202.012 197.167 202.543C196.894 203.089 196.443 203.584 195.813 204.031C195.199 204.466 194.564 204.719 193.908 204.787C193.268 204.845 192.636 204.776 192.013 204.58C191.405 204.374 190.828 204.057 190.283 203.629C189.739 203.202 189.269 202.71 188.875 202.154C188.605 201.773 188.194 201.349 187.643 200.882C187.092 200.415 186.508 199.994 185.89 199.618C185.276 199.218 184.688 198.931 184.125 198.758C183.567 198.56 183.156 198.554 182.893 198.741C182.761 198.834 182.689 198.951 182.679 199.09C182.657 199.216 182.671 199.36 182.721 199.522C182.76 199.671 182.819 199.816 182.898 199.958C182.991 200.09 183.069 200.199 183.131 200.287C183.411 200.682 183.759 201.018 184.176 201.295C184.592 201.572 185.02 201.851 185.461 202.132C185.917 202.403 186.379 202.713 186.847 203.063C187.305 203.398 187.726 203.837 188.11 204.378C188.483 204.905 188.748 205.465 188.904 206.058C189.076 206.641 189.132 207.217 189.073 207.786C189.015 208.355 188.827 208.896 188.508 209.407C188.214 209.924 187.789 210.379 187.233 210.773C186.706 211.147 186.143 211.392 185.544 211.509C184.959 211.615 184.374 211.612 183.789 211.499C183.228 211.391 182.686 211.17 182.164 210.836C181.652 210.518 181.209 210.095 180.836 209.568C180.213 208.689 179.682 207.769 179.241 206.806C178.8 205.843 178.372 204.882 177.956 203.923C177.544 202.939 177.118 201.966 176.677 201.002C176.237 200.039 175.71 199.126 175.098 198.262C174.631 197.604 174.101 197.012 173.509 196.486C172.931 195.95 172.455 195.418 172.082 194.892C171.573 194.174 171.431 193.462 171.654 192.753C171.893 192.034 172.341 191.442 173 190.975Z" fill="#88DFD5"/>
<path d="M187.883 177.142C188.73 176.24 189.549 175.434 190.339 174.724C191.13 174.013 191.88 173.463 192.592 173.073C193.302 172.657 193.974 172.439 194.608 172.42C195.242 172.4 195.814 172.629 196.324 173.108C196.808 173.563 197.115 174.023 197.243 174.489C197.371 174.929 197.379 175.379 197.267 175.84C197.166 176.287 196.977 176.737 196.7 177.19C196.434 177.63 196.15 178.077 195.847 178.531C195.556 178.971 195.278 179.411 195.012 179.851C194.747 180.291 194.57 180.728 194.482 181.163C194.437 181.342 194.424 181.552 194.445 181.792C194.452 182.02 194.527 182.202 194.671 182.337C194.815 182.472 194.969 182.544 195.135 182.551C195.299 182.533 195.463 182.49 195.626 182.422C195.775 182.341 195.918 182.241 196.054 182.123C196.202 181.991 196.326 181.873 196.424 181.768C196.743 181.428 197.074 181.05 197.417 180.633C197.759 180.216 198.169 179.924 198.646 179.757C198.935 179.659 199.282 179.591 199.687 179.553C200.104 179.502 200.443 179.599 200.705 179.845C200.979 180.103 201.097 180.41 201.057 180.767C201.03 181.11 200.921 181.488 200.731 181.9C200.54 182.287 200.318 182.694 200.065 183.12C199.798 183.535 199.564 183.942 199.36 184.342C199.156 184.716 199.021 185.07 198.956 185.402C198.902 185.721 198.993 185.991 199.228 186.212C199.634 186.593 200.057 186.719 200.497 186.591C200.924 186.451 201.297 186.211 201.617 185.871C201.912 185.557 202.174 185.225 202.404 184.875C202.647 184.512 202.883 184.156 203.113 183.806C203.331 183.443 203.561 183.094 203.804 182.756C204.047 182.393 204.315 182.055 204.61 181.741C205.089 181.231 205.561 180.899 206.026 180.744C206.49 180.565 206.952 180.519 207.411 180.606C207.871 180.693 208.328 180.888 208.782 181.191C209.222 181.482 209.671 181.843 210.129 182.273C211.215 183.292 211.844 184.351 212.018 185.45C212.205 186.536 212.105 187.624 211.721 188.715C211.348 189.793 210.778 190.833 210.009 191.834C209.266 192.835 208.496 193.76 207.697 194.61C206.997 195.355 206.256 196.013 205.474 196.584C204.705 197.141 203.911 197.54 203.094 197.781C202.288 198.01 201.47 198.029 200.639 197.839C199.821 197.662 199.007 197.192 198.196 196.43C197.634 195.902 197.223 195.331 196.962 194.717C196.689 194.091 196.441 193.464 196.218 192.837C196.008 192.196 195.766 191.562 195.492 190.936C195.206 190.298 194.768 189.702 194.18 189.15C193.513 188.523 192.856 188.03 192.21 187.669C191.577 187.295 190.964 186.965 190.371 186.679C189.778 186.393 189.198 186.107 188.63 185.82C188.062 185.508 187.523 185.112 187.013 184.633C186.411 184.068 186.024 183.471 185.853 182.841C185.68 182.187 185.659 181.527 185.791 180.863C185.922 180.199 186.175 179.55 186.548 178.917C186.934 178.27 187.379 177.678 187.883 177.142Z" fill="#CAE500"/>
</svg>
