<svg width="962" height="603" viewBox="0 0 962 603" fill="none" xmlns="http://www.w3.org/2000/svg">
<path d="M5.38346 327.484C-8.6696 256.858 5.46259 208.179 39.935 146.308C82.9171 69.1647 108.05 104.446 181.45 61.9427C228.42 34.7442 253.142 9.36082 305.924 1.55077C359.885 -6.43377 389.54 18.6992 443.687 25.0365C563.734 39.0865 641.336 -24.9946 752.879 25.0365C815.209 52.9936 852.361 75.0153 894.629 131.921C933.692 184.51 951.802 223.055 958.86 290.09C970.353 399.259 953.09 506.26 860.078 550.351C806.363 575.813 768.511 547.906 709.911 550.351C569.557 556.205 493.283 613.946 353.322 601.157C267.746 593.337 214.444 593.703 138.482 550.351C57.6548 504.221 24.6171 424.146 5.38346 327.484Z" fill="#4559B2"/>
</svg>
