<svg width="275" height="287" viewBox="0 0 275 287" fill="none" xmlns="http://www.w3.org/2000/svg">
<g filter="url(#filter0_d_7_114)">
<ellipse cx="124.776" cy="62.0891" rx="37.7857" ry="20.4625" transform="rotate(128.014 124.776 62.0891)" fill="#FF97D6" fill-opacity="0.7"/>
<ellipse cx="141.058" cy="77.1581" rx="37.7858" ry="20.4625" transform="rotate(142.403 141.058 77.1581)" fill="#FF97D6" fill-opacity="0.7"/>
<ellipse cx="208.896" cy="129.578" rx="8.55948" ry="8.54153" transform="rotate(128.014 208.896 129.578)" fill="#FF97D6" fill-opacity="0.5"/>
<ellipse cx="47.7618" cy="23.7978" rx="47.7618" ry="23.7978" transform="matrix(-0.713709 0.700443 -0.759561 -0.650436 124.046 155.453)" fill="#FF97D6" fill-opacity="0.5"/>
<ellipse cx="47.5372" cy="23.8909" rx="47.5372" ry="23.8909" transform="matrix(0.00197372 0.999998 -0.997209 -0.074657 183.792 170.612)" fill="#FF97D6" fill-opacity="0.5"/>
<ellipse cx="179.619" cy="166.294" rx="37.7857" ry="20.4625" transform="rotate(128.014 179.619 166.294)" fill="#FF97D6" fill-opacity="0.5"/>
<rect x="67.2446" y="58.4441" width="8.32422" height="5.54948" rx="2.77474" transform="rotate(36.571 67.2446 58.4441)" fill="#FF97D6"/>
<rect x="208.903" y="136.036" width="8.32422" height="5.54948" rx="2.77474" transform="rotate(131.014 208.903 136.036)" fill="#FF97D6"/>
<ellipse cx="64.6853" cy="58.8121" rx="4.18583" ry="7.2847" transform="rotate(38.384 64.6853 58.8121)" fill="#FF97D6"/>
<ellipse cx="113.883" cy="125.173" rx="28.2098" ry="18.9462" transform="rotate(92.0911 113.883 125.173)" fill="#FF97D6" fill-opacity="0.5"/>
<ellipse cx="97.4952" cy="86.6739" rx="37.7858" ry="20.4625" transform="rotate(33.2148 97.4952 86.6739)" fill="#FF97D6" fill-opacity="0.6"/>
<ellipse cx="43.1626" cy="20.0486" rx="43.1626" ry="20.0486" transform="matrix(0.17355 0.984825 -0.997498 0.070699 186.708 178.445)" fill="#FF97D6" fill-opacity="0.7"/>
<ellipse cx="134.305" cy="172.361" rx="41.8914" ry="22.6859" transform="rotate(-155.421 134.305 172.361)" fill="#FF97D6" fill-opacity="0.7"/>
<ellipse cx="47.5502" cy="22.6996" rx="47.5502" ry="22.6996" transform="matrix(-0.674855 0.73795 -0.787881 -0.615828 130.248 164.172)" fill="#FF97D6" fill-opacity="0.7"/>
<path d="M95.0505 66.0615C86.9885 62.9565 77.775 61.0227 74.8487 63.5712C72.7429 65.4053 88.4048 66.1471 96.4668 69.2521C104.529 72.3571 103.113 69.1666 95.0505 66.0615Z" fill="white"/>
<path d="M150.834 54.3649C143.103 58.2213 135.46 63.7177 135.367 67.5971C135.3 70.3889 146.414 59.3283 154.144 55.4719C161.875 51.6155 158.565 50.5086 150.834 54.3649Z" fill="white"/>
<path d="M133.651 37.1677C125.921 41.024 118.278 46.5204 118.185 50.3998C118.118 53.1916 129.231 42.131 136.962 38.2746C144.693 34.4183 141.382 33.3113 133.651 37.1677Z" fill="white"/>
<path d="M88.9364 160.136C81.2056 163.993 73.5625 169.489 73.4696 173.369C73.4027 176.16 84.5162 165.1 92.247 161.243C99.9779 157.387 96.6672 156.28 88.9364 160.136Z" fill="white"/>
<path d="M158.976 199.881C158.039 207.496 158.507 215.949 161.67 218.144C163.946 219.723 160.725 205.749 161.662 198.134C162.599 190.518 159.914 192.266 158.976 199.881Z" fill="white"/>
<path d="M142.875 156.392C135.302 152.235 126.431 149.084 123.189 151.217C120.857 152.753 136.278 155.586 143.851 159.744C151.425 163.901 150.449 160.549 142.875 156.392Z" fill="white"/>
<path d="M186.902 139.626C179.139 143.417 171.449 148.848 171.323 152.726C171.233 155.518 182.44 144.552 190.203 140.761C197.967 136.971 194.665 135.836 186.902 139.626Z" fill="white"/>
<path d="M209.792 123.926C207.891 123.365 205.42 124.207 204.05 127.379C203.064 129.662 207.736 125.893 209.637 126.453C211.538 127.014 211.693 124.486 209.792 123.926Z" fill="white"/>
<path d="M78.6642 145.6C70.9334 149.456 63.2903 154.952 63.1974 158.832C63.1305 161.624 74.244 150.563 81.9748 146.707C89.7057 142.85 86.395 141.743 78.6642 145.6Z" fill="white"/>
</g>
<defs>
<filter id="filter0_d_7_114" x="16.7701" y="18.3168" width="217.195" height="268.188" filterUnits="userSpaceOnUse" color-interpolation-filters="sRGB">
<feFlood flood-opacity="0" result="BackgroundImageFix"/>
<feColorMatrix in="SourceAlpha" type="matrix" values="0 0 0 0 0 0 0 0 0 0 0 0 0 0 0 0 0 0 127 0" result="hardAlpha"/>
<feOffset dy="5.08307"/>
<feGaussianBlur stdDeviation="8.25999"/>
<feComposite in2="hardAlpha" operator="out"/>
<feColorMatrix type="matrix" values="0 0 0 0 0 0 0 0 0 0 0 0 0 0 0 0 0 0 0.25 0"/>
<feBlend mode="normal" in2="BackgroundImageFix" result="effect1_dropShadow_7_114"/>
<feBlend mode="normal" in="SourceGraphic" in2="effect1_dropShadow_7_114" result="shape"/>
</filter>
</defs>
</svg>
