<svg width="281" height="149" viewBox="0 0 281 149" fill="none" xmlns="http://www.w3.org/2000/svg">
<g filter="url(#filter0_d_7_99)">
<path d="M55.645 67.1354C55.7922 66.4327 56.725 66.2757 57.0941 66.8915L66.081 81.8843C66.2399 82.1493 66.5388 82.2972 66.8458 82.2627L84.3564 80.2978C85.0746 80.2173 85.5143 81.0644 85.0349 81.6053L73.4063 94.7275C73.1994 94.961 73.1494 95.2944 73.2789 95.5782L80.5181 111.452C80.8168 112.107 80.1546 112.787 79.492 112.505L63.3015 105.635C63.0187 105.515 62.6921 105.57 62.4642 105.776L49.4152 117.568C48.8811 118.051 48.0328 117.625 48.1006 116.909L49.744 99.54C49.7734 99.2294 49.6171 98.9307 49.3451 98.7778L34.0613 90.186C33.4313 89.8318 33.5693 88.8874 34.2744 88.7284L51.4631 84.8522C51.7645 84.7842 51.9985 84.5466 52.0619 84.2442L55.645 67.1354Z" fill="#FFDF53"/>
<path d="M22.9709 39.9586C23.0658 39.5484 23.609 39.4569 23.833 39.8135L28.1197 46.6352C28.2167 46.7896 28.3937 46.8746 28.5749 46.8536L37.0144 45.879C37.4528 45.8284 37.716 46.3521 37.4137 46.6736L31.7949 52.6502C31.6614 52.7922 31.6285 53.0016 31.7122 53.1776L35.1128 60.3376C35.2969 60.7253 34.9116 61.1383 34.5121 60.9814L26.6827 57.9072C26.5198 57.8432 26.3349 57.8743 26.2019 57.9881L19.8105 63.4562C19.4844 63.7352 18.9851 63.4712 19.0322 63.0446L19.9013 55.1658C19.9226 54.9721 19.8231 54.785 19.6504 54.6946L12.3846 50.8869C11.9937 50.6821 12.0709 50.101 12.5017 50.0053L20.7952 48.1632C20.9732 48.1237 21.1127 47.9855 21.1538 47.8078L22.9709 39.9586Z" fill="#FFDF53"/>
<path d="M66.1446 36.083C66.2126 35.8179 66.5626 35.759 66.7136 35.9873L69.5205 40.2303C69.5863 40.3298 69.7026 40.3837 69.821 40.3696L75.4012 39.7069C75.6986 39.6716 75.8734 40.0317 75.6616 40.2435L71.9402 43.9652C71.8444 44.0611 71.8205 44.2074 71.8807 44.3288L74.0695 48.7372C74.196 48.992 73.9473 49.271 73.6797 49.1745L68.4825 47.3002C68.3787 47.2627 68.2628 47.2822 68.177 47.3516L63.8798 50.8241C63.6586 51.0029 63.3323 50.8207 63.3684 50.5385L63.9932 45.6565C64.0104 45.5221 63.9399 45.3917 63.818 45.3325L59.0832 43.0342C58.8138 42.9034 58.861 42.5059 59.1536 42.4419L64.6432 41.2412C64.7597 41.2157 64.8519 41.1268 64.8815 41.0112L66.1446 36.083Z" fill="#FFDF53"/>
<rect width="18.9598" height="191.82" rx="4.73446" transform="matrix(0.19473 -0.980857 0.974075 0.226226 78.5164 65.0974)" fill="#3D3B3B"/>
<rect width="18.9987" height="39.5395" rx="4.73446" transform="matrix(0.19473 -0.980857 0.974075 0.226226 226.937 99.5919)" fill="#EBE8D5"/>
<rect width="18.9598" height="39.0701" rx="4.73446" transform="matrix(0.19473 -0.980857 0.974075 0.226226 78.5164 65.0974)" fill="#EBE8D5"/>
</g>
<defs>
<filter id="filter0_d_7_99" x="0.357372" y="35.8456" width="279.737" height="105.475" filterUnits="userSpaceOnUse" color-interpolation-filters="sRGB">
<feFlood flood-opacity="0" result="BackgroundImageFix"/>
<feColorMatrix in="SourceAlpha" type="matrix" values="0 0 0 0 0 0 0 0 0 0 0 0 0 0 0 0 0 0 127 0" result="hardAlpha"/>
<feOffset dy="11.7732"/>
<feGaussianBlur stdDeviation="5.88662"/>
<feComposite in2="hardAlpha" operator="out"/>
<feColorMatrix type="matrix" values="0 0 0 0 0 0 0 0 0 0 0 0 0 0 0 0 0 0 0.25 0"/>
<feBlend mode="normal" in2="BackgroundImageFix" result="effect1_dropShadow_7_99"/>
<feBlend mode="normal" in="SourceGraphic" in2="effect1_dropShadow_7_99" result="shape"/>
</filter>
</defs>
</svg>
